<svg width="598" height="405" viewBox="0 0 598 405" fill="none" xmlns="http://www.w3.org/2000/svg">
<g clip-path="url(#clip0_122_15624)">
<path d="M332.199 9.10222H257.699C255.199 9.10222 253.199 7.10173 253.199 4.60112C253.199 2.1005 255.199 0.100006 257.699 0.100006H332.199C334.699 0.100006 336.699 2.1005 336.699 4.60112C336.699 7.00171 334.699 9.10222 332.199 9.10222Z" fill="url(#paint0_linear_122_15624)" fill-opacity="0.19"/>
<path d="M57.8004 185.646H44.7004C41.2004 185.646 38.4004 182.845 38.4004 179.344V167.041C38.4004 163.54 41.2004 160.74 44.7004 160.74H57.9004C61.4004 160.74 64.2004 163.54 64.2004 167.041V179.344C64.1004 182.845 61.3004 185.646 57.8004 185.646Z" fill="url(#paint1_linear_122_15624)" fill-opacity="0.19"/>
<path d="M440.5 405H433.3C431.4 405 429.9 403.499 429.9 401.599V394.897C429.9 392.997 431.4 391.496 433.3 391.496H440.5C442.4 391.496 443.9 392.997 443.9 394.897V401.599C443.9 403.499 442.4 405 440.5 405Z" fill="#EDD5D1"/>
<path d="M569.2 117.229H562C560.1 117.229 558.6 115.729 558.6 113.828V107.026C558.6 105.126 560.1 103.626 562 103.626H569.2C571.1 103.626 572.6 105.126 572.6 107.026V113.728C572.6 115.729 571.1 117.229 569.2 117.229Z" fill="url(#paint2_linear_122_15624)" fill-opacity="0.19"/>
<path d="M67.3996 325.48L31.0996 344.185L41.5996 349.286L28.5996 364.79L38.6996 373.092L51.1996 356.388L59.5996 365.39L67.3996 325.48Z" fill="#FEFEF4"/>
<path d="M193.6 403.599H151.3C148.2 403.599 145.6 401.099 145.6 397.898C145.6 394.797 148.1 392.197 151.3 392.197H193.6C196.7 392.197 199.3 394.697 199.3 397.898C199.2 400.999 196.7 403.599 193.6 403.599Z" fill="url(#paint3_linear_122_15624)" fill-opacity="0.19"/>
<path d="M465.3 363.29H124.3C120.4 363.29 117.1 360.089 117.1 356.088V72.0178C117.1 68.1168 120.3 64.816 124.3 64.816H465.3C469.2 64.816 472.5 68.0168 472.5 72.0178V356.088C472.5 360.089 469.2 363.29 465.3 363.29Z" fill="#CFD7E4"/>
<path d="M117.1 100.825H472.5" stroke="#FEFEF4" stroke-width="1.9411" stroke-miterlimit="10"/>
<path d="M465.3 363.29H124.3C120.4 363.29 117.1 360.089 117.1 356.088V72.0178C117.1 68.1168 120.3 64.816 124.3 64.816H465.3C469.2 64.816 472.5 68.0168 472.5 72.0178V356.088C472.5 360.089 469.2 363.29 465.3 363.29Z" stroke="#FEFEF4" stroke-width="1.9411" stroke-miterlimit="10"/>
<path d="M147.199 88.2217C149.961 88.2217 152.199 85.9826 152.199 83.2205C152.199 80.4584 149.961 78.2193 147.199 78.2193C144.438 78.2193 142.199 80.4584 142.199 83.2205C142.199 85.9826 144.438 88.2217 147.199 88.2217Z" stroke="#FEFEF4" stroke-width="1.9411" stroke-miterlimit="10"/>
<path d="M166.6 88.2217C169.361 88.2217 171.6 85.9826 171.6 83.2205C171.6 80.4584 169.361 78.2193 166.6 78.2193C163.838 78.2193 161.6 80.4584 161.6 83.2205C161.6 85.9826 163.838 88.2217 166.6 88.2217Z" stroke="#FEFEF4" stroke-width="1.9411" stroke-miterlimit="10"/>
<path d="M186.1 88.2217C188.861 88.2217 191.1 85.9826 191.1 83.2205C191.1 80.4584 188.861 78.2193 186.1 78.2193C183.338 78.2193 181.1 80.4584 181.1 83.2205C181.1 85.9826 183.338 88.2217 186.1 88.2217Z" stroke="#FEFEF4" stroke-width="1.9411" stroke-miterlimit="10"/>
<g filter="url(#filter0_b_122_15624)">
<path d="M190.9 309.576H10.4C4.7 309.576 0 304.975 0 299.174V232.257C0 226.556 4.6 221.855 10.4 221.855H191C196.7 221.855 201.4 226.456 201.4 232.257V299.174C201.3 304.875 196.6 309.576 190.9 309.576Z" fill="url(#paint4_linear_122_15624)" fill-opacity="0.5"/>
<path d="M24.4008 238.159C24.4008 240.259 22.7008 241.96 20.6008 241.96C18.5008 241.96 16.8008 240.259 16.8008 238.159C16.8008 236.058 18.5008 234.358 20.6008 234.358C22.7008 234.358 24.4008 236.058 24.4008 238.159Z" stroke="#FEFEF4" stroke-width="1.4768" stroke-miterlimit="10"/>
<path d="M35.4016 241.96C37.5002 241.96 39.2016 240.258 39.2016 238.159C39.2016 236.059 37.5002 234.358 35.4016 234.358C33.3029 234.358 31.6016 236.059 31.6016 238.159C31.6016 240.258 33.3029 241.96 35.4016 241.96Z" stroke="#FEFEF4" stroke-width="1.4768" stroke-miterlimit="10"/>
<path d="M50.2004 241.96C52.2991 241.96 54.0004 240.258 54.0004 238.159C54.0004 236.059 52.2991 234.358 50.2004 234.358C48.1017 234.358 46.4004 236.059 46.4004 238.159C46.4004 240.258 48.1017 241.96 50.2004 241.96Z" stroke="#FEFEF4" stroke-width="1.4768" stroke-miterlimit="10"/>
<path d="M0 252.562H201.3" stroke="#FEFEF4" stroke-width="1.4768" stroke-miterlimit="10"/>
</g>
<g filter="url(#filter1_b_122_15624)">
<path d="M515.399 110.627H434.399C427.599 110.627 422.199 105.126 422.199 98.4242V33.0081C422.199 26.2064 427.699 20.8051 434.399 20.8051H515.399C522.199 20.8051 527.599 26.3065 527.599 33.0081V98.3242C527.599 105.126 522.199 110.627 515.399 110.627Z" fill="url(#paint5_linear_122_15624)" fill-opacity="0.5"/>
<path d="M468.2 75.9187C458.1 75.9187 450 67.7167 450 57.7142C450 47.6117 458.2 39.5097 468.2 39.5097C478.3 39.5097 486.4 47.7117 486.4 57.7142C486.5 67.7167 478.3 75.9187 468.2 75.9187ZM468.2 43.6107C460.4 43.6107 454.1 49.9123 454.1 57.7142C454.1 65.5161 460.4 71.8177 468.2 71.8177C476 71.8177 482.3 65.5161 482.3 57.7142C482.3 49.9123 476 43.6107 468.2 43.6107Z" fill="#FEFEF4"/>
<path d="M481.094 67.6765L478.195 70.576L483.569 75.9506L486.467 73.0511L481.094 67.6765Z" fill="#FEFEF4"/>
<path d="M489.3 72.3178L499.9 82.9204C501 84.0207 501 85.9212 499.9 87.0214L497.5 89.422C496.4 90.5223 494.5 90.5223 493.4 89.422L482.8 78.8194C481.7 77.7191 481.7 75.8187 482.8 74.7184L485.2 72.3178C486.3 71.1175 488.1 71.1175 489.3 72.3178Z" fill="#FEFEF4"/>
</g>
<g filter="url(#filter2_b_122_15624)">
<path d="M86.1996 82.4203H39.6996C31.8996 82.4203 25.5996 76.1187 25.5996 68.3168V28.8071C25.5996 21.0052 31.8996 14.7036 39.6996 14.7036H86.2996C94.0996 14.7036 100.4 21.0052 100.4 28.8071V68.3168C100.4 76.1187 93.9996 82.4203 86.1996 82.4203Z" fill="url(#paint6_linear_122_15624)" fill-opacity="0.5"/>
<path d="M62.8996 63.2156C54.1996 63.2156 47.0996 56.1138 47.0996 47.4117C47.0996 38.7095 54.1996 31.6078 62.8996 31.6078C71.5996 31.6078 78.6996 38.7095 78.6996 47.4117C78.7996 56.0138 71.6996 63.2156 62.8996 63.2156ZM62.8996 36.2089C56.7996 36.2089 51.7996 41.2102 51.7996 47.3117C51.7996 53.4132 56.7996 58.4144 62.8996 58.4144C68.9996 58.4144 73.9996 53.4132 73.9996 47.3117C73.9996 41.2102 69.0996 36.2089 62.8996 36.2089Z" fill="#FEFEF4"/>
<path d="M72.2996 36.2089L54.0996 58.4144" stroke="#FEFEF4" stroke-width="4.522" stroke-miterlimit="10"/>
</g>
<g filter="url(#filter3_b_122_15624)">
<path d="M584.1 320.879H415.4C408.2 320.879 402.4 315.078 402.4 307.876V181.945C402.4 174.743 408.2 168.942 415.4 168.942H584C591.2 168.942 597 174.743 597 181.945V307.776C597.1 314.978 591.3 320.879 584.1 320.879Z" fill="url(#paint7_linear_122_15624)" fill-opacity="0.5"/>
<path d="M422.501 186.946C424.544 186.946 426.201 185.289 426.201 183.245C426.201 181.201 424.544 179.544 422.501 179.544C420.457 179.544 418.801 181.201 418.801 183.245C418.801 185.289 420.457 186.946 422.501 186.946Z" stroke="#FEFEF4" stroke-width="1.4304" stroke-miterlimit="10"/>
<path d="M436.901 186.946C438.945 186.946 440.601 185.289 440.601 183.245C440.601 181.201 438.945 179.544 436.901 179.544C434.858 179.544 433.201 181.201 433.201 183.245C433.201 185.289 434.858 186.946 436.901 186.946Z" stroke="#FEFEF4" stroke-width="1.4304" stroke-miterlimit="10"/>
<path d="M451.2 186.946C453.243 186.946 454.9 185.289 454.9 183.245C454.9 181.201 453.243 179.544 451.2 179.544C449.157 179.544 447.5 181.201 447.5 183.245C447.5 185.289 449.157 186.946 451.2 186.946Z" stroke="#FEFEF4" stroke-width="1.4304" stroke-miterlimit="10"/>
<path d="M402.4 198.649H597.1" stroke="#FEFEF4" stroke-width="1.4304" stroke-miterlimit="10"/>
</g>
<path d="M313.4 257.263L312.7 247.261L250.2 250.362V260.064C250.2 260.064 236.1 273.467 230.6 362.489H343C343 362.389 355.4 283.57 313.4 257.263Z" fill="url(#paint8_linear_122_15624)" fill-opacity="0.19"/>
<path d="M250.1 259.963L313.4 257.263" stroke="black" stroke-width="1.5516" stroke-miterlimit="10"/>
<path d="M263 300.974L276 306.275L282.9 362.389" stroke="black" stroke-width="1.5516" stroke-miterlimit="10"/>
<path d="M181.699 237.859L198.999 180.845L236.999 195.048L218.799 249.662C215.099 260.964 202.199 266.266 191.599 260.864C183.099 256.663 178.899 246.861 181.699 237.859Z" fill="#FEE0BD"/>
<path d="M208.398 150.337C211.798 139.234 223.798 133.133 234.798 136.934C245.498 140.635 251.298 152.237 247.698 162.94L236.998 195.048L198.998 180.844L208.398 150.337Z" fill="#FEFEF4"/>
<path d="M211 233.558L167.6 151.237C167.6 151.237 168.6 136.334 143.9 135.433C143.6 135.433 143.2 135.433 142.9 135.433H134.6C133.1 135.433 131.7 136.534 131.5 138.034C131.3 139.834 132.5 141.335 134.1 141.535L142.4 142.735L131.1 145.736L129 146.536L113.6 136.334C112.4 135.433 110.7 135.833 109.9 137.234C109.3 138.234 109.6 139.534 110.5 140.335C111.5 141.135 113 142.435 114.7 143.935L111.3 141.935C110 141.135 108.3 141.735 107.7 143.035C107.2 144.135 107.6 145.436 108.5 146.036C109.3 146.636 110.4 147.336 111.5 148.136L110.3 147.636C109 147.136 107.5 147.536 106.7 148.637C105.6 150.237 106.3 152.338 108 153.038L124.9 160.139C127.8 161.34 130.6 162.14 134 161.34L149 157.839L182.6 251.962L211 233.558Z" fill="#FEE0BD"/>
<path d="M193.199 199.749L201.299 214.953" stroke="#DB5749" stroke-width="1.5" stroke-miterlimit="10"/>
<path d="M242.1 135.933L226 137.134C226 137.134 202.6 168.842 250.1 250.262L312.6 247.161L317.3 159.439L309.6 134.533H281.6L242.1 135.933Z" fill="#FEFEF4"/>
<path d="M223.801 190.047C223.801 190.047 219.101 180.244 222.101 158.539" stroke="#CFD7E4" stroke-width="1.5516" stroke-miterlimit="10"/>
<path d="M369.001 226.356L343.001 172.743L307.701 192.747L334.201 243.86C339.701 254.463 353.201 257.663 362.901 250.762C370.601 245.16 373.201 234.858 369.001 226.356Z" fill="#FEE0BD"/>
<path d="M329 144.136C323.9 133.733 311.1 129.532 300.9 134.933C290.9 140.235 287 152.538 292.2 162.64L307.7 192.747L343 172.743L329 144.136Z" fill="#FEFEF4"/>
<path d="M307.7 192.747L294.9 167.841" stroke="#CFD7E4" stroke-width="1.5516" stroke-miterlimit="10"/>
<path d="M423.201 134.533C422.401 133.433 420.901 133.033 419.601 133.533L412.101 136.434L419.201 130.432C420.401 129.432 420.701 127.731 419.801 126.431C418.801 125.031 416.801 124.731 415.501 125.831L408.901 131.132L414.501 123.831C415.401 122.63 415.401 120.83 414.201 119.83C412.901 118.629 410.901 118.829 409.901 120.13L398.801 131.632L387.501 128.632L395.801 127.431C397.501 127.231 398.701 125.731 398.401 123.931C398.201 122.43 396.801 121.33 395.301 121.33H387.001C382.101 121.33 377.401 123.03 373.801 126.231C373.701 126.231 373.701 126.331 373.601 126.331C368.501 130.332 370.401 138.534 370.401 138.534L339.301 226.656L370.101 240.359L387.901 145.736H399.301C400.001 145.836 400.701 145.836 401.401 145.736H401.501C402.701 145.636 403.901 145.336 405.101 144.836L422.001 138.834C423.701 138.234 424.301 136.134 423.201 134.533Z" fill="#FEE0BD"/>
<path d="M351.501 190.047L344.701 213.553" stroke="#DB5749" stroke-width="1.5" stroke-miterlimit="10"/>
<path d="M240.9 63.3156C239 64.6159 225.9 68.0168 225.7 70.4173C225.7 70.4173 230 87.2215 225.6 90.3223C213.7 98.8243 209.9 115.328 209.9 115.328C209.9 115.328 241.2 138.834 324.5 114.128C324.5 114.128 325.5 104.126 310.3 96.9239C306 94.8234 302.1 91.7226 299.7 87.5216C297.8 84.2207 297.5 82.8204 297 79.9197C295.7 71.6176 273 41.2101 240.9 63.3156Z" fill="black"/>
<path d="M242.101 88.4218C242.501 93.9231 238.301 98.7243 232.801 99.1244C227.301 99.5245 222.501 95.3235 222.101 89.8221C221.701 84.3208 225.901 79.5196 231.401 79.1195C237.001 78.7194 241.701 82.9204 242.101 88.4218Z" fill="#DB5749"/>
<path d="M246.6 112.928L248 134.633C248.5 142.235 251.6 147.436 259.1 146.936C265.5 146.536 273.1 141.335 273.5 134.933L269.7 100.825L246.6 112.928Z" fill="#FEE0BD"/>
<path d="M242.1 135.933L281.5 134.533C281.5 134.533 280.5 153.938 257.1 152.137C240.9 150.937 242.1 135.933 242.1 135.933Z" fill="#FEE0BD"/>
<path d="M247.8 130.832L273 106.126L246.4 110.627L247.8 130.832Z" fill="#DB5749"/>
<path d="M253.2 116.429C240.4 116.429 229.8 106.326 229.4 95.8236L228.6 71.1175C228.1 58.0143 238.1 46.8115 251.3 45.9113C264.7 45.0111 278.7 54.9135 279.7 68.4168L280.1 88.3217C280.4 103.626 268.6 115.328 253.2 116.429Z" fill="#FEE0BD"/>
<path d="M242.902 87.1215L242.102 93.323L245.302 93.423" stroke="black" stroke-width="1.2385" stroke-miterlimit="10" stroke-linecap="round" stroke-linejoin="round"/>
<path d="M255.6 72.1178C255.6 72.1178 248.5 71.5176 248.4 74.4183C248.4 74.4183 248.4 76.4188 254.6 76.7189C260.8 77.119 262.4 76.6189 263 74.8184C263.5 73.018 258.9 72.1178 255.6 72.1178Z" fill="black"/>
<path d="M235.001 76.3188C235.001 76.3188 240.401 75.9187 240.901 78.5193C240.901 78.5193 241.201 80.3198 236.501 80.5198C231.801 80.8199 230.301 80.2197 230.301 78.7194C230.101 77.0189 232.501 76.3188 235.001 76.3188Z" fill="black"/>
<path d="M238.102 84.8209C238.102 86.1212 237.202 87.1215 235.902 87.1215C234.602 87.1215 233.602 86.2212 233.602 84.9209C233.602 83.6206 234.502 82.6203 235.802 82.6203C237.002 82.5203 238.102 83.5206 238.102 84.8209Z" fill="black"/>
<path d="M257.201 84.1207C257.201 85.421 256.301 86.4213 255.001 86.4213C253.701 86.4213 252.701 85.521 252.701 84.2207C252.701 82.9204 253.601 81.9202 254.901 81.9202C256.101 81.9202 257.101 82.9204 257.201 84.1207Z" fill="black"/>
<path d="M250.502 97.624C250.502 97.624 247.102 96.124 243.102 99.624" stroke="black" stroke-width="1.2385" stroke-miterlimit="10" stroke-linecap="round" stroke-linejoin="round"/>
<path d="M259.3 41.6102C256.1 41.4102 252.9 41.8103 249.8 42.6105C242.1 44.611 228.3 50.3124 225.9 65.116C225.1 69.017 225.7 70.3173 225.7 70.3173C225.7 70.3173 251.5 71.3176 266.7 64.1158C268.9 73.4181 270.9 79.1195 280.1 88.2217L288.2 76.0187L297.4 84.2207C297.4 84.5208 297.4 43.7108 259.3 41.6102Z" fill="black"/>
<path d="M293.501 88.5218C293.901 94.0231 289.701 98.8243 284.201 99.2244C278.701 99.6245 273.901 95.4235 273.501 89.9221C273.101 84.4208 277.301 79.6196 282.801 79.2195C288.301 78.8194 293.101 83.0204 293.501 88.5218Z" fill="#FEE0BD"/>
<path d="M279.701 92.0227C279.701 92.0227 279.201 84.8209 286.201 85.421" stroke="black" stroke-width="1.2385" stroke-miterlimit="10" stroke-linecap="round" stroke-linejoin="round"/>
</g>
<defs>
<filter id="filter0_b_122_15624" x="-22" y="199.855" width="245.4" height="131.722" filterUnits="userSpaceOnUse" color-interpolation-filters="sRGB">
<feFlood flood-opacity="0" result="BackgroundImageFix"/>
<feGaussianBlur in="BackgroundImage" stdDeviation="11"/>
<feComposite in2="SourceAlpha" operator="in" result="effect1_backgroundBlur_122_15624"/>
<feBlend mode="normal" in="SourceGraphic" in2="effect1_backgroundBlur_122_15624" result="shape"/>
</filter>
<filter id="filter1_b_122_15624" x="400.199" y="-1.19489" width="149.4" height="133.822" filterUnits="userSpaceOnUse" color-interpolation-filters="sRGB">
<feFlood flood-opacity="0" result="BackgroundImageFix"/>
<feGaussianBlur in="BackgroundImage" stdDeviation="11"/>
<feComposite in2="SourceAlpha" operator="in" result="effect1_backgroundBlur_122_15624"/>
<feBlend mode="normal" in="SourceGraphic" in2="effect1_backgroundBlur_122_15624" result="shape"/>
</filter>
<filter id="filter2_b_122_15624" x="3.59961" y="-7.29639" width="118.801" height="111.717" filterUnits="userSpaceOnUse" color-interpolation-filters="sRGB">
<feFlood flood-opacity="0" result="BackgroundImageFix"/>
<feGaussianBlur in="BackgroundImage" stdDeviation="11"/>
<feComposite in2="SourceAlpha" operator="in" result="effect1_backgroundBlur_122_15624"/>
<feBlend mode="normal" in="SourceGraphic" in2="effect1_backgroundBlur_122_15624" result="shape"/>
</filter>
<filter id="filter3_b_122_15624" x="380.4" y="146.942" width="238.699" height="195.937" filterUnits="userSpaceOnUse" color-interpolation-filters="sRGB">
<feFlood flood-opacity="0" result="BackgroundImageFix"/>
<feGaussianBlur in="BackgroundImage" stdDeviation="11"/>
<feComposite in2="SourceAlpha" operator="in" result="effect1_backgroundBlur_122_15624"/>
<feBlend mode="normal" in="SourceGraphic" in2="effect1_backgroundBlur_122_15624" result="shape"/>
</filter>
<linearGradient id="paint0_linear_122_15624" x1="253.199" y1="0.100006" x2="312.273" y2="42.853" gradientUnits="userSpaceOnUse">
<stop stop-color="#136FF0"/>
<stop offset="1" stop-color="#3086FF"/>
</linearGradient>
<linearGradient id="paint1_linear_122_15624" x1="38.4004" y1="160.74" x2="66.0329" y2="162.973" gradientUnits="userSpaceOnUse">
<stop stop-color="#136FF0"/>
<stop offset="1" stop-color="#3086FF"/>
</linearGradient>
<linearGradient id="paint2_linear_122_15624" x1="558.6" y1="103.626" x2="573.595" y2="104.83" gradientUnits="userSpaceOnUse">
<stop stop-color="#136FF0"/>
<stop offset="1" stop-color="#3086FF"/>
</linearGradient>
<linearGradient id="paint3_linear_122_15624" x1="145.6" y1="392.197" x2="196.603" y2="410.938" gradientUnits="userSpaceOnUse">
<stop stop-color="#136FF0"/>
<stop offset="1" stop-color="#3086FF"/>
</linearGradient>
<linearGradient id="paint4_linear_122_15624" x1="0" y1="221.855" x2="210.364" y2="259.539" gradientUnits="userSpaceOnUse">
<stop stop-color="#136FF0"/>
<stop offset="1" stop-color="#3086FF"/>
</linearGradient>
<linearGradient id="paint5_linear_122_15624" x1="422.199" y1="20.8051" x2="534.878" y2="31.1217" gradientUnits="userSpaceOnUse">
<stop stop-color="#136FF0"/>
<stop offset="1" stop-color="#3086FF"/>
</linearGradient>
<linearGradient id="paint6_linear_122_15624" x1="25.5996" y1="14.7036" x2="105.641" y2="21.6021" gradientUnits="userSpaceOnUse">
<stop stop-color="#136FF0"/>
<stop offset="1" stop-color="#3086FF"/>
</linearGradient>
<linearGradient id="paint7_linear_122_15624" x1="402.4" y1="168.942" x2="610.111" y2="189.699" gradientUnits="userSpaceOnUse">
<stop stop-color="#136FF0"/>
<stop offset="1" stop-color="#3086FF"/>
</linearGradient>
<linearGradient id="paint8_linear_122_15624" x1="230.6" y1="247.261" x2="352.882" y2="256.709" gradientUnits="userSpaceOnUse">
<stop stop-color="#136FF0"/>
<stop offset="1" stop-color="#3086FF"/>
</linearGradient>
<clipPath id="clip0_122_15624">
<rect width="597.1" height="405" fill="white"/>
</clipPath>
</defs>
</svg>
