<svg width="22" height="23" viewBox="0 0 22 23" fill="none" xmlns="http://www.w3.org/2000/svg">
<circle cx="11" cy="11.5" r="11" fill="#136FF0"/>
<path d="M6.6247 9.21913C6.19343 8.87412 5.56414 8.94404 5.21913 9.3753C4.87412 9.80657 4.94404 10.4359 5.3753 10.7809L6.6247 9.21913ZM16.6247 10.7809C17.056 10.4359 17.1259 9.80657 16.7809 9.3753C16.4359 8.94404 15.8066 8.87412 15.3753 9.21913L16.6247 10.7809ZM11 14L10.3753 14.7809L11 15.2806L11.6247 14.7809L11 14ZM5.3753 10.7809L10.3753 14.7809L11.6247 13.2191L6.6247 9.21913L5.3753 10.7809ZM11.6247 14.7809L16.6247 10.7809L15.3753 9.21913L10.3753 13.2191L11.6247 14.7809Z" fill="white"/>
</svg>
