<svg width="32" height="32" viewBox="0 0 32 32" fill="none" xmlns="http://www.w3.org/2000/svg">
<path d="M9.33366 29.3333C8.50568 28.7124 7.83366 27.9071 7.37081 26.9814C6.90796 26.0557 6.66699 25.035 6.66699 24" stroke="#B099FD" stroke-width="2" stroke-linecap="round" stroke-linejoin="round"/>
<path d="M9.33301 22.5734C10.613 23.1467 11.9463 23.56 13.3197 23.7867" stroke="#B099FD" stroke-width="2" stroke-linecap="round" stroke-linejoin="round"/>
<path d="M4.45366 18.6667C3.30778 17.1232 2.68211 15.2556 2.66699 13.3333C2.66699 7.43999 8.64033 2.66666 16.0003 2.66666C23.3603 2.66666 29.3337 7.43999 29.3337 13.3333C29.3137 14.2385 29.1655 15.1363 28.8937 16" stroke="#B099FD" stroke-width="2" stroke-linecap="round" stroke-linejoin="round"/>
<path d="M6.66667 24C7.37391 24 8.05219 23.719 8.55228 23.2189C9.05238 22.7188 9.33333 22.0406 9.33333 21.3333C9.33333 20.6261 9.05238 19.9478 8.55228 19.4477C8.05219 18.9476 7.37391 18.6667 6.66667 18.6667C5.95942 18.6667 5.28115 18.9476 4.78105 19.4477C4.28095 19.9478 4 20.6261 4 21.3333C4 22.0406 4.28095 22.7188 4.78105 23.2189C5.28115 23.719 5.95942 24 6.66667 24V24Z" stroke="#B099FD" stroke-width="2" stroke-linecap="round" stroke-linejoin="round"/>
<path d="M19.107 29.3333H18.987C18.8965 29.3034 18.8172 29.2465 18.76 29.1702C18.7028 29.0939 18.6704 29.002 18.667 28.9067V15.5733C18.6669 15.4554 18.7129 15.342 18.795 15.2574C18.8772 15.1728 18.9891 15.1235 19.107 15.12C19.2137 15.12 19.307 15.16 19.387 15.2267L29.1737 23.2267C29.2465 23.2835 29.2995 23.3619 29.3253 23.4506C29.3511 23.5393 29.3483 23.6339 29.3173 23.721C29.2864 23.808 29.2288 23.8831 29.1527 23.9356C29.0767 23.988 28.986 24.0153 28.8937 24.0133H22.907L19.4803 29.1467C19.4369 29.2046 19.3805 29.2517 19.3157 29.2841C19.2509 29.3165 19.1794 29.3333 19.107 29.3333V29.3333V29.3333Z" stroke="#B099FD" stroke-width="2" stroke-linecap="round" stroke-linejoin="round"/>
</svg>
