<svg width="48" height="65" viewBox="0 0 48 65" fill="none" xmlns="http://www.w3.org/2000/svg">
<path d="M16.2876 46.4808C16.2876 47.2017 16.2142 47.6651 16.0696 47.8723C15.9227 48.0795 15.592 48.181 15.0772 48.181C14.2136 48.181 13.7696 47.8927 13.7417 47.3196C13.728 47.0838 13.7218 46.8807 13.7218 46.7143C13.7218 46.5397 13.7081 46.2754 13.6803 45.924H12.0082L11.9883 46.625C11.9883 47.9208 12.1784 48.7618 12.561 49.1459C12.9413 49.5277 13.7735 49.7208 15.055 49.7208C16.2597 49.7208 17.06 49.5218 17.4523 49.1237C17.8446 48.7256 18.0427 47.9171 18.0427 46.7026V40.16H16.2875L16.2876 46.4808Z" fill="white"/>
<path d="M23.8557 40.1596H19.6719V49.6375H21.4252L21.4248 46.5761H23.4913L23.8972 46.5702C25.1611 46.5702 26.0013 46.3612 26.4152 45.9445C26.8291 45.5283 27.0374 44.6849 27.0374 43.4176C27.0374 42.1399 26.8194 41.2767 26.3838 40.8319C25.9478 40.3871 25.1058 40.1595 23.8557 40.1595L23.8557 40.1596ZM24.9356 44.7829C24.7216 44.9697 24.2165 45.0654 23.4219 45.0654H21.4231V41.6771H23.5984C24.3471 41.6771 24.8109 41.7728 24.9891 41.9655C25.1673 42.1587 25.2567 42.6542 25.2567 43.4545C25.2562 44.1509 25.1492 44.5939 24.9356 44.7829H24.9356Z" fill="white"/>
<path d="M31.7923 44.5981V45.9244H34.1144L34.1065 46.3125C34.1065 47.1209 33.9795 47.6346 33.72 47.8523C33.4604 48.0695 32.8523 48.1792 31.8931 48.1792C30.9105 48.1792 30.2825 48.0513 30.011 47.7951C29.7395 47.5372 29.6051 46.94 29.6051 45.9996L29.5914 44.785L29.5993 43.8324C29.5993 42.8734 29.7342 42.2663 30.0075 42.0083C30.283 41.7485 30.9269 41.6202 31.9431 41.6202C32.8784 41.6202 33.4626 41.6932 33.6943 41.8437C33.9261 41.9942 34.0587 42.3801 34.0888 42.9994H35.8639C35.8639 41.7685 35.6242 40.9741 35.1449 40.6145C34.6695 40.255 33.6055 40.0741 31.9632 40.0741C30.709 40.0741 29.8197 40.1919 29.2944 40.4236C28.7713 40.6531 28.3812 41.1019 28.1234 41.7684C27.9155 42.3171 27.8125 43.6251 27.8125 45.7008C27.8125 47.324 28.0721 48.4004 28.5912 48.9286C29.1122 49.4569 30.1704 49.7207 31.769 49.7207C33.5105 49.7207 34.6358 49.5217 35.1387 49.1277C35.642 48.7314 35.8936 47.8482 35.8936 46.4789L35.8657 44.5959H31.7925L31.7923 44.5981Z" fill="white"/>
<path d="M47.9346 13.5873L34.6848 0H0.0625V65H47.9368V13.5873H47.9346ZM35.5225 6.60586L41.4995 12.7341H35.5225V6.60586ZM4.02476 60.9377V4.06273H31.5625V16.7992H43.9746V60.9377H4.02476Z" fill="white"/>
</svg>
