<svg width="48" height="65" viewBox="0 0 48 65" fill="none" xmlns="http://www.w3.org/2000/svg">
<path d="M11.5291 40.1596H6.98438V49.6375H11.5825C13.0387 49.6375 13.9775 49.3002 14.3919 48.6278C14.808 47.9535 15.0141 46.4342 15.0141 44.0696C15.0141 42.6214 14.7567 41.6076 14.2376 41.0287C13.7241 40.4501 12.8185 40.1595 11.5289 40.1595L11.5291 40.1596ZM12.8663 47.531C12.6204 47.925 12.0778 48.1241 11.2376 48.1241H8.73955V41.6749H11.3447C12.1628 41.6749 12.6819 41.864 12.9017 42.2417C13.1237 42.6234 13.2347 43.5113 13.2347 44.9068C13.2347 46.2616 13.1118 47.1348 12.8664 47.531L12.8663 47.531Z" fill="white"/>
<path d="M20.1348 40.076C18.2488 40.076 17.0623 40.3666 16.5807 40.9452C16.0974 41.5242 15.8555 42.9419 15.8555 45.2027C15.8555 47.0997 16.1013 48.3266 16.5944 48.8834C17.0857 49.4402 18.1714 49.7204 19.8514 49.7204C21.7158 49.7204 22.8903 49.4379 23.3759 48.8734C23.8614 48.3089 24.1029 46.9419 24.1029 44.7683C24.1029 42.7837 23.861 41.5061 23.3799 40.9334C22.8947 40.3649 21.8149 40.0761 20.1349 40.0761L20.1348 40.076ZM21.997 47.7118C21.7812 48.0223 21.1294 48.1788 20.0397 48.1788C18.9024 48.1788 18.2169 48.0405 17.9853 47.7625C17.7535 47.4841 17.6368 46.6657 17.6368 45.3046C17.6368 43.4684 17.7359 42.3919 17.934 42.0832C18.1321 41.7744 18.8197 41.618 19.9982 41.618C21.1356 41.618 21.8069 41.7603 22.0151 42.0505C22.2212 42.3411 22.322 43.2774 22.322 44.8679C22.322 46.4521 22.215 47.3989 21.997 47.7117L21.997 47.7118Z" fill="white"/>
<path d="M31.0108 46.6804C31.0108 47.3102 30.8799 47.7183 30.6203 47.9033C30.3607 48.0882 29.796 48.1816 28.9266 48.1816C27.8507 48.1816 27.2187 48.0152 27.0206 47.682C26.8243 47.3487 26.7274 46.2765 26.7274 44.4605C26.7274 43.1139 26.8362 42.3032 27.0564 42.0312C27.2745 41.7569 27.9263 41.6231 29.016 41.6231C29.8283 41.6231 30.3475 41.7083 30.5752 41.8829C30.8029 42.0557 30.9161 42.4515 30.9161 43.0731V43.317H32.6775L32.6735 43.1017C32.6735 41.897 32.4537 41.0949 32.008 40.6887C31.5662 40.2842 30.6845 40.0793 29.3692 40.0793C27.5584 40.0793 26.3679 40.3273 25.7992 40.8188C25.2306 41.3125 24.9453 42.3404 24.9453 43.9065C24.9453 46.5635 25.1554 48.1966 25.5755 48.8079C25.9956 49.4191 27.1166 49.7237 28.9376 49.7237C30.5464 49.7237 31.5843 49.5306 32.0522 49.1447C32.5236 48.7589 32.7553 47.9056 32.7553 46.5853V46.2602H30.9939L31.0108 46.6804Z" fill="white"/>
<path d="M41.6473 40.1596H39.5751L38.3426 42.2783C38.1268 42.6501 37.9464 42.977 37.8018 43.2636L37.6333 43.5905C37.5957 43.6635 37.54 43.7755 37.463 43.9237H37.4352L37.2649 43.5905L37.0964 43.2572C36.924 42.9321 36.7418 42.603 36.5498 42.2702L35.3157 40.1595H33.2236L36.041 44.7503L33.0078 49.6374H35.1198L36.4531 47.3605C36.7502 46.8567 37.0178 46.3775 37.2535 45.9246L37.4498 45.5469H37.4777L37.674 45.9164L37.8642 46.2923C38.0503 46.6536 38.2427 47.0114 38.4488 47.3605L39.7764 49.6375H41.8318L38.872 44.7503L41.6473 40.1596Z" fill="white"/>
<path d="M0.0664062 0V65H47.9408V13.5873L34.6887 0H0.0664062ZM35.5264 6.60562L41.5034 12.7338H35.5264V6.60562ZM4.02867 60.9375V4.0625H31.5664V16.799H43.9785V60.9375H4.02867Z" fill="white"/>
</svg>
