<svg width="32" height="32" viewBox="0 0 32 32" fill="none" xmlns="http://www.w3.org/2000/svg">
<path d="M21.333 28V25.3333C21.333 23.9188 20.7711 22.5623 19.7709 21.5621C18.7707 20.5619 17.4142 20 15.9997 20H6.66634C5.25185 20 3.8953 20.5619 2.89511 21.5621C1.89491 22.5623 1.33301 23.9188 1.33301 25.3333V28" stroke="#136FF0" stroke-width="2" stroke-linecap="round" stroke-linejoin="round"/>
<path d="M11.3333 14.6667C14.2789 14.6667 16.6667 12.2789 16.6667 9.33333C16.6667 6.38781 14.2789 4 11.3333 4C8.38781 4 6 6.38781 6 9.33333C6 12.2789 8.38781 14.6667 11.3333 14.6667Z" stroke="#136FF0" stroke-width="2" stroke-linecap="round" stroke-linejoin="round"/>
<path d="M20 14L29.4281 14" stroke="#136FF0" stroke-width="2" stroke-linecap="round" stroke-linejoin="round"/>
<path d="M24.714 9.28596L24.714 18.714" stroke="#136FF0" stroke-width="2" stroke-linecap="round" stroke-linejoin="round"/>
</svg>
