<svg width="23" height="24" viewBox="0 0 23 24" fill="none" xmlns="http://www.w3.org/2000/svg">
<path d="M17.5953 19.3094L20.9287 13.5359C21.9895 11.6984 22.277 9.51475 21.7279 7.46532C21.1787 5.41588 19.8379 3.66853 18.0005 2.60767V2.60767C16.163 1.5468 13.9794 1.25932 11.9299 1.80846C9.88048 2.35761 8.13313 3.6984 7.07227 5.53587L1.73893 14.7735C1.03169 15.9985 0.840034 17.4542 1.20613 18.8205C1.57223 20.1868 2.46609 21.3517 3.69107 22.0589C4.91605 22.7662 6.37181 22.9578 7.7381 22.5917C9.10439 22.2256 10.2693 21.3318 10.9765 20.1068L16.3099 10.8692C16.6635 10.2567 16.7593 9.52883 16.5763 8.84569C16.3932 8.16254 15.9463 7.58009 15.3338 7.22647V7.22647C14.7213 6.87285 13.9934 6.77702 13.3103 6.96007C12.6271 7.14312 12.0447 7.59005 11.6911 8.20254L6.35773 17.4401" stroke="#7D8185" stroke-width="2" stroke-linecap="round" stroke-linejoin="round"/>
</svg>
