<svg width="246" height="83" viewBox="0 0 246 83" fill="none" xmlns="http://www.w3.org/2000/svg">
<path d="M19.4643 72.2839C20.6415 71.9866 24.4674 77.0407 24.4674 77.0407C24.4674 77.0407 21.8865 78.529 20.0529 78.8244C18.2334 79.1176 15.6383 79.419 15.344 78.5271C15.1113 77.8219 16.5212 77.0407 16.5212 77.0407C16.5212 77.0407 10.0466 76.7434 9.75227 74.365C9.64947 73.5342 10.9295 72.5812 10.9295 72.5812C10.9295 72.5812 4.74911 70.2029 4.45481 68.4191C4.30247 67.4958 6.51493 67.2299 6.51493 67.2299C6.51493 67.2299 1.51177 64.2569 1.21747 62.7705C1.06626 62.0067 2.68899 61.8786 2.68899 61.8786C2.68899 61.8786 0.506022 56.288 2.68899 56.2299C4.64216 56.178 5.04341 60.6894 5.04341 60.6894C5.04341 60.6894 5.92632 58.9056 6.80923 59.5002C8.19445 60.4331 8.28075 65.7434 8.28075 65.7434C8.28075 65.7434 9.65128 63.6764 10.3409 64.2569C12.1067 65.7434 12.401 70.7974 12.401 70.7974C12.401 70.7974 13.7802 69.0137 14.7554 69.0137C16.5212 69.0137 18.8757 74.365 18.8757 74.365C18.8757 74.365 18.6525 72.4889 19.4643 72.2839Z" fill="#EFED02" stroke="white" stroke-width="0.311457"/>
<path d="M63.1483 72.2839C61.9524 71.9866 58.0657 77.0407 58.0657 77.0407C58.0657 77.0407 60.6876 78.529 62.5503 78.8244C64.3987 79.1176 67.035 79.419 67.3339 78.5271C67.5703 77.8219 66.138 77.0407 66.138 77.0407C66.138 77.0407 72.7155 76.7434 73.0144 74.365C73.1189 73.5342 71.8185 72.5812 71.8185 72.5812C71.8185 72.5812 78.097 70.2029 78.396 68.4191C78.5507 67.4958 76.3032 67.2299 76.3032 67.2299C76.3032 67.2299 81.3857 64.2569 81.6847 62.7705C81.8383 62.0067 80.1898 61.8786 80.1898 61.8786C80.1898 61.8786 82.4075 56.288 80.1898 56.2299C78.2057 56.178 77.798 60.6894 77.798 60.6894C77.798 60.6894 76.9011 58.9056 76.0042 59.5002C74.597 60.4331 74.5093 65.7434 74.5093 65.7434C74.5093 65.7434 73.117 63.6764 72.4165 64.2569C70.6226 65.7434 70.3237 70.7974 70.3237 70.7974C70.3237 70.7974 68.9226 69.0137 67.9319 69.0137C66.138 69.0137 63.7462 74.365 63.7462 74.365C63.7462 74.365 63.9729 72.4889 63.1483 72.2839Z" fill="#EFED02" stroke="white" stroke-width="0.311457"/>
<path d="M35.8944 21.9032H41.0381H46.2682C46.2682 21.9032 40.8848 20.2794 41.2376 17.7568C41.4868 15.9749 44.4927 14.499 44.4927 14.499C44.4927 14.499 41.9546 13.3313 41.5335 11.8334C40.9074 9.60667 42.8422 7.95191 45.0845 7.39087C47.4518 6.79852 50.7377 7.20226 53.962 8.57556C57.7583 10.1925 60.0777 13.6741 60.1763 14.7951C60.2917 16.1088 59.8803 17.7568 59.8803 17.7568C59.8803 17.7568 61.506 15.2977 63.1354 15.0913C65.3378 14.8124 67.2474 17.5112 68.166 19.5338C69.6456 22.7917 69.0538 26.0496 69.0538 26.0496C69.0538 26.0496 70.2374 25.331 72.3089 26.0496C74.3803 26.7682 76.1558 30.8871 76.1558 34.0462C76.1558 40.2657 74.0844 41.1543 73.1966 41.1543C71.7167 41.1543 70.2374 38.7849 70.2374 38.7849V44.4121C72.3089 41.4504 73.9828 41.6309 74.6762 41.7466C76.4517 42.0428 75.8924 48.8199 74.0844 52.7049C73.0401 54.9487 71.717 57.7398 69.9415 57.7398C68.166 57.7398 66.9823 56.2589 66.9823 56.2589C66.9823 56.2589 71.2324 62.225 66.3905 66.0325C62.2477 69.2904 58.9926 66.0325 58.9926 66.0325C58.9926 66.0325 59.3903 68.544 58.6967 69.8828C57.7661 71.6789 54.9183 72.8445 51.2987 72.8445C48.0437 72.8445 42.4212 72.5483 43.6049 69.2904C44.7886 66.0325 49.8192 62.1823 49.8192 62.1823L40.925 65.144L32.3434 62.1823C32.3434 62.1823 37.374 66.0325 38.5577 69.2904C39.7414 72.5483 34.1189 72.8445 30.8639 72.8445C27.2443 72.8445 24.3965 71.6789 23.4659 69.8828C22.7724 68.544 23.17 66.0325 23.17 66.0325C23.17 66.0325 19.9149 69.2904 15.7721 66.0325C10.9302 62.225 15.1803 56.2589 15.1803 56.2589C15.1803 56.2589 13.9966 57.7398 12.2211 57.7398C10.4456 57.7398 9.12249 54.9487 8.07825 52.7049C6.27025 48.8199 5.71092 42.0428 7.48642 41.7466C8.1798 41.6309 9.85376 41.4504 11.9252 44.4121V38.7849C11.9252 38.7849 10.4459 41.1543 8.96601 41.1543C8.07825 41.1543 6.00684 40.2657 6.00684 34.0462C6.00684 30.8871 7.78234 26.7682 9.85376 26.0496C11.9252 25.331 13.1088 26.0496 13.1088 26.0496C13.1088 26.0496 12.517 22.7917 13.9966 19.5338C14.9152 17.5112 16.8249 14.8124 19.0272 15.0913C20.6566 15.2977 22.2823 17.7568 22.2823 17.7568C22.2823 17.7568 21.8709 16.1088 21.9864 14.7951C22.0849 13.6741 24.4043 10.1925 28.2006 8.57556C31.4249 7.20226 34.7108 6.79852 37.0781 7.39087C39.3204 7.95191 41.2552 9.60667 40.6291 11.8334C40.208 13.3313 37.67 14.499 37.67 14.499C37.67 14.499 40.6758 15.9749 40.925 17.7568C41.2778 20.2794 35.8944 21.9032 35.8944 21.9032Z" fill="#2389D4"/>
<path d="M35.8944 21.9032L35.8495 21.7541L35.8944 22.0589V21.9032ZM40.925 17.7568L40.7708 17.7784L40.925 17.7568ZM37.67 14.499L37.6049 14.3575L37.3073 14.4944L37.6013 14.6387L37.67 14.499ZM40.6291 11.8334L40.4792 11.7913V11.7913L40.6291 11.8334ZM37.0781 7.39087L37.0403 7.54194V7.54194L37.0781 7.39087ZM21.9864 14.7951L22.1415 14.8088L21.9864 14.7951ZM22.2823 17.7568L22.1524 17.8427L22.4334 17.7191L22.2823 17.7568ZM19.0272 15.0913L19.0076 15.2458L19.0272 15.0913ZM13.9966 19.5338L13.8548 19.4694L13.9966 19.5338ZM13.1088 26.0496L13.028 26.1827L13.3239 26.3623L13.2621 26.0218L13.1088 26.0496ZM9.85376 26.0496L9.90479 26.1967L9.85376 26.0496ZM11.9252 38.7849H12.0809V38.2414L11.7931 38.7024L11.9252 38.7849ZM11.9252 44.4121L11.7976 44.5014L12.0809 44.9065V44.4121H11.9252ZM7.48642 41.7466L7.51204 41.9002H7.51204L7.48642 41.7466ZM8.07825 52.7049L8.21944 52.6392L8.07825 52.7049ZM15.1803 56.2589L15.3071 56.3493L15.0586 56.1617L15.1803 56.2589ZM15.7721 66.0325L15.8684 65.9101L15.7721 66.0325ZM23.17 66.0325L23.3238 66.0569L23.3988 65.5832L23.0599 65.9225L23.17 66.0325ZM23.4659 69.8828L23.3277 69.9544L23.4659 69.8828ZM38.5577 69.2904L38.4113 69.3436L38.5577 69.2904ZM32.3434 62.1823L32.3943 62.0351L32.2488 62.306L32.3434 62.1823ZM40.925 65.144L40.8742 65.2912L40.9241 65.3085L40.9742 65.2918L40.925 65.144ZM28.2006 8.57556L28.1396 8.43228L28.2006 8.57556ZM6.00684 34.0462H5.85111H6.00684ZM46.2682 21.9032V22.0589L46.3131 21.7541L46.2682 21.9032ZM41.2376 17.7568L41.0833 17.7353L41.2376 17.7568ZM44.4927 14.499L44.5613 14.6387L44.8553 14.4944L44.5577 14.3575L44.4927 14.499ZM41.5335 11.8334L41.3836 11.8756L41.5335 11.8334ZM45.0845 7.39087L45.0467 7.2398V7.2398L45.0845 7.39087ZM60.1763 14.7951L60.3314 14.7815V14.7815L60.1763 14.7951ZM59.8803 17.7568L59.7292 17.7191L60.0103 17.8427L59.8803 17.7568ZM63.1354 15.0913L63.155 15.2458L63.1354 15.0913ZM68.166 19.5338L68.3078 19.4694L68.166 19.5338ZM69.0538 26.0496L68.9005 26.0218L68.8387 26.3623L69.1346 26.1827L69.0538 26.0496ZM72.3089 26.0496L72.2578 26.1967L72.3089 26.0496ZM70.2374 38.7849L70.3695 38.7024L70.0817 38.2414V38.7849H70.2374ZM70.2374 44.4121H70.0817V44.9065L70.3651 44.5014L70.2374 44.4121ZM74.6762 41.7466L74.6506 41.9002L74.6762 41.7466ZM74.0844 52.7049L74.2255 52.7706L74.0844 52.7049ZM66.9823 56.2589L67.104 56.1617L66.8555 56.3493L66.9823 56.2589ZM66.3905 66.0325L66.2942 65.9101L66.3905 66.0325ZM58.9926 66.0325L59.1027 65.9225L58.7638 65.5832L58.8388 66.0569L58.9926 66.0325ZM58.6967 69.8828L58.8349 69.9544L58.6967 69.8828ZM43.6049 69.2904L43.7513 69.3436L43.6049 69.2904ZM49.8192 62.1823L49.9138 62.306L49.77 62.0346L49.8192 62.1823ZM53.962 8.57556L54.023 8.43228L53.962 8.57556ZM76.1558 34.0462H76H76.1558ZM41.0381 21.7475H35.8944V22.0589H41.0381V21.7475ZM35.8944 21.9032C35.9394 22.0523 35.9395 22.0523 35.9395 22.0523C35.9396 22.0522 35.9397 22.0522 35.9398 22.0522C35.94 22.0521 35.9403 22.052 35.9407 22.0519C35.9414 22.0517 35.9425 22.0514 35.9438 22.051C35.9466 22.0501 35.9507 22.0489 35.9559 22.0472C35.9665 22.044 35.9819 22.0391 36.002 22.0328C36.0421 22.02 36.1006 22.0011 36.1748 21.9761C36.323 21.9262 36.534 21.8522 36.7859 21.7555C37.2892 21.5622 37.9582 21.2775 38.6175 20.9122C39.2752 20.5478 39.932 20.0984 40.4037 19.5729C40.8759 19.0469 41.1762 18.4282 41.0793 17.7353L40.7708 17.7784C40.8503 18.3467 40.6099 18.877 40.172 19.3649C39.7335 19.8533 39.1107 20.2829 38.4666 20.6398C37.8241 20.9957 37.1693 21.2746 36.6743 21.4647C36.427 21.5596 36.2202 21.6322 36.0754 21.6809C36.003 21.7053 35.9462 21.7237 35.9076 21.7359C35.8884 21.7421 35.8736 21.7467 35.8638 21.7497C35.8589 21.7512 35.8553 21.7523 35.8528 21.7531C35.8516 21.7535 35.8508 21.7537 35.8502 21.7539C35.8499 21.754 35.8497 21.754 35.8496 21.7541C35.8495 21.7541 35.8495 21.7541 35.8495 21.7541C35.8495 21.7541 35.8495 21.7541 35.8944 21.9032ZM41.0793 17.7353C41.0116 17.2511 40.7587 16.7987 40.432 16.3977C40.1046 15.9957 39.6951 15.6357 39.298 15.3355C38.9003 15.0348 38.5112 14.7912 38.2218 14.6228C38.077 14.5385 37.9568 14.4729 37.8725 14.4283C37.8304 14.4059 37.7972 14.3888 37.7745 14.3772C37.7631 14.3714 37.7543 14.367 37.7482 14.3639C37.7452 14.3624 37.7429 14.3613 37.7413 14.3605C37.7405 14.3601 37.7398 14.3598 37.7394 14.3596C37.7392 14.3594 37.739 14.3594 37.7388 14.3593C37.7388 14.3593 37.7387 14.3592 37.7387 14.3592C37.7386 14.3592 37.7386 14.3592 37.67 14.499C37.6013 14.6387 37.6013 14.6387 37.6013 14.6387C37.6013 14.6387 37.6013 14.6387 37.6013 14.6387C37.6014 14.6388 37.6015 14.6388 37.6016 14.6389C37.6019 14.639 37.6024 14.6393 37.603 14.6396C37.6043 14.6402 37.6063 14.6412 37.6089 14.6425C37.6143 14.6452 37.6224 14.6493 37.6331 14.6547C37.6544 14.6656 37.6861 14.6819 37.7266 14.7034C37.8077 14.7464 37.9243 14.8101 38.0652 14.892C38.3472 15.0561 38.7252 15.2928 39.1101 15.5839C39.4957 15.8754 39.8843 16.2185 40.1906 16.5944C40.4976 16.9713 40.7139 17.3716 40.7708 17.7784L41.0793 17.7353ZM37.67 14.499C37.735 14.6404 37.7351 14.6404 37.7351 14.6404C37.7352 14.6404 37.7352 14.6403 37.7353 14.6403C37.7354 14.6403 37.7355 14.6402 37.7357 14.6401C37.7361 14.6399 37.7367 14.6397 37.7374 14.6394C37.7387 14.6387 37.7407 14.6378 37.7433 14.6366C37.7484 14.6342 37.7559 14.6306 37.7656 14.626C37.785 14.6168 37.8132 14.6032 37.8491 14.5853C37.9208 14.5497 38.0233 14.4974 38.1474 14.4299C38.3955 14.2951 38.7311 14.0994 39.0807 13.8556C39.4298 13.6122 39.796 13.3187 40.1032 12.9878C40.4095 12.6578 40.6646 12.2827 40.779 11.8756L40.4792 11.7913C40.3831 12.133 40.163 12.4656 39.8749 12.7759C39.5878 13.0852 39.2406 13.3644 38.9025 13.6002C38.5649 13.8356 38.2397 14.0253 37.9987 14.1563C37.8784 14.2217 37.7793 14.2723 37.7106 14.3064C37.6762 14.3234 37.6495 14.3363 37.6315 14.3449C37.6225 14.3492 37.6157 14.3524 37.6112 14.3545C37.609 14.3556 37.6073 14.3564 37.6062 14.3568C37.6057 14.3571 37.6053 14.3573 37.6051 14.3574C37.605 14.3574 37.6049 14.3575 37.6049 14.3575C37.6048 14.3575 37.6048 14.3575 37.6048 14.3575C37.6048 14.3575 37.6049 14.3575 37.67 14.499ZM40.779 11.8756C41.1086 10.7034 40.761 9.6791 40.045 8.88335C39.3335 8.09249 38.2588 7.52576 37.1159 7.2398L37.0403 7.54194C38.1397 7.81701 39.1536 8.35819 39.8135 9.09166C40.469 9.82024 40.7757 10.7367 40.4792 11.7913L40.779 11.8756ZM21.8312 14.7815C21.7719 15.4567 21.848 16.2115 21.9371 16.7922C21.9818 17.0837 22.0302 17.3336 22.0674 17.5108C22.086 17.5994 22.1019 17.67 22.1131 17.7186C22.1187 17.7428 22.1232 17.7616 22.1263 17.7745C22.1278 17.7809 22.129 17.7858 22.1298 17.7892C22.1303 17.7908 22.1306 17.7921 22.1308 17.793C22.1309 17.7935 22.131 17.7938 22.1311 17.7941C22.1311 17.7942 22.1311 17.7943 22.1311 17.7944C22.1311 17.7944 22.1312 17.7945 22.1312 17.7945C22.1312 17.7945 22.1312 17.7945 22.2823 17.7568C22.4334 17.7191 22.4334 17.7191 22.4334 17.7191C22.4334 17.7191 22.4334 17.7191 22.4334 17.7191C22.4334 17.7191 22.4333 17.719 22.4333 17.719C22.4333 17.7188 22.4332 17.7186 22.4331 17.7182C22.433 17.7175 22.4327 17.7164 22.4323 17.715C22.4316 17.712 22.4305 17.7075 22.4291 17.7015C22.4262 17.6896 22.4219 17.6717 22.4165 17.6483C22.4057 17.6016 22.3903 17.5332 22.3722 17.4468C22.3359 17.2739 22.2886 17.0297 22.2449 16.745C22.1572 16.1732 22.0854 15.4472 22.1415 14.8088L21.8312 14.7815ZM22.2823 17.7568C22.4122 17.6709 22.4122 17.6709 22.4121 17.6709C22.4121 17.6708 22.4121 17.6708 22.412 17.6707C22.412 17.6706 22.4119 17.6705 22.4117 17.6703C22.4115 17.6699 22.4111 17.6694 22.4107 17.6687C22.4098 17.6674 22.4085 17.6655 22.4069 17.663C22.4036 17.658 22.3987 17.6508 22.3923 17.6415C22.3796 17.6228 22.3609 17.5956 22.3366 17.5611C22.288 17.4921 22.217 17.3936 22.1267 17.2751C21.9465 17.0381 21.6886 16.7196 21.3785 16.394C21.0689 16.0689 20.7045 15.7339 20.3108 15.4661C19.9182 15.199 19.4876 14.9926 19.0467 14.9368L19.0076 15.2458C19.3815 15.2931 19.7651 15.4715 20.1356 15.7236C20.505 15.9749 20.8526 16.2934 21.153 16.6088C21.453 16.9239 21.7034 17.2331 21.8789 17.4636C21.9665 17.5788 22.0352 17.6741 22.0819 17.7404C22.1052 17.7735 22.123 17.7994 22.1349 17.8168C22.1409 17.8255 22.1453 17.8322 22.1482 17.8365C22.1497 17.8387 22.1508 17.8403 22.1515 17.8414C22.1518 17.8419 22.1521 17.8422 22.1522 17.8425C22.1523 17.8426 22.1523 17.8427 22.1524 17.8427C22.1524 17.8427 22.1524 17.8427 22.1524 17.8427C22.1524 17.8427 22.1524 17.8427 22.2823 17.7568ZM19.0467 14.9368C17.8733 14.7882 16.7994 15.4349 15.9188 16.341C15.0351 17.2503 14.3189 18.4475 13.8548 19.4694L14.1384 19.5982C14.5928 18.5976 15.2909 17.434 16.1422 16.558C16.9967 15.6787 17.9787 15.1155 19.0076 15.2458L19.0467 14.9368ZM13.8548 19.4694C13.104 21.1227 12.8796 22.7735 12.8422 24.0087C12.8235 24.6268 12.8516 25.1422 12.8844 25.5037C12.9008 25.6845 12.9185 25.827 12.9321 25.9247C12.9389 25.9736 12.9447 26.0113 12.9488 26.037C12.9509 26.0498 12.9525 26.0597 12.9537 26.0665C12.9543 26.0699 12.9547 26.0725 12.9551 26.0743C12.9552 26.0752 12.9554 26.0759 12.9554 26.0765C12.9555 26.0767 12.9555 26.0769 12.9556 26.0771C12.9556 26.0772 12.9556 26.0773 12.9556 26.0773C12.9556 26.0774 12.9556 26.0774 13.1088 26.0496C13.2621 26.0218 13.2621 26.0218 13.2621 26.0218C13.2621 26.0218 13.2621 26.0218 13.2621 26.0218C13.2621 26.0218 13.262 26.0217 13.262 26.0215C13.262 26.0213 13.2619 26.0208 13.2618 26.0201C13.2615 26.0188 13.2612 26.0167 13.2607 26.0138C13.2597 26.0081 13.2582 25.9992 13.2563 25.9874C13.2525 25.9638 13.247 25.9283 13.2405 25.8818C13.2276 25.7886 13.2105 25.6511 13.1946 25.4756C13.1627 25.1244 13.1353 24.6218 13.1535 24.0181C13.1901 22.81 13.4096 21.2029 14.1384 19.5982L13.8548 19.4694ZM13.1088 26.0496C13.1897 25.9165 13.1896 25.9164 13.1895 25.9164C13.1894 25.9163 13.1894 25.9163 13.1893 25.9162C13.1891 25.9162 13.189 25.9161 13.1888 25.916C13.1884 25.9157 13.188 25.9155 13.1875 25.9152C13.1865 25.9146 13.1852 25.9138 13.1836 25.9129C13.1804 25.911 13.1761 25.9086 13.1706 25.9055C13.1595 25.8994 13.1439 25.891 13.1237 25.8809C13.0833 25.8606 13.0246 25.8334 12.9483 25.8035C12.7957 25.7437 12.5723 25.6732 12.283 25.6264C11.7033 25.5326 10.8634 25.5345 9.80272 25.9025L9.90479 26.1967C10.9155 25.8461 11.7031 25.848 12.2332 25.9339C12.4987 25.9768 12.7007 26.0411 12.8347 26.0935C12.9017 26.1198 12.9518 26.1431 12.9842 26.1593C13.0004 26.1675 13.0122 26.1738 13.0195 26.1779C13.0232 26.1799 13.0257 26.1814 13.0272 26.1822C13.0279 26.1826 13.0283 26.1829 13.0284 26.183C13.0285 26.183 13.0285 26.183 13.0285 26.183C13.0284 26.1829 13.0284 26.1829 13.0283 26.1829C13.0283 26.1828 13.0282 26.1828 13.0282 26.1828C13.0281 26.1828 13.028 26.1827 13.1088 26.0496ZM8.96601 41.31C9.37689 41.31 9.77624 41.1461 10.1367 40.9152C10.4982 40.6836 10.8318 40.3776 11.1142 40.076C11.3972 39.7739 11.6324 39.4724 11.7968 39.2468C11.8791 39.1339 11.9438 39.0396 11.9882 38.9733C12.0103 38.9401 12.0274 38.914 12.0391 38.8959C12.0449 38.8869 12.0493 38.8799 12.0524 38.8751C12.0539 38.8727 12.0551 38.8709 12.0559 38.8696C12.0563 38.8689 12.0566 38.8684 12.0569 38.868C12.057 38.8679 12.0571 38.8677 12.0571 38.8676C12.0572 38.8675 12.0572 38.8675 12.0572 38.8675C12.0572 38.8674 12.0573 38.8674 11.9252 38.7849C11.7931 38.7024 11.7931 38.7024 11.7931 38.7024C11.7931 38.7024 11.7931 38.7024 11.7931 38.7024C11.7931 38.7025 11.793 38.7025 11.793 38.7026C11.7928 38.7028 11.7926 38.7032 11.7923 38.7037C11.7917 38.7047 11.7907 38.7062 11.7894 38.7083C11.7867 38.7124 11.7827 38.7188 11.7773 38.7271C11.7666 38.7438 11.7504 38.7685 11.7293 38.8001C11.6869 38.8634 11.6246 38.9542 11.545 39.0634C11.3858 39.2821 11.1587 39.5729 10.8869 39.8631C10.6146 40.1539 10.3008 40.4402 9.96872 40.6529C9.63561 40.8663 9.29509 40.9985 8.96601 40.9985V41.31ZM11.7694 38.7849V44.4121H12.0809V38.7849H11.7694ZM12.0528 44.3229C11.0053 42.8251 10.0472 42.1061 9.24768 41.7811C8.44544 41.455 7.82053 41.533 7.4608 41.593L7.51204 41.9002C7.84568 41.8446 8.40445 41.7745 9.13039 42.0696C9.85907 42.3659 10.7737 43.0374 11.7976 44.5014L12.0528 44.3229ZM7.4608 41.593C7.18558 41.6389 6.96693 41.8099 6.79933 42.0553C6.63308 42.2988 6.51062 42.6237 6.42381 43.0027C6.25004 43.7612 6.21072 44.7745 6.28312 45.89C6.42799 48.122 7.02329 50.8071 7.93707 52.7706L8.21944 52.6392C7.32521 50.7177 6.73685 48.0718 6.59393 45.8699C6.52244 44.7685 6.56319 43.7891 6.7274 43.0722C6.80959 42.7135 6.9206 42.43 7.05653 42.231C7.19113 42.0339 7.34338 41.9283 7.51204 41.9002L7.4608 41.593ZM7.93707 52.7706C8.458 53.89 9.05536 55.1616 9.74778 56.1529C10.4338 57.1352 11.2494 57.8955 12.2211 57.8955V57.5841C11.4173 57.5841 10.6836 56.9489 10.0031 55.9746C9.32905 55.0095 8.74274 53.7636 8.21944 52.6392L7.93707 52.7706ZM12.2211 57.8955C13.1527 57.8955 13.9238 57.5073 14.4571 57.126C14.7244 56.935 14.9343 56.7439 15.0777 56.6004C15.1495 56.5285 15.2048 56.4684 15.2426 56.4258C15.2614 56.4045 15.2759 56.3875 15.2858 56.3757C15.2908 56.3698 15.2946 56.3651 15.2973 56.3618C15.2987 56.3602 15.2997 56.3589 15.3005 56.3579C15.3009 56.3575 15.3012 56.3571 15.3014 56.3568C15.3015 56.3566 15.3016 56.3565 15.3017 56.3564C15.3018 56.3564 15.3018 56.3563 15.3018 56.3563C15.3019 56.3562 15.3019 56.3562 15.1803 56.2589C15.0586 56.1617 15.0586 56.1617 15.0587 56.1616C15.0587 56.1616 15.0587 56.1616 15.0587 56.1616C15.0587 56.1616 15.0587 56.1616 15.0587 56.1616C15.0586 56.1617 15.0585 56.1618 15.0583 56.1621C15.0579 56.1625 15.0573 56.1634 15.0563 56.1645C15.0544 56.1669 15.0514 56.1705 15.0473 56.1755C15.039 56.1853 15.0263 56.2002 15.0093 56.2194C14.9754 56.2577 14.9243 56.3133 14.8574 56.3802C14.7234 56.5143 14.5265 56.6936 14.2759 56.8727C13.7735 57.2319 13.065 57.5841 12.2211 57.5841V57.8955ZM15.1803 56.2589C15.0534 56.1686 15.0534 56.1687 15.0533 56.1688C15.0533 56.1688 15.0532 56.1689 15.0531 56.1691C15.0529 56.1693 15.0527 56.1697 15.0524 56.1701C15.0517 56.171 15.0509 56.1722 15.0498 56.1738C15.0475 56.1769 15.0443 56.1815 15.0402 56.1875C15.0319 56.1995 15.0198 56.2171 15.0044 56.2401C14.9736 56.286 14.9294 56.3533 14.8751 56.4401C14.7665 56.6136 14.6173 56.8651 14.4538 57.1786C14.1271 57.805 13.7413 58.6823 13.5088 59.6826C13.0429 61.6871 13.192 64.2017 15.6758 66.155L15.8684 65.9101C13.5103 64.0558 13.3635 61.6836 13.8122 59.7532C14.0369 58.786 14.4111 57.9339 14.7299 57.3226C14.8892 57.0173 15.0342 56.773 15.1391 56.6053C15.1916 56.5215 15.2339 56.457 15.263 56.4136C15.2776 56.392 15.2888 56.3756 15.2963 56.3648C15.3 56.3594 15.3028 56.3554 15.3046 56.3528C15.3055 56.3515 15.3062 56.3505 15.3066 56.35C15.3068 56.3497 15.307 56.3495 15.3071 56.3494C15.3071 56.3493 15.3071 56.3493 15.3071 56.3493C15.3071 56.3493 15.3071 56.3493 15.1803 56.2589ZM15.6758 66.155C17.79 67.8175 19.6931 67.8243 21.0702 67.4032C21.7549 67.1938 22.3055 66.88 22.685 66.619C22.8749 66.4883 23.0224 66.3704 23.1231 66.2847C23.1734 66.2418 23.212 66.207 23.2384 66.1825C23.2516 66.1702 23.2617 66.1606 23.2687 66.1539C23.2722 66.1505 23.2749 66.1478 23.2768 66.146C23.2778 66.145 23.2785 66.1443 23.2791 66.1437C23.2794 66.1434 23.2796 66.1432 23.2798 66.143C23.2799 66.1429 23.28 66.1428 23.28 66.1428C23.2801 66.1427 23.2802 66.1426 23.17 66.0325C23.0599 65.9225 23.0599 65.9224 23.0599 65.9224C23.0599 65.9224 23.06 65.9224 23.06 65.9224C23.0599 65.9224 23.0599 65.9225 23.0598 65.9226C23.0595 65.9228 23.0591 65.9232 23.0585 65.9238C23.0572 65.9251 23.0552 65.927 23.0524 65.9297C23.0468 65.9351 23.0382 65.9434 23.0265 65.9542C23.0032 65.9759 22.9678 66.0078 22.9211 66.0476C22.8275 66.1273 22.6884 66.2385 22.5084 66.3624C22.148 66.6104 21.626 66.9075 20.9791 67.1053C19.6929 67.4987 17.8971 67.5055 15.8684 65.9101L15.6758 66.155ZM23.17 66.0325C23.0162 66.0082 23.0162 66.0082 23.0162 66.0083C23.0162 66.0083 23.0162 66.0084 23.0162 66.0084C23.0162 66.0085 23.0161 66.0087 23.0161 66.0089C23.016 66.0092 23.016 66.0098 23.0159 66.0104C23.0156 66.0118 23.0153 66.0138 23.015 66.0163C23.0142 66.0214 23.0131 66.0288 23.0116 66.0385C23.0088 66.0578 23.0048 66.0861 22.9999 66.1225C22.9902 66.1951 22.9772 66.3 22.9638 66.4299C22.937 66.6895 22.9086 67.0499 22.9022 67.4531C22.8894 68.2515 22.9618 69.2481 23.3277 69.9544L23.6042 69.8111C23.2765 69.1786 23.2009 68.2501 23.2136 67.4581C23.2199 67.0661 23.2475 66.715 23.2736 66.4619C23.2867 66.3354 23.2993 66.2336 23.3086 66.1637C23.3133 66.1287 23.3172 66.1018 23.3198 66.0837C23.3211 66.0746 23.3222 66.0678 23.3228 66.0633C23.3232 66.061 23.3234 66.0594 23.3236 66.0583C23.3237 66.0578 23.3238 66.0574 23.3238 66.0571C23.3238 66.057 23.3238 66.057 23.3238 66.0569C23.3238 66.0569 23.3238 66.0569 23.3238 66.0569C23.3238 66.0569 23.3238 66.0569 23.17 66.0325ZM23.3277 69.9544C23.8161 70.8972 24.7977 71.6577 26.0983 72.1816C27.4012 72.7064 29.0385 73.0002 30.8639 73.0002V72.6887C29.0697 72.6887 27.4733 72.3997 26.2147 71.8927C24.9539 71.3848 24.0463 70.6644 23.6042 69.8111L23.3277 69.9544ZM30.8639 73.0002C32.4909 73.0002 34.7305 72.9268 36.4186 72.4387C37.2608 72.1952 37.9902 71.8419 38.4315 71.3208C38.8839 70.7866 39.0164 70.0968 38.7041 69.2372L38.4113 69.3436C38.6909 70.1129 38.5644 70.6819 38.1938 71.1195C37.8121 71.5702 37.1543 71.9018 36.3321 72.1395C34.691 72.614 32.4919 72.6887 30.8639 72.6887V73.0002ZM38.7041 69.2372C38.099 67.572 36.5217 65.7736 35.1154 64.4031C34.4092 63.7149 33.7404 63.1292 33.2482 62.7156C33.002 62.5087 32.7998 62.3448 32.6591 62.2324C32.5887 62.1762 32.5336 62.1329 32.4961 62.1036C32.4773 62.089 32.4629 62.0778 32.4531 62.0703C32.4483 62.0665 32.4446 62.0636 32.442 62.0617C32.4408 62.0607 32.4398 62.06 32.4392 62.0595C32.4388 62.0592 32.4386 62.059 32.4384 62.0589C32.4383 62.0588 32.4382 62.0588 32.4382 62.0587C32.4381 62.0587 32.4381 62.0587 32.3434 62.1823C32.2488 62.306 32.2488 62.306 32.2488 62.306C32.2489 62.306 32.2489 62.3061 32.249 62.3061C32.2491 62.3062 32.2493 62.3064 32.2496 62.3066C32.2501 62.307 32.251 62.3077 32.2522 62.3086C32.2545 62.3104 32.258 62.3131 32.2627 62.3167C32.272 62.3239 32.286 62.3348 32.3044 62.3491C32.3411 62.3778 32.3953 62.4204 32.4648 62.4758C32.6037 62.5868 32.8038 62.7491 33.0478 62.9541C33.5358 63.3642 34.1986 63.9446 34.898 64.6262C36.3029 65.9953 37.8327 67.751 38.4113 69.3436L38.7041 69.2372ZM32.2926 62.3295L40.8742 65.2912L40.9758 64.9968L32.3943 62.0351L32.2926 62.3295ZM37.1159 7.2398C34.7056 6.63671 31.384 7.05041 28.1396 8.43228L28.2616 8.71883C31.4658 7.3541 34.7159 6.96034 37.0403 7.54194L37.1159 7.2398ZM28.1396 8.43228C26.2157 9.2517 24.6686 10.5422 23.5899 11.7684C23.0504 12.3818 22.6262 12.9811 22.3298 13.5006C22.0365 14.0146 21.8589 14.4666 21.8312 14.7815L22.1415 14.8088C22.1631 14.5632 22.3124 14.1595 22.6003 13.6549C22.8851 13.1558 23.2966 12.5735 23.8238 11.9741C24.8785 10.7751 26.3892 9.51633 28.2616 8.71883L28.1396 8.43228ZM9.80272 25.9025C9.24935 26.0944 8.72831 26.5083 8.26032 27.0569C7.79126 27.6067 7.36803 28.3005 7.01226 29.0671C6.30128 30.5992 5.85111 32.441 5.85111 34.0462H6.16256C6.16256 32.4923 6.60014 30.6951 7.29477 29.1982C7.6418 28.4505 8.05084 27.7823 8.49727 27.259C8.94477 26.7345 9.42245 26.364 9.90479 26.1967L9.80272 25.9025ZM5.85111 34.0462C5.85111 37.1692 6.37045 38.9803 7.0217 40.0155C7.67773 41.0583 8.4662 41.31 8.96601 41.31V40.9985C8.57806 40.9985 7.88695 40.806 7.28533 39.8496C6.67893 38.8857 6.16257 37.1427 6.16256 34.0462H5.85111ZM41.0381 22.0589H46.2682V21.7475H41.0381V22.0589ZM46.2682 21.9032C46.3131 21.7541 46.3131 21.7541 46.3131 21.7541C46.3131 21.7541 46.3131 21.7541 46.313 21.7541C46.3129 21.754 46.3127 21.754 46.3124 21.7539C46.3118 21.7537 46.311 21.7535 46.3098 21.7531C46.3074 21.7523 46.3037 21.7512 46.2988 21.7497C46.289 21.7467 46.2743 21.7421 46.255 21.7359C46.2164 21.7237 46.1596 21.7053 46.0872 21.6809C45.9425 21.6322 45.7356 21.5596 45.4883 21.4647C44.9933 21.2746 44.3385 20.9957 43.696 20.6398C43.0519 20.2829 42.4291 19.8533 41.9907 19.3649C41.5527 18.877 41.3123 18.3467 41.3918 17.7784L41.0833 17.7353C40.9864 18.4282 41.2867 19.0469 41.7589 19.5729C42.2306 20.0984 42.8874 20.5478 43.5451 20.9122C44.2044 21.2775 44.8734 21.5622 45.3767 21.7555C45.6286 21.8522 45.8396 21.9262 45.9878 21.9761C46.062 22.0011 46.1205 22.02 46.1606 22.0328C46.1807 22.0391 46.1961 22.044 46.2067 22.0472C46.212 22.0489 46.216 22.0501 46.2188 22.051C46.2201 22.0514 46.2212 22.0517 46.2219 22.0519C46.2223 22.052 46.2226 22.0521 46.2228 22.0522C46.2229 22.0522 46.223 22.0522 46.2231 22.0523C46.2231 22.0523 46.2232 22.0523 46.2682 21.9032ZM41.3918 17.7784C41.4487 17.3716 41.665 16.9713 41.972 16.5944C42.2783 16.2185 42.667 15.8754 43.0525 15.5839C43.4374 15.2928 43.8154 15.0561 44.0974 14.892C44.2383 14.8101 44.3549 14.7464 44.436 14.7034C44.4765 14.6819 44.5082 14.6656 44.5295 14.6547C44.5402 14.6493 44.5483 14.6452 44.5537 14.6425C44.5563 14.6412 44.5583 14.6402 44.5596 14.6396C44.5602 14.6393 44.5607 14.639 44.561 14.6389C44.5611 14.6388 44.5612 14.6388 44.5613 14.6387C44.5613 14.6387 44.5613 14.6387 44.5613 14.6387C44.5613 14.6387 44.5613 14.6387 44.4927 14.499C44.424 14.3592 44.424 14.3592 44.4239 14.3592C44.4239 14.3592 44.4238 14.3593 44.4238 14.3593C44.4236 14.3594 44.4235 14.3594 44.4232 14.3596C44.4228 14.3598 44.4222 14.3601 44.4213 14.3605C44.4197 14.3613 44.4174 14.3624 44.4144 14.3639C44.4084 14.367 44.3996 14.3714 44.3882 14.3772C44.3654 14.3888 44.3322 14.4059 44.2901 14.4283C44.2058 14.4729 44.0856 14.5385 43.9408 14.6228C43.6514 14.7912 43.2623 15.0348 42.8646 15.3355C42.4676 15.6357 42.058 15.9957 41.7306 16.3977C41.4039 16.7987 41.1511 17.2511 41.0833 17.7353L41.3918 17.7784ZM44.4927 14.499C44.5577 14.3575 44.5578 14.3575 44.5578 14.3575C44.5578 14.3575 44.5578 14.3575 44.5577 14.3575C44.5577 14.3575 44.5576 14.3574 44.5575 14.3574C44.5573 14.3573 44.5569 14.3571 44.5564 14.3568C44.5553 14.3564 44.5537 14.3556 44.5514 14.3545C44.5469 14.3524 44.5401 14.3492 44.5311 14.3449C44.5131 14.3363 44.4864 14.3234 44.452 14.3064C44.3833 14.2723 44.2842 14.2217 44.1639 14.1563C43.9229 14.0253 43.5977 13.8356 43.2601 13.6002C42.922 13.3644 42.5748 13.0852 42.2877 12.7759C41.9996 12.4656 41.7795 12.133 41.6834 11.7913L41.3836 11.8756C41.4981 12.2827 41.7531 12.6578 42.0594 12.9878C42.3666 13.3187 42.7328 13.6122 43.0819 13.8556C43.4315 14.0994 43.7671 14.2951 44.0152 14.4299C44.1393 14.4974 44.2418 14.5497 44.3135 14.5853C44.3494 14.6032 44.3776 14.6168 44.397 14.626C44.4067 14.6306 44.4142 14.6342 44.4193 14.6366C44.4219 14.6378 44.4239 14.6387 44.4253 14.6394C44.4259 14.6397 44.4265 14.6399 44.4269 14.6401C44.4271 14.6402 44.4272 14.6403 44.4273 14.6403C44.4274 14.6403 44.4275 14.6404 44.4275 14.6404C44.4275 14.6404 44.4276 14.6404 44.4927 14.499ZM41.6834 11.7913C41.3869 10.7367 41.6936 9.82024 42.3491 9.09166C43.009 8.35819 44.0229 7.81701 45.1223 7.54194L45.0467 7.2398C43.9038 7.52576 42.8291 8.09249 42.1176 8.88335C41.4016 9.6791 41.054 10.7034 41.3836 11.8756L41.6834 11.7913ZM60.0211 14.8088C60.0772 15.4472 60.0054 16.1732 59.9177 16.745C59.874 17.0297 59.8267 17.2739 59.7904 17.4468C59.7723 17.5332 59.7569 17.6016 59.7461 17.6483C59.7407 17.6717 59.7364 17.6896 59.7335 17.7015C59.7321 17.7075 59.731 17.712 59.7303 17.715C59.7299 17.7164 59.7296 17.7175 59.7295 17.7182C59.7294 17.7186 59.7293 17.7188 59.7293 17.719C59.7293 17.719 59.7293 17.7191 59.7292 17.7191C59.7292 17.7191 59.7292 17.7191 59.7292 17.7191C59.7292 17.7191 59.7292 17.7191 59.8803 17.7568C60.0314 17.7945 60.0314 17.7945 60.0314 17.7945C60.0315 17.7945 60.0315 17.7944 60.0315 17.7944C60.0315 17.7943 60.0315 17.7942 60.0315 17.7941C60.0316 17.7938 60.0317 17.7935 60.0318 17.793C60.032 17.7921 60.0323 17.7908 60.0328 17.7892C60.0336 17.7858 60.0348 17.7809 60.0363 17.7745C60.0394 17.7616 60.0439 17.7428 60.0495 17.7186C60.0607 17.67 60.0766 17.5994 60.0952 17.5108C60.1324 17.3336 60.1808 17.0837 60.2255 16.7922C60.3146 16.2115 60.3907 15.4567 60.3314 14.7815L60.0211 14.8088ZM59.8803 17.7568C60.0103 17.8427 60.0102 17.8427 60.0102 17.8427C60.0102 17.8427 60.0102 17.8427 60.0103 17.8427C60.0103 17.8427 60.0103 17.8426 60.0104 17.8425C60.0106 17.8422 60.0108 17.8419 60.0111 17.8414C60.0118 17.8403 60.0129 17.8387 60.0144 17.8365C60.0173 17.8322 60.0218 17.8255 60.0277 17.8168C60.0396 17.7994 60.0574 17.7735 60.0807 17.7404C60.1274 17.6741 60.1961 17.5788 60.2837 17.4636C60.4592 17.2331 60.7096 16.9239 61.0096 16.6088C61.31 16.2934 61.6576 15.9749 62.027 15.7236C62.3975 15.4715 62.7811 15.2931 63.155 15.2458L63.1159 14.9368C62.675 14.9926 62.2444 15.199 61.8518 15.4661C61.4581 15.7339 61.0937 16.0689 60.7841 16.394C60.474 16.7196 60.2162 17.0381 60.0359 17.2751C59.9456 17.3936 59.8746 17.4921 59.826 17.5611C59.8017 17.5956 59.783 17.6228 59.7703 17.6415C59.7639 17.6508 59.7591 17.658 59.7557 17.663C59.7541 17.6655 59.7528 17.6674 59.7519 17.6687C59.7515 17.6694 59.7511 17.6699 59.7509 17.6703C59.7507 17.6705 59.7506 17.6706 59.7506 17.6707C59.7505 17.6708 59.7505 17.6708 59.7505 17.6709C59.7505 17.6709 59.7504 17.6709 59.8803 17.7568ZM63.155 15.2458C64.1839 15.1155 65.1659 15.6787 66.0204 16.558C66.8717 17.434 67.5698 18.5976 68.0242 19.5982L68.3078 19.4694C67.8437 18.4475 67.1275 17.2503 66.2438 16.341C65.3633 15.4349 64.2893 14.7882 63.1159 14.9368L63.155 15.2458ZM68.0242 19.5982C68.753 21.2029 68.9725 22.81 69.0091 24.0181C69.0274 24.6218 68.9999 25.1244 68.968 25.4756C68.9521 25.6511 68.935 25.7886 68.9221 25.8818C68.9156 25.9283 68.9101 25.9638 68.9063 25.9874C68.9044 25.9992 68.9029 26.0081 68.9019 26.0138C68.9014 26.0167 68.9011 26.0188 68.9008 26.0201C68.9007 26.0208 68.9006 26.0213 68.9006 26.0215C68.9006 26.0217 68.9005 26.0218 68.9005 26.0218C68.9005 26.0218 68.9005 26.0218 68.9005 26.0218C68.9005 26.0218 68.9005 26.0218 69.0538 26.0496C69.207 26.0774 69.207 26.0774 69.207 26.0773C69.207 26.0773 69.207 26.0772 69.207 26.0771C69.2071 26.0769 69.2071 26.0767 69.2072 26.0765C69.2073 26.0759 69.2074 26.0752 69.2075 26.0743C69.2079 26.0725 69.2083 26.0699 69.2089 26.0665C69.2101 26.0597 69.2117 26.0498 69.2138 26.037C69.2179 26.0113 69.2237 25.9736 69.2305 25.9247C69.2442 25.827 69.2618 25.6845 69.2782 25.5037C69.3111 25.1422 69.3391 24.6268 69.3204 24.0087C69.283 22.7735 69.0586 21.1227 68.3078 19.4694L68.0242 19.5982ZM69.0538 26.0496C69.1346 26.1827 69.1345 26.1828 69.1344 26.1828C69.1344 26.1828 69.1343 26.1828 69.1343 26.1829C69.1342 26.1829 69.1342 26.1829 69.1342 26.183C69.1341 26.183 69.1341 26.183 69.1342 26.183C69.1343 26.1829 69.1347 26.1826 69.1354 26.1822C69.1369 26.1814 69.1394 26.1799 69.1431 26.1779C69.1504 26.1738 69.1622 26.1675 69.1784 26.1593C69.2109 26.1431 69.2609 26.1198 69.3279 26.0935C69.4619 26.0411 69.6639 25.9768 69.9294 25.9339C70.4595 25.848 71.2471 25.8461 72.2578 26.1967L72.3599 25.9025C71.2992 25.5345 70.4593 25.5326 69.8796 25.6264C69.5903 25.6732 69.367 25.7437 69.2143 25.8035C69.138 25.8334 69.0793 25.8606 69.0389 25.8809C69.0187 25.891 69.0031 25.8994 68.992 25.9055C68.9865 25.9086 68.9822 25.911 68.979 25.9129C68.9774 25.9138 68.9761 25.9146 68.9751 25.9152C68.9746 25.9155 68.9742 25.9157 68.9738 25.916C68.9736 25.9161 68.9735 25.9162 68.9733 25.9162C68.9733 25.9163 68.9732 25.9163 68.9731 25.9164C68.973 25.9164 68.973 25.9165 69.0538 26.0496ZM73.1966 40.9985C72.8675 40.9985 72.527 40.8663 72.1939 40.6529C71.8618 40.4402 71.5481 40.1539 71.2757 39.8631C71.0039 39.5729 70.7768 39.2821 70.6176 39.0634C70.538 38.9542 70.4757 38.8634 70.4333 38.8001C70.4122 38.7685 70.396 38.7438 70.3853 38.7271C70.3799 38.7188 70.3759 38.7124 70.3732 38.7083C70.3719 38.7062 70.3709 38.7047 70.3703 38.7037C70.37 38.7032 70.3698 38.7028 70.3697 38.7026C70.3696 38.7025 70.3695 38.7025 70.3695 38.7024C70.3695 38.7024 70.3695 38.7024 70.3695 38.7024C70.3695 38.7024 70.3695 38.7024 70.2374 38.7849C70.1053 38.8674 70.1054 38.8674 70.1054 38.8675C70.1054 38.8675 70.1054 38.8675 70.1055 38.8676C70.1055 38.8677 70.1056 38.8679 70.1058 38.868C70.106 38.8684 70.1063 38.8689 70.1067 38.8696C70.1075 38.8709 70.1087 38.8727 70.1102 38.8751C70.1133 38.8799 70.1177 38.8869 70.1236 38.8959C70.1352 38.914 70.1523 38.9401 70.1744 38.9733C70.2188 39.0396 70.2835 39.1339 70.3658 39.2468C70.5302 39.4724 70.7654 39.7739 71.0484 40.076C71.3308 40.3776 71.6644 40.6836 72.0259 40.9152C72.3864 41.1461 72.7857 41.31 73.1966 41.31V40.9985ZM70.0817 38.7849V44.4121H70.3932V38.7849H70.0817ZM70.3651 44.5014C71.3889 43.0374 72.3035 42.3659 73.0322 42.0696C73.7582 41.7745 74.3169 41.8446 74.6506 41.9002L74.7018 41.593C74.3421 41.533 73.7172 41.455 72.9149 41.7811C72.1154 42.1061 71.1573 42.8251 70.1098 44.3229L70.3651 44.5014ZM74.6506 41.9002C74.8192 41.9283 74.9715 42.0339 75.1061 42.231C75.242 42.43 75.353 42.7135 75.4352 43.0722C75.5994 43.7891 75.6402 44.7685 75.5687 45.8699C75.4258 48.0718 74.8374 50.7177 73.9432 52.6392L74.2255 52.7706C75.1393 50.8071 75.7346 48.122 75.8795 45.89C75.9519 44.7745 75.9126 43.7612 75.7388 43.0027C75.652 42.6237 75.5295 42.2988 75.3633 42.0553C75.1957 41.8099 74.977 41.6389 74.7018 41.593L74.6506 41.9002ZM73.9432 52.6392C73.4199 53.7636 72.8336 55.0095 72.1595 55.9746C71.479 56.9489 70.7453 57.5841 69.9415 57.5841V57.8955C70.9132 57.8955 71.7288 57.1352 72.4148 56.1529C73.1072 55.1616 73.7046 53.89 74.2255 52.7706L73.9432 52.6392ZM69.9415 57.5841C69.0976 57.5841 68.3891 57.2319 67.8867 56.8727C67.6361 56.6936 67.4392 56.5143 67.3052 56.3802C67.2383 56.3133 67.1873 56.2577 67.1533 56.2194C67.1363 56.2002 67.1236 56.1853 67.1154 56.1755C67.1112 56.1705 67.1082 56.1669 67.1063 56.1645C67.1053 56.1634 67.1047 56.1626 67.1043 56.1621C67.1041 56.1618 67.104 56.1617 67.1039 56.1616C67.1039 56.1616 67.1039 56.1616 67.1039 56.1616C67.1039 56.1616 67.1039 56.1616 67.1039 56.1616C67.104 56.1617 67.104 56.1617 66.9823 56.2589C66.8607 56.3562 66.8607 56.3562 66.8608 56.3563C66.8608 56.3563 66.8609 56.3564 66.8609 56.3564C66.861 56.3565 66.8611 56.3566 66.8612 56.3568C66.8614 56.3571 66.8618 56.3575 66.8621 56.3579C66.8629 56.3589 66.864 56.3602 66.8653 56.3618C66.868 56.3651 66.8718 56.3698 66.8768 56.3757C66.8867 56.3875 66.9012 56.4045 66.9201 56.4258C66.9578 56.4684 67.0131 56.5285 67.0849 56.6004C67.2283 56.7439 67.4383 56.935 67.7056 57.126C68.2388 57.5073 69.0099 57.8955 69.9415 57.8955V57.5841ZM66.9823 56.2589C66.8555 56.3493 66.8555 56.3493 66.8555 56.3493C66.8555 56.3493 66.8555 56.3493 66.8556 56.3493C66.8556 56.3495 66.8558 56.3497 66.856 56.35C66.8564 56.3505 66.8571 56.3515 66.858 56.3528C66.8598 56.3554 66.8626 56.3594 66.8663 56.3648C66.8738 56.3756 66.885 56.392 66.8996 56.4136C66.9287 56.457 66.9711 56.5215 67.0235 56.6053C67.1284 56.773 67.2734 57.0173 67.4327 57.3226C67.7515 57.9339 68.1257 58.786 68.3504 59.7532C68.7991 61.6836 68.6523 64.0558 66.2942 65.9101L66.4868 66.155C68.9706 64.2017 69.1197 61.6871 68.6538 59.6826C68.4213 58.6823 68.0356 57.805 67.7088 57.1786C67.5453 56.8651 67.3961 56.6136 67.2875 56.4401C67.2332 56.3533 67.189 56.286 67.1582 56.2401C67.1428 56.2171 67.1307 56.1995 67.1224 56.1875C67.1183 56.1815 67.1151 56.1769 67.1128 56.1738C67.1117 56.1722 67.1109 56.171 67.1103 56.1701C67.11 56.1697 67.1097 56.1693 67.1095 56.1691C67.1094 56.1689 67.1094 56.1688 67.1093 56.1688C67.1092 56.1687 67.1092 56.1686 66.9823 56.2589ZM66.2942 65.9101C64.2655 67.5055 62.4697 67.4987 61.1835 67.1053C60.5366 66.9075 60.0146 66.6104 59.6542 66.3624C59.4742 66.2385 59.3351 66.1273 59.2415 66.0476C59.1948 66.0078 59.1594 65.9759 59.1361 65.9542C59.1244 65.9434 59.1158 65.9351 59.1102 65.9297C59.1074 65.927 59.1054 65.9251 59.1041 65.9238C59.1035 65.9232 59.1031 65.9228 59.1028 65.9226C59.1027 65.9225 59.1027 65.9224 59.1026 65.9224C59.1026 65.9224 59.1027 65.9224 59.1027 65.9224C59.1027 65.9224 59.1027 65.9225 58.9926 66.0325C58.8824 66.1426 58.8825 66.1427 58.8826 66.1428C58.8826 66.1428 58.8827 66.1429 58.8828 66.143C58.883 66.1432 58.8832 66.1434 58.8835 66.1437C58.8841 66.1443 58.8848 66.145 58.8858 66.146C58.8877 66.1478 58.8904 66.1505 58.8939 66.1539C58.9009 66.1606 58.911 66.1702 58.9242 66.1825C58.9506 66.207 58.9892 66.2418 59.0396 66.2847C59.1402 66.3704 59.2878 66.4883 59.4776 66.619C59.8571 66.88 60.4077 67.1938 61.0924 67.4032C62.4695 67.8243 64.3727 67.8175 66.4868 66.155L66.2942 65.9101ZM58.9926 66.0325C58.8388 66.0569 58.8388 66.0569 58.8388 66.0569C58.8388 66.0569 58.8388 66.0569 58.8388 66.0569C58.8388 66.057 58.8388 66.057 58.8388 66.0571C58.8388 66.0574 58.8389 66.0578 58.839 66.0583C58.8392 66.0594 58.8394 66.061 58.8398 66.0633C58.8404 66.0678 58.8415 66.0746 58.8428 66.0837C58.8455 66.1018 58.8493 66.1287 58.854 66.1637C58.8633 66.2336 58.8759 66.3354 58.889 66.4619C58.9151 66.715 58.9427 67.0661 58.949 67.4581C58.9617 68.2501 58.8861 69.1786 58.5584 69.8111L58.8349 69.9544C59.2009 69.2481 59.2732 68.2515 59.2604 67.4531C59.254 67.0499 59.2256 66.6895 59.1988 66.4299C59.1854 66.3 59.1724 66.1951 59.1627 66.1225C59.1578 66.0861 59.1538 66.0578 59.151 66.0385C59.1495 66.0288 59.1484 66.0214 59.1477 66.0163C59.1473 66.0138 59.147 66.0118 59.1467 66.0104C59.1466 66.0098 59.1466 66.0092 59.1465 66.0089C59.1465 66.0087 59.1465 66.0085 59.1464 66.0084C59.1464 66.0084 59.1464 66.0083 59.1464 66.0083C59.1464 66.0082 59.1464 66.0082 58.9926 66.0325ZM58.5584 69.8111C58.1163 70.6644 57.2087 71.3848 55.9479 71.8927C54.6893 72.3997 53.0929 72.6887 51.2987 72.6887V73.0002C53.1241 73.0002 54.7614 72.7064 56.0643 72.1816C57.3649 71.6577 58.3465 70.8972 58.8349 69.9544L58.5584 69.8111ZM51.2987 72.6887C49.6707 72.6887 47.4716 72.614 45.8305 72.1395C45.0083 71.9018 44.3505 71.5702 43.9688 71.1195C43.5982 70.6819 43.4718 70.1129 43.7513 69.3436L43.4585 69.2372C43.1462 70.0968 43.2787 70.7866 43.7311 71.3208C44.1724 71.8419 44.9018 72.1952 45.744 72.4387C47.4321 72.9268 49.6717 73.0002 51.2987 73.0002V72.6887ZM43.7513 69.3436C44.3299 67.751 45.8597 65.9953 47.2646 64.6262C47.964 63.9446 48.6268 63.3642 49.1148 62.9541C49.3588 62.7491 49.5589 62.5868 49.6978 62.4758C49.7673 62.4204 49.8215 62.3778 49.8582 62.3491C49.8766 62.3348 49.8906 62.3239 49.8999 62.3167C49.9046 62.3131 49.9081 62.3104 49.9104 62.3086C49.9116 62.3077 49.9125 62.307 49.913 62.3066C49.9133 62.3064 49.9135 62.3062 49.9137 62.3061C49.9137 62.3061 49.9138 62.306 49.9138 62.306C49.9138 62.306 49.9138 62.306 49.8192 62.1823C49.7245 62.0587 49.7245 62.0587 49.7244 62.0587C49.7244 62.0588 49.7243 62.0588 49.7242 62.0589C49.724 62.059 49.7238 62.0592 49.7235 62.0595C49.7228 62.06 49.7218 62.0607 49.7206 62.0617C49.7181 62.0636 49.7143 62.0665 49.7095 62.0703C49.6997 62.0778 49.6853 62.089 49.6665 62.1036C49.629 62.1329 49.5739 62.1762 49.5035 62.2324C49.3628 62.3448 49.1606 62.5087 48.9144 62.7156C48.4222 63.1292 47.7534 63.7149 47.0472 64.4031C45.6409 65.7736 44.0636 67.572 43.4585 69.2372L43.7513 69.3436ZM49.77 62.0346L40.8758 64.9963L40.9742 65.2918L49.8684 62.3301L49.77 62.0346ZM45.1223 7.54194C47.4467 6.96034 50.6968 7.3541 53.901 8.71883L54.023 8.43228C50.7786 7.05041 47.457 6.63671 45.0467 7.2398L45.1223 7.54194ZM53.901 8.71883C55.7734 9.51633 57.2841 10.7751 58.3388 11.9741C58.866 12.5735 59.2775 13.1558 59.5623 13.6549C59.8502 14.1595 59.9995 14.5632 60.0211 14.8088L60.3314 14.7815C60.3037 14.4666 60.1262 14.0146 59.8328 13.5006C59.5364 12.9811 59.1122 12.3818 58.5727 11.7684C57.494 10.5422 55.9469 9.2517 54.023 8.43228L53.901 8.71883ZM72.2578 26.1967C72.7402 26.364 73.2178 26.7345 73.6653 27.259C74.1118 27.7823 74.5208 28.4505 74.8678 29.1982C75.5625 30.6951 76 32.4923 76 34.0462H76.3115C76.3115 32.441 75.8613 30.5992 75.1504 29.0671C74.7946 28.3005 74.3714 27.6067 73.9023 27.0569C73.4343 26.5083 72.9133 26.0944 72.3599 25.9025L72.2578 26.1967ZM76 34.0462C76 37.1427 75.4837 38.8857 74.8773 39.8496C74.2757 40.806 73.5845 40.9985 73.1966 40.9985V41.31C73.6964 41.31 74.4849 41.0583 75.1409 40.0155C75.7922 38.9803 76.3115 37.1692 76.3115 34.0462H76Z" fill="white"/>
<path d="M33.6737 32.4201L40.8971 24.5762L48.1205 32.4201C48.1205 32.4201 51.9899 28.7102 54.6068 26.4912C57.1775 24.3115 61.388 21.1553 61.388 21.1553V47.5386C61.388 49.0208 55.637 53.2539 51.3637 56.1354C47.811 58.531 41.9021 61.2454 40.8971 61.7013C39.8922 61.2454 33.9832 58.531 30.4306 56.1354C26.1572 53.2539 20.4062 49.3173 20.4062 47.5386V21.1553C20.4062 21.1553 24.6167 24.3115 27.1874 26.4912C29.8044 28.7102 33.6737 32.4201 33.6737 32.4201Z" fill="#EFED02"/>
<path d="M33.6737 32.4201L33.5659 32.5325L33.6806 32.6424L33.7883 32.5256L33.6737 32.4201ZM20.4062 21.1553L20.4997 21.0307L20.2505 20.8439V21.1553H20.4062ZM30.4306 56.1354L30.3435 56.2645L30.4306 56.1354ZM27.1874 26.4912L27.0867 26.61L27.1874 26.4912ZM48.1205 32.4201L48.006 32.5256L48.1136 32.6424L48.2283 32.5325L48.1205 32.4201ZM61.388 21.1553H61.5437V20.8439L61.2946 21.0307L61.388 21.1553ZM51.3637 56.1354L51.4507 56.2645L51.3637 56.1354ZM54.6068 26.4912L54.5061 26.3725H54.5061L54.6068 26.4912ZM40.93 24.3106L40.7826 24.4707L41.0117 24.6817L41.1591 24.5216L40.93 24.3106ZM40.7826 24.4707L33.5592 32.3146L33.7883 32.5256L41.0117 24.6817L40.7826 24.4707ZM20.2505 21.1553V47.5386H20.562V21.1553H20.2505ZM20.2505 47.5386C20.2505 47.8005 20.3553 48.0847 20.5272 48.379C20.7004 48.6754 20.9495 48.9954 21.2566 49.332C21.8708 50.0053 22.7307 50.7601 23.719 51.5454C25.6965 53.1165 28.2076 54.8243 30.3435 56.2645L30.5176 56.0063C28.3802 54.565 25.8792 52.8638 23.9128 51.3015C22.9292 50.5201 22.0843 49.7772 21.4867 49.1221C21.1878 48.7944 20.9542 48.4925 20.7962 48.2219C20.6369 47.9493 20.562 47.7214 20.562 47.5386H20.2505ZM30.3435 56.2645C33.9087 58.6686 39.8297 61.3881 40.8328 61.8431L40.9615 61.5594C39.9546 61.1028 34.0577 58.3934 30.5176 56.0063L30.3435 56.2645ZM40.8328 61.8431C40.881 61.865 40.918 61.8816 40.9429 61.8929C40.9554 61.8985 40.9649 61.9028 40.9713 61.9056C40.9744 61.9071 40.9768 61.9081 40.9785 61.9089C40.9793 61.9092 40.9799 61.9095 40.9803 61.9097C40.9805 61.9098 40.9807 61.9098 40.9808 61.9099C40.9808 61.9099 40.9809 61.9099 40.9809 61.9099C40.9809 61.91 40.9809 61.91 40.9809 61.91C40.9809 61.91 40.9809 61.91 40.9809 61.91C40.9809 61.91 40.9809 61.91 40.9809 61.91C40.9809 61.91 40.9809 61.91 41.0445 61.7678C41.1081 61.6257 41.1081 61.6257 41.1081 61.6257C41.1081 61.6257 41.1081 61.6257 41.1081 61.6257C41.1081 61.6257 41.1081 61.6257 41.1081 61.6257C41.1081 61.6256 41.1081 61.6256 41.108 61.6256C41.1079 61.6256 41.1078 61.6255 41.1076 61.6254C41.1072 61.6252 41.1066 61.625 41.1058 61.6246C41.1043 61.6239 41.1019 61.6229 41.0988 61.6215C41.0926 61.6187 41.0832 61.6145 41.0708 61.6089C41.0461 61.5978 41.0094 61.5812 40.9615 61.5594L40.8328 61.8431ZM33.6737 32.4201C33.7815 32.3077 33.7815 32.3076 33.7814 32.3076C33.7814 32.3076 33.7814 32.3075 33.7813 32.3075C33.7812 32.3074 33.781 32.3072 33.7808 32.307C33.7803 32.3065 33.7796 32.3058 33.7786 32.3049C33.7768 32.3031 33.774 32.3004 33.7702 32.2969C33.7628 32.2898 33.7518 32.2792 33.7373 32.2653C33.7082 32.2376 33.6653 32.1966 33.6098 32.1436C33.4988 32.0378 33.3373 31.8841 33.1354 31.6927C32.7315 31.31 32.1657 30.7766 31.518 30.1738C30.2232 28.9686 28.5995 27.4844 27.2881 26.3725L27.0867 26.61C28.3923 27.7171 30.0117 29.1972 31.3058 30.4018C31.9526 31.0038 32.5178 31.5365 32.9211 31.9188C33.1228 32.1099 33.2841 32.2634 33.3949 32.369C33.4503 32.4219 33.4931 32.4627 33.522 32.4904C33.5365 32.5042 33.5475 32.5148 33.5548 32.5218C33.5585 32.5254 33.5613 32.528 33.5632 32.5298C33.5641 32.5307 33.5648 32.5314 33.5653 32.5318C33.5655 32.532 33.5657 32.5322 33.5658 32.5323C33.5658 32.5324 33.5659 32.5324 33.5659 32.5324C33.5659 32.5325 33.5659 32.5325 33.6737 32.4201ZM27.2881 26.3725C25.9999 25.2802 24.3023 23.9444 22.928 22.8826C22.2406 22.3515 21.6336 21.8886 21.1984 21.5584C20.9808 21.3933 20.8062 21.2614 20.6859 21.1708C20.6258 21.1255 20.5792 21.0905 20.5477 21.0668C20.532 21.0549 20.52 21.0459 20.5119 21.0398C20.5079 21.0368 20.5048 21.0345 20.5028 21.033C20.5017 21.0322 20.501 21.0316 20.5004 21.0313C20.5002 21.0311 20.5 21.0309 20.4999 21.0308C20.4998 21.0308 20.4997 21.0307 20.4997 21.0307C20.4997 21.0307 20.4997 21.0307 20.4062 21.1553C20.3128 21.2799 20.3129 21.2799 20.3129 21.2799C20.3129 21.2799 20.313 21.28 20.313 21.28C20.3132 21.2801 20.3133 21.2803 20.3136 21.2804C20.3141 21.2808 20.3149 21.2814 20.3159 21.2821C20.3179 21.2837 20.3209 21.2859 20.3249 21.2889C20.3329 21.295 20.3449 21.3039 20.3606 21.3157C20.392 21.3393 20.4384 21.3743 20.4985 21.4195C20.6185 21.51 20.7929 21.6417 21.0102 21.8066C21.4448 22.1363 22.0511 22.5987 22.7376 23.1291C24.1112 24.1903 25.8042 25.5225 27.0867 26.61L27.2881 26.3725ZM40.6352 24.5216L40.7826 24.6817L41.0117 24.4707L40.8643 24.3106L40.6352 24.5216ZM40.7826 24.6817L48.006 32.5256L48.2351 32.3146L41.0117 24.4707L40.7826 24.6817ZM61.2323 21.1553V47.5386H61.5437V21.1553H61.2323ZM61.2323 47.5386C61.2323 47.6791 61.1617 47.8765 61.0007 48.1324C60.8424 48.3841 60.6082 48.6743 60.3087 48.9958C59.7099 49.6384 58.8639 50.3913 57.8801 51.1915C55.9134 52.791 53.4117 54.5666 51.2766 56.0063L51.4507 56.2645C53.589 54.8227 56.0995 53.0411 58.0766 51.4331C59.0647 50.6295 59.9235 49.8661 60.5366 49.2081C60.8429 48.8793 61.0915 48.5731 61.2644 48.2983C61.4346 48.0278 61.5437 47.7687 61.5437 47.5386H61.2323ZM51.2766 56.0063C47.7366 58.3934 41.8396 61.1028 40.8328 61.5594L40.9615 61.8431C41.9645 61.3881 47.8855 58.6686 51.4507 56.2645L51.2766 56.0063ZM40.8328 61.5594C40.7848 61.5812 40.7481 61.5978 40.7234 61.6089C40.711 61.6145 40.7017 61.6187 40.6954 61.6215C40.6923 61.6229 40.69 61.6239 40.6884 61.6246C40.6876 61.625 40.687 61.6252 40.6867 61.6254C40.6865 61.6255 40.6863 61.6256 40.6862 61.6256C40.6862 61.6256 40.6862 61.6256 40.6861 61.6257C40.6861 61.6257 40.6861 61.6257 40.6861 61.6257C40.6861 61.6257 40.6861 61.6257 40.6861 61.6257C40.6861 61.6257 40.6861 61.6257 40.7497 61.7678C40.8133 61.91 40.8133 61.91 40.8133 61.91C40.8133 61.91 40.8133 61.91 40.8133 61.91C40.8133 61.91 40.8133 61.91 40.8133 61.91C40.8133 61.91 40.8133 61.91 40.8134 61.9099C40.8134 61.9099 40.8134 61.9099 40.8135 61.9099C40.8136 61.9098 40.8137 61.9098 40.814 61.9097C40.8144 61.9095 40.815 61.9092 40.8158 61.9089C40.8174 61.9081 40.8198 61.9071 40.823 61.9056C40.8294 61.9028 40.8388 61.8985 40.8513 61.8929C40.8763 61.8816 40.9132 61.865 40.9615 61.8431L40.8328 61.5594ZM48.1205 32.4201C48.2283 32.5325 48.2283 32.5325 48.2283 32.5324C48.2284 32.5324 48.2284 32.5324 48.2285 32.5323C48.2286 32.5322 48.2288 32.532 48.229 32.5318C48.2295 32.5314 48.2302 32.5307 48.2311 32.5298C48.2329 32.528 48.2357 32.5254 48.2394 32.5218C48.2468 32.5148 48.2578 32.5042 48.2723 32.4904C48.3012 32.4627 48.344 32.4219 48.3994 32.369C48.5102 32.2634 48.6714 32.1099 48.8731 31.9188C49.2765 31.5365 49.8416 31.0038 50.4884 30.4018C51.7825 29.1972 53.4019 27.7171 54.7076 26.61L54.5061 26.3725C53.1948 27.4844 51.571 28.9686 50.2762 30.1738C49.6286 30.7766 49.0628 31.31 48.6589 31.6927C48.4569 31.8841 48.2954 32.0378 48.1844 32.1436C48.1289 32.1966 48.086 32.2376 48.057 32.2653C48.0425 32.2792 48.0314 32.2898 48.024 32.2969C48.0203 32.3004 48.0175 32.3031 48.0156 32.3049C48.0147 32.3058 48.0139 32.3065 48.0135 32.307C48.0132 32.3072 48.0131 32.3074 48.0129 32.3075C48.0129 32.3075 48.0128 32.3076 48.0128 32.3076C48.0128 32.3076 48.0128 32.3077 48.1205 32.4201ZM54.7076 26.61C55.9901 25.5225 57.683 24.1903 59.0566 23.1291C59.7432 22.5987 60.3494 22.1363 60.7841 21.8066C61.0014 21.6417 61.1758 21.51 61.2958 21.4195C61.3558 21.3743 61.4022 21.3393 61.4336 21.3157C61.4494 21.3039 61.4613 21.295 61.4693 21.2889C61.4733 21.2859 61.4764 21.2837 61.4784 21.2821C61.4794 21.2814 61.4801 21.2808 61.4807 21.2804C61.4809 21.2803 61.4811 21.2801 61.4812 21.28C61.4813 21.28 61.4813 21.2799 61.4814 21.2799C61.4814 21.2799 61.4814 21.2799 61.388 21.1553C61.2946 21.0307 61.2946 21.0307 61.2945 21.0307C61.2945 21.0307 61.2945 21.0308 61.2944 21.0308C61.2943 21.0309 61.2941 21.0311 61.2938 21.0313C61.2933 21.0316 61.2925 21.0322 61.2915 21.033C61.2894 21.0345 61.2864 21.0368 61.2824 21.0398C61.2743 21.0459 61.2623 21.0549 61.2465 21.0668C61.215 21.0905 61.1685 21.1255 61.1083 21.1708C60.9881 21.2614 60.8134 21.3933 60.5958 21.5584C60.1606 21.8886 59.5536 22.3515 58.8662 22.8826C57.4919 23.9444 55.7943 25.2802 54.5061 26.3725L54.7076 26.61Z" fill="white"/>
<path fill-rule="evenodd" clip-rule="evenodd" d="M25.9559 33.1647L23.8821 31.9797V41.4599L25.9559 42.9412H30.3997V47.6813L26.2521 45.3112H23.2896L34.251 51.8289L38.3986 43.5337H43.435L47.8788 51.8289L51.4339 49.7551V43.5337H55.5815V47.6813L57.9515 46.4962V31.9797L55.5815 33.1647V40.8674H51.4339V34.646L49.0638 35.831V40.8674H45.805L40.7687 30.2021L36.3248 40.8674H32.7698V35.831L30.3997 34.646V40.8674H25.9559V33.1647ZM39.2865 40.8673L40.7677 37.3122L42.5453 40.8673H39.2865ZM32.7688 48.2737V43.5336H35.1389L32.7688 48.2737ZM49.0629 43.5336V48.2737L46.6929 43.5336H49.0629Z" fill="#2F2C67"/>
<path fill-rule="evenodd" clip-rule="evenodd" d="M41.3447 0.406336C41.0349 0.110069 40.6365 -0.0241877 40.1495 0.00356575C39.6979 -0.00549732 39.3202 0.144967 39.0165 0.454959C38.7141 0.763417 38.5675 1.14476 38.5766 1.59899C38.5846 2.00358 38.7104 2.35091 38.9539 2.64098C39.2622 3.008 39.6915 3.18602 40.242 3.17506C40.791 3.16413 41.212 2.96014 41.505 2.56309C41.7263 2.26377 41.833 1.92008 41.8253 1.53203C41.8163 1.07781 41.6561 0.702574 41.3447 0.406336ZM39.5495 0.588791C39.6897 0.300113 39.8997 0.152988 40.1795 0.147417C40.3314 0.144392 40.4661 0.183088 40.5835 0.263505C40.7025 0.343893 40.8016 0.48411 40.8808 0.684158C40.96 0.882701 41.0036 1.18427 41.0117 1.58886C41.0184 1.92878 40.9871 2.20551 40.9176 2.41905C40.8481 2.63109 40.7481 2.78656 40.6177 2.88545C40.5154 2.96272 40.3868 3.0029 40.2319 3.00599C40.0018 3.01057 39.821 2.9269 39.6897 2.75497C39.5012 2.50895 39.4018 2.12499 39.3914 1.60307C39.3827 1.16389 39.4354 0.825792 39.5495 0.588791Z" fill="white"/>
<path d="M38.0806 3.11836L38.0882 3.20151L36.495 3.34797L36.4874 3.26482L36.5885 3.25553C36.6769 3.2474 36.7466 3.22513 36.7976 3.18872C36.8347 3.16416 36.8613 3.12545 36.8776 3.07259C36.8908 3.03512 36.8903 2.93999 36.8763 2.78719L36.692 0.7828C36.6777 0.627003 36.6605 0.530387 36.6404 0.492953C36.6204 0.455518 36.5836 0.424911 36.53 0.40113C36.4778 0.375714 36.4091 0.366931 36.3237 0.374781L36.2225 0.384076L36.2149 0.300935L37.8081 0.154473L37.8157 0.237615L37.7146 0.246911C37.6262 0.255036 37.5565 0.277307 37.5055 0.313724C37.4684 0.338277 37.441 0.377054 37.4233 0.430053C37.4101 0.467521 37.4105 0.562656 37.4246 0.715457L37.6088 2.71985C37.6232 2.87564 37.6403 2.97226 37.6604 3.00969C37.682 3.04699 37.7188 3.07835 37.771 3.10376C37.8246 3.12754 37.894 3.13551 37.9794 3.12766L38.0806 3.11836Z" fill="white"/>
<path d="M35.8573 1.16578L35.7259 0.348119L33.0123 0.784295L33.1437 1.60195L33.2284 1.58835C33.2267 1.36006 33.2808 1.17538 33.3907 1.0343C33.469 0.933348 33.6098 0.866519 33.8133 0.833812L34.0317 0.798717L34.4062 3.12916C34.4306 3.28066 34.4375 3.37554 34.4268 3.41382C34.4127 3.4679 34.388 3.50844 34.3527 3.53544C34.3042 3.57523 34.2362 3.60216 34.1486 3.61625L34.0483 3.63236L34.0615 3.7148L35.6434 3.46054L35.6301 3.37811L35.5299 3.39422C35.4437 3.40807 35.3731 3.40494 35.3181 3.38484C35.2643 3.36301 35.2254 3.33422 35.2014 3.29847C35.1788 3.26247 35.1551 3.16724 35.1303 3.01277L34.7557 0.682332L34.9808 0.646163C35.1219 0.623483 35.2228 0.620975 35.2835 0.638638C35.3924 0.671419 35.4825 0.724742 35.5538 0.798608C35.6248 0.870989 35.6993 0.997676 35.7771 1.17867L35.8573 1.16578Z" fill="white"/>
<path fill-rule="evenodd" clip-rule="evenodd" d="M31.9899 3.26221L30.9404 3.52083L30.8868 3.84082C30.8697 3.9473 30.8688 4.03195 30.8843 4.09476C30.9048 4.17802 30.9535 4.23109 31.0304 4.25397C31.0756 4.26762 31.1771 4.26121 31.3348 4.23474L31.3548 4.31581L30.3666 4.55931L30.3467 4.47825C30.4493 4.4359 30.5262 4.37049 30.5772 4.28199C30.6278 4.19204 30.6757 4.02145 30.7207 3.77021L31.1991 1.13768L31.2407 1.12742L32.9125 3.29979C33.0716 3.50538 33.1914 3.63002 33.2719 3.67371C33.3328 3.70675 33.4093 3.71577 33.5017 3.70075L33.5217 3.78182L32.0844 4.13601L32.0644 4.05494L32.1236 4.04037C32.239 4.01193 32.3161 3.97589 32.3549 3.93223C32.3813 3.90094 32.389 3.86339 32.3783 3.81957C32.3718 3.79328 32.3607 3.76733 32.3451 3.74174C32.339 3.72931 32.3036 3.67994 32.2389 3.59361L31.9899 3.26221ZM31.8755 3.11843L31.1807 2.2043L30.9771 3.3398L31.8755 3.11843Z" fill="white"/>
<path d="M30.0014 4.68639L29.9761 4.60684L29.8793 4.63766C29.7976 4.6637 29.728 4.67086 29.6706 4.65915C29.6142 4.64556 29.5714 4.62286 29.5424 4.59108C29.5147 4.55883 29.4772 4.46817 29.4297 4.3191L28.8186 2.40126C28.772 2.25505 28.7511 2.16224 28.7559 2.12281C28.7619 2.06723 28.7803 2.02347 28.8112 1.99152C28.8532 1.94498 28.9165 1.90824 29.0011 1.88129L29.0978 1.85047L29.0725 1.77092L27.5481 2.25661L27.5734 2.33616L27.6702 2.30534C27.7519 2.2793 27.821 2.27309 27.8774 2.28668C27.9348 2.29839 27.9773 2.32036 28.005 2.35261C28.0326 2.38485 28.0702 2.47551 28.1177 2.62458L28.7287 4.54243C28.7753 4.68863 28.7962 4.78145 28.7914 4.82087C28.7869 4.876 28.7692 4.91953 28.7383 4.95147C28.6963 4.99802 28.633 5.03476 28.5484 5.0617L28.4517 5.09253L28.477 5.17208L30.0014 4.68639Z" fill="white"/>
<path d="M26.8783 2.40331L27.2703 3.38881L27.1885 3.42133C27.0247 3.18859 26.8317 3.03708 26.6095 2.9668C26.3872 2.89652 26.1699 2.90364 25.9574 2.98815C25.7799 3.05875 25.6373 3.17454 25.5297 3.33552C25.4221 3.4965 25.3669 3.67308 25.364 3.86527C25.3599 4.11137 25.4093 4.36373 25.5121 4.62233C25.6133 4.87674 25.7377 5.096 25.8854 5.28011C26.0326 5.46281 26.196 5.58074 26.3758 5.63389C26.5551 5.68565 26.7537 5.66816 26.9718 5.58143C27.1507 5.51027 27.2987 5.40608 27.4158 5.26887C27.5342 5.1311 27.6378 4.93366 27.7266 4.67655L27.8242 4.92188C27.731 5.1516 27.6127 5.33868 27.4694 5.4831C27.3269 5.62557 27.1404 5.74267 26.9097 5.8344C26.6064 5.95505 26.3124 6.00154 26.0278 5.97388C25.7446 5.94567 25.4934 5.84321 25.2741 5.66651C25.0563 5.48925 24.8963 5.27202 24.794 5.01481C24.6861 4.74362 24.6544 4.45834 24.6988 4.15896C24.7447 3.85902 24.8611 3.59414 25.0482 3.36432C25.2367 3.13395 25.4665 2.96483 25.7377 2.85698C25.9376 2.77747 26.1659 2.73686 26.4226 2.73513C26.5712 2.7343 26.663 2.72694 26.698 2.71304C26.7427 2.69525 26.7747 2.66389 26.7941 2.61895C26.8143 2.57206 26.8151 2.51102 26.7966 2.43584L26.8783 2.40331Z" fill="white"/>
<path fill-rule="evenodd" clip-rule="evenodd" d="M23.2183 4.43433C22.81 4.30391 22.393 4.35792 21.9675 4.59637C21.5577 4.78621 21.2842 5.08704 21.1471 5.49884C21.0106 5.90862 21.0461 6.31564 21.2533 6.71992C21.438 7.08002 21.7033 7.33703 22.0493 7.49096C22.4873 7.68568 22.9512 7.65743 23.4412 7.40622C23.9298 7.15569 24.2188 6.78777 24.308 6.30244C24.3756 5.93642 24.3209 5.58072 24.1438 5.23535C23.9365 4.83107 23.628 4.56407 23.2183 4.43433ZM21.6849 5.38541C21.6843 5.06448 21.8085 4.84019 22.0575 4.71252C22.1927 4.6432 22.3307 4.61893 22.4716 4.6397C22.6137 4.65979 22.7643 4.74237 22.9232 4.88743C23.0814 5.03115 23.2528 5.28306 23.4375 5.64316C23.5926 5.9457 23.6857 6.20816 23.7169 6.43054C23.7474 6.65159 23.7257 6.83515 23.6519 6.98122C23.5938 7.09552 23.4958 7.18801 23.358 7.25871C23.1531 7.36372 22.954 7.36776 22.7606 7.27081C22.4834 7.13233 22.2257 6.83083 21.9875 6.36632C21.7871 5.97543 21.6862 5.64846 21.6849 5.38541Z" fill="white"/>
<path d="M19.6824 5.82756L20.2431 6.67993L20.1646 6.72888C19.9922 6.53495 19.7923 6.41761 19.5648 6.37686C19.3378 6.33404 19.14 6.36516 18.9715 6.47023C18.8413 6.55141 18.7598 6.65099 18.727 6.76896C18.6946 6.88485 18.7067 6.98812 18.7632 7.07875C18.799 7.1362 18.8443 7.1789 18.8989 7.20687C18.9734 7.24378 19.0697 7.26613 19.1881 7.27391C19.2743 7.27863 19.4594 7.26695 19.7433 7.23887C20.1402 7.19879 20.433 7.21211 20.6218 7.27881C20.8092 7.3463 20.9563 7.46558 21.0629 7.63664C21.1983 7.85365 21.23 8.0936 21.1581 8.35647C21.0867 8.61728 20.9208 8.82887 20.6604 8.99124C20.5787 9.04218 20.4963 9.08203 20.4131 9.11081C20.33 9.13958 20.2193 9.16521 20.0808 9.18771C20.0036 9.20038 19.9452 9.21906 19.9057 9.24373C19.8725 9.26442 19.8453 9.29908 19.8242 9.34769C19.8031 9.3963 19.7974 9.45394 19.8071 9.52061L19.7362 9.56478L19.1249 8.58439L19.1958 8.54021C19.4239 8.78093 19.6631 8.9243 19.9134 8.97034C20.1642 9.0143 20.3821 8.97858 20.5672 8.86317C20.7102 8.77402 20.7995 8.66425 20.8352 8.53385C20.8722 8.40265 20.8584 8.28535 20.794 8.18195C20.7558 8.12067 20.7022 8.07166 20.6332 8.03491C20.5654 7.99736 20.4825 7.97375 20.3842 7.96408C20.2852 7.95313 20.1256 7.9587 19.9054 7.98079C19.5968 8.01187 19.3653 8.01879 19.211 8.00156C19.0566 7.98434 18.9199 7.94281 18.8009 7.87698C18.6831 7.81036 18.5864 7.71641 18.5108 7.59514C18.3818 7.38834 18.348 7.16481 18.4091 6.92457C18.4703 6.68432 18.6164 6.49217 18.8475 6.3481C18.9317 6.29557 19.0198 6.25485 19.1117 6.22592C19.1812 6.20383 19.2719 6.18719 19.3837 6.17598C19.496 6.16271 19.5693 6.14533 19.6038 6.12384C19.637 6.10314 19.6568 6.07661 19.6632 6.04425C19.6696 6.01189 19.6569 5.9516 19.6249 5.86338L19.6824 5.82756Z" fill="white"/>
<path d="M17.8051 8.25512L17.1841 7.44566L17.1294 7.48555C17.1677 7.57122 17.1848 7.63042 17.1807 7.66317C17.1767 7.69591 17.1589 7.72381 17.1273 7.74685C17.0944 7.77079 17.0225 7.79344 16.9115 7.81483C16.8008 7.83411 16.7116 7.85729 16.6438 7.88436C16.5543 7.91987 16.4694 7.96688 16.3892 8.02538C16.1692 8.18583 16.0374 8.38807 15.9938 8.63212C15.9502 8.87617 16.0002 9.09665 16.1438 9.29355C16.228 9.40902 16.3313 9.49571 16.4536 9.55361C16.5771 9.61063 16.7164 9.64214 16.8716 9.64813C17.0268 9.65412 17.2572 9.63042 17.5627 9.57704C17.7807 9.53904 17.9395 9.52191 18.0391 9.52565C18.1377 9.52817 18.2222 9.5457 18.2925 9.57824C18.364 9.60988 18.421 9.65488 18.4636 9.71322C18.5354 9.81168 18.5576 9.92767 18.5302 10.0612C18.5041 10.1939 18.4229 10.3098 18.2868 10.4091C18.1105 10.5376 17.8958 10.5891 17.6425 10.5634C17.3895 10.5356 17.1405 10.41 16.8955 10.1865L16.8281 10.2357L17.5089 11.1691L17.5763 11.1199C17.5619 11.0541 17.5634 10.9962 17.5809 10.9462C17.5984 10.8962 17.623 10.8597 17.6546 10.8366C17.6923 10.8092 17.7491 10.7863 17.8252 10.7681C17.9617 10.7356 18.0703 10.702 18.1511 10.6673C18.2319 10.6325 18.3112 10.5868 18.389 10.5301C18.6369 10.3492 18.7871 10.1262 18.8394 9.86088C18.892 9.59348 18.843 9.35647 18.6923 9.14984C18.5735 8.98697 18.4182 8.87867 18.2263 8.82495C18.0332 8.77211 17.7402 8.78008 17.3472 8.84883C17.0661 8.89743 16.8824 8.9225 16.796 8.92405C16.6774 8.92487 16.5797 8.90957 16.5028 8.87815C16.4462 8.85423 16.398 8.81491 16.3581 8.76022C16.2952 8.67392 16.2756 8.5718 16.2995 8.45387C16.3237 8.33383 16.3977 8.22861 16.5217 8.13819C16.6822 8.02118 16.8771 7.9758 17.1067 8.00204C17.3366 8.02618 17.5445 8.12871 17.7304 8.30964L17.8051 8.25512Z" fill="white"/>
<path fill-rule="evenodd" clip-rule="evenodd" d="M15.8155 11.3461L14.9932 12.0476L15.0887 12.3577C15.1211 12.4605 15.1582 12.5366 15.2002 12.5858C15.2559 12.651 15.3232 12.6766 15.4022 12.6626C15.4487 12.6546 15.5366 12.6034 15.6657 12.5091L15.7199 12.5726L14.9456 13.2331L14.8914 13.1696C14.9642 13.0857 15.0036 12.9928 15.0096 12.8908C15.0146 12.7877 14.9809 12.6138 14.9085 12.369L14.1565 9.80119L14.1891 9.77336L16.6571 10.9662C16.8915 11.0787 17.0545 11.1364 17.146 11.1394C17.2152 11.1417 17.2877 11.1154 17.3635 11.0606L17.4177 11.1242L16.2915 12.0849L16.2374 12.0214L16.2837 11.9818C16.3741 11.9047 16.4269 11.8379 16.442 11.7815C16.4516 11.7417 16.4417 11.7046 16.4125 11.6703C16.3949 11.6497 16.3734 11.6315 16.348 11.6156C16.3369 11.6072 16.2831 11.579 16.1866 11.5308L15.8155 11.3461ZM15.6488 11.2688L14.6181 10.7629L14.9449 11.8693L15.6488 11.2688Z" fill="white"/>
<path fill-rule="evenodd" clip-rule="evenodd" d="M12.5281 14.0064L10.1089 13.8397L9.37634 14.6406L9.43795 14.6969C9.50312 14.6301 9.56189 14.5871 9.61427 14.5677C9.66664 14.5483 9.74463 14.5422 9.84823 14.5493L9.95234 14.5558L11.5459 16.0132C11.6658 16.1229 11.7284 16.225 11.7337 16.3195C11.7377 16.3924 11.7067 16.4745 11.6406 16.5658L11.6377 16.5636C11.5751 16.6331 11.5097 16.6741 11.4416 16.6864C11.3515 16.7027 11.18 16.6805 10.9273 16.6197L8.26368 15.972L8.23764 16.0061L9.51237 18.3586C9.63454 18.5827 9.70403 18.7457 9.72083 18.8475C9.73644 18.9485 9.71746 19.0476 9.6639 19.1449L9.73022 19.1956L10.3484 18.3872L10.2821 18.3364C10.1757 18.4558 10.1006 18.5243 10.0568 18.5419C9.98246 18.5722 9.91125 18.5613 9.84314 18.5093C9.79175 18.47 9.73942 18.4034 9.68613 18.3097L9.52765 18.0266L10.1842 17.1679L10.5858 17.2705C10.6903 17.2974 10.7488 17.3137 10.7614 17.3195C10.7896 17.3297 10.8144 17.3431 10.836 17.3595C10.8718 17.3869 10.8892 17.4211 10.8883 17.462C10.8853 17.5203 10.8477 17.5967 10.7755 17.6911L10.7385 17.7395L10.8049 17.7902L11.6342 16.7056L12.3668 15.9047L12.3052 15.8484L12.2565 15.9017C12.1864 15.9783 12.1012 16.0257 12.0009 16.044C11.9016 16.0612 11.787 16.0105 11.6571 15.8917L10.2217 14.5789L13.4982 14.7713L13.55 14.7147L11.67 12.9954C11.5634 12.8979 11.4966 12.8205 11.4696 12.7631C11.4424 12.7036 11.4341 12.6492 11.4447 12.5997C11.4552 12.5481 11.498 12.469 11.5731 12.3624L11.5115 12.306L10.8292 13.052L10.8908 13.1084C11.0033 12.9809 11.1161 12.92 11.2292 12.9256C11.3125 12.9304 11.4219 12.9947 11.5573 13.1186L12.5281 14.0064ZM10.005 17.1274L8.89097 16.8494L9.44298 17.8624L10.005 17.1274Z" fill="white"/>
<path d="M9.55119 19.494L9.48164 19.4478L9.42546 19.5324C9.37801 19.6039 9.32824 19.653 9.27613 19.6798C9.2236 19.7045 9.17605 19.7135 9.13348 19.7069C9.09174 19.6991 9.00571 19.6519 8.87539 19.5653L7.1987 18.4516C7.07088 18.3667 6.99651 18.3074 6.9756 18.2736C6.94548 18.2265 6.93246 18.1809 6.93656 18.1366C6.94021 18.074 6.96659 18.0058 7.01569 17.9318L7.07188 17.8473L7.00233 17.8011L6.11714 19.1338L6.18669 19.18L6.24287 19.0954C6.29031 19.0239 6.3403 18.9759 6.39283 18.9512C6.44494 18.9244 6.49186 18.9149 6.5336 18.9228C6.57533 18.9306 6.66136 18.9778 6.79169 19.0644L8.46837 20.1781C8.59619 20.263 8.67056 20.3223 8.69148 20.3561C8.72243 20.4019 8.73586 20.4469 8.73177 20.4912C8.72812 20.5538 8.70174 20.622 8.65263 20.696L8.59645 20.7806L8.666 20.8267L9.55119 19.494Z" fill="white"/>
<path d="M4.79184 21.4106L7.18573 21.0237L6.03868 20.3795C5.87866 20.2896 5.75755 20.2518 5.67537 20.266C5.56393 20.2862 5.46791 20.3712 5.38729 20.5209L5.31449 20.48L5.80952 19.5986L5.88232 19.6394C5.83339 19.7604 5.80969 19.8471 5.8112 19.8997C5.81213 19.9503 5.83257 20.0014 5.87252 20.0532C5.91188 20.1029 5.99453 20.1631 6.12045 20.2339L8.34175 21.4814L8.30418 21.5483L5.06962 22.105L6.7656 23.0574C6.91907 23.1436 7.04221 23.1671 7.13503 23.1277C7.22859 23.0871 7.30078 23.0216 7.35161 22.931L7.38697 22.8681L7.45976 22.909L6.92827 23.8553L6.85547 23.8145C6.93667 23.6668 6.96396 23.5476 6.93735 23.4567C6.91073 23.3658 6.8266 23.2806 6.68494 23.2011L4.80204 22.1436L4.69917 22.1609C4.59666 22.1775 4.52211 22.2012 4.4755 22.232C4.42889 22.2627 4.38144 22.318 4.33314 22.3979L4.26035 22.357L4.79184 21.4106Z" fill="white"/>
<path fill-rule="evenodd" clip-rule="evenodd" d="M6.76844 24.2509L6.69278 24.2156L6.64986 24.3076C6.61362 24.3853 6.57174 24.4413 6.52421 24.4756C6.47597 24.5079 6.4303 24.5239 6.38722 24.5238C6.34478 24.5222 6.25266 24.4884 6.11087 24.4223L4.28663 23.5716C4.14757 23.5067 4.06517 23.4592 4.03944 23.4289C4.00262 23.3868 3.98293 23.3436 3.98038 23.2993C3.97464 23.2368 3.99052 23.1654 4.02803 23.085L4.07095 22.9929L3.99528 22.9576L3.3191 24.4076L3.39477 24.4429L3.43769 24.3509C3.47393 24.2732 3.51618 24.2182 3.56442 24.1859C3.61195 24.1516 3.65693 24.1353 3.69937 24.1368C3.74181 24.1383 3.83393 24.1721 3.97573 24.2383L5.79996 25.089C5.93903 25.1538 6.02142 25.2014 6.04715 25.2316C6.08461 25.2723 6.10461 25.3149 6.10717 25.3592C6.11247 25.4168 6.09937 25.482 6.06787 25.5549L6.0399 25.5442C5.99935 25.6285 5.94811 25.6861 5.8862 25.7171C5.80431 25.7581 5.63353 25.785 5.37387 25.7978L2.63564 25.9251L2.62023 25.9651L4.50494 27.8643C4.68519 28.045 4.7977 28.1818 4.84246 28.2749C4.88582 28.3674 4.89547 28.4678 4.87142 28.5762L4.94933 28.6063L5.31529 27.6566L5.23739 27.6266C5.16881 27.7711 5.11599 27.8579 5.07893 27.8872C5.01614 27.9371 4.94475 27.9467 4.86473 27.9159C4.80437 27.8926 4.73544 27.8435 4.65794 27.7685L4.42625 27.5413L4.81494 26.5328L5.22921 26.5183C5.337 26.5147 5.39776 26.5139 5.41147 26.516C5.44139 26.5178 5.46898 26.5236 5.49425 26.5334C5.53636 26.5496 5.56269 26.5775 5.57325 26.617C5.58682 26.6738 5.57224 26.7577 5.52951 26.8686L5.5076 26.9254L5.5855 26.9555L6.07254 25.6917L6.09227 25.7009L6.76844 24.2509ZM4.63153 26.5443L3.4843 26.5907L4.29884 27.4076L4.63153 26.5443Z" fill="white"/>
<path fill-rule="evenodd" clip-rule="evenodd" d="M3.78778 30.6973L2.96262 30.4641L3.01725 30.2708L4.62744 29.7012L4.88952 28.774L4.80918 28.7513C4.78274 28.8282 4.7387 28.89 4.67704 28.9367C4.63415 28.9668 4.53518 29.0099 4.38015 29.0662L3.18336 29.4923C3.18922 29.3001 3.16139 29.1414 3.09987 29.0162C3.00219 28.8197 2.84478 28.6908 2.62763 28.6294C2.44957 28.5791 2.27994 28.5874 2.11875 28.6544C1.9561 28.721 1.82684 28.8299 1.73098 28.981C1.63511 29.1321 1.53685 29.3857 1.43619 29.7418L1.0495 31.1099L1.12985 31.1326C1.1679 30.9979 1.20619 30.9095 1.24471 30.8672C1.28324 30.825 1.32615 30.8004 1.37345 30.7934C1.41971 30.7846 1.52246 30.8027 1.68171 30.8477L3.5926 31.3878C3.75184 31.4329 3.84886 31.4712 3.88367 31.5029C3.91888 31.5332 3.94256 31.5767 3.95471 31.6332C3.96582 31.688 3.95214 31.7834 3.91367 31.9194L3.99402 31.9422L4.41998 30.4352L4.33964 30.4124C4.30158 30.5471 4.2633 30.6355 4.22477 30.6778C4.18625 30.7201 4.14386 30.7456 4.0976 30.7544C4.05029 30.7614 3.94702 30.7423 3.78778 30.6973ZM2.80845 30.4205L1.51859 30.0559L1.58427 29.8236C1.65015 29.5905 1.75138 29.437 1.88797 29.363C2.02497 29.2876 2.20566 29.2816 2.43004 29.3451C2.58494 29.3889 2.7027 29.4534 2.78333 29.5387C2.86291 29.6222 2.90741 29.7192 2.91681 29.8297C2.92477 29.9398 2.90031 30.0955 2.84343 30.2967L2.80845 30.4205Z" fill="white"/>
<path d="M1.78553 33.4847L3.30214 32.6642C3.51562 32.5482 3.66541 32.4422 3.7515 32.3462C3.81301 32.2762 3.85163 32.1976 3.86736 32.1102L3.94953 32.125L3.66715 33.6929L3.58498 33.6781C3.59396 33.5773 3.58988 33.5109 3.57274 33.4787C3.55587 33.4451 3.53114 33.4254 3.49857 33.4195C3.43639 33.4083 3.30716 33.4554 3.11088 33.5606L2.11815 34.0949L2.19143 34.2228L3.01313 34.3708C3.17007 34.399 3.26938 34.4077 3.31108 34.3969C3.35277 34.3861 3.39222 34.358 3.42941 34.3127C3.46513 34.2672 3.49299 34.1889 3.51299 34.0779L3.59516 34.0927L3.32157 35.6117L3.2394 35.5969L3.2574 35.497C3.27313 35.4096 3.27025 35.3365 3.24876 35.2776C3.23497 35.2354 3.20477 35.1994 3.15816 35.1696C3.12556 35.1469 3.03375 35.1219 2.88274 35.0947L0.901769 34.738C0.747792 34.7102 0.65009 34.701 0.608663 34.7104C0.567235 34.7197 0.527923 34.7471 0.490727 34.7923C0.452317 34.8359 0.425512 34.8998 0.410313 34.9842L0.392314 35.0841L0.310144 35.0693L0.580126 33.5703L0.662296 33.5851C0.643898 33.6872 0.644704 33.7676 0.664716 33.8263C0.67851 33.8685 0.707837 33.9051 0.752695 33.9361C0.786509 33.9606 0.879664 33.9865 1.03216 34.014L1.96935 34.1828L1.26666 32.9029C1.16881 32.7248 1.08213 32.6289 1.00663 32.6153C0.950364 32.6052 0.900215 32.629 0.856177 32.6868C0.834025 32.7165 0.809129 32.7953 0.781489 32.9233L0.699318 32.9085L0.910904 31.7337L0.993075 31.7485C0.981545 31.8549 0.98586 31.9413 1.00602 32.0076C1.02496 32.0722 1.10232 32.2283 1.2381 32.4759L1.78553 33.4847Z" fill="white"/>
<path d="M0 38.7925L0.126453 37.218L0.209678 37.2247L0.203355 37.3034C0.193841 37.4218 0.200024 37.5046 0.221903 37.5516C0.242403 37.597 0.273613 37.6312 0.315534 37.6542C0.357576 37.6757 0.46557 37.6934 0.639516 37.7074L2.13306 37.8274C2.40597 37.8493 2.58829 37.8435 2.68002 37.8102C2.77186 37.7753 2.85082 37.713 2.91689 37.6232C2.98296 37.5334 3.02177 37.4165 3.03333 37.2726C3.04658 37.1076 3.0211 36.9645 2.9569 36.8431C2.89131 36.7201 2.79558 36.6249 2.6697 36.5574C2.54393 36.4885 2.3191 36.441 1.9952 36.415L0.751337 36.3151C0.614879 36.3041 0.516264 36.3105 0.455494 36.3343C0.394724 36.3581 0.351346 36.3909 0.325361 36.4326C0.285452 36.4973 0.26056 36.5911 0.250685 36.7141L0.16746 36.7074L0.252184 35.6525L0.335408 35.6591L0.33035 35.7221C0.323485 35.8076 0.335009 35.8802 0.364922 35.94C0.394835 35.9997 0.443258 36.0451 0.510189 36.0761C0.556609 36.0995 0.642049 36.1161 0.766511 36.1261L1.9249 36.2192C2.28329 36.248 2.54004 36.2927 2.69513 36.3535C2.85035 36.4127 2.98734 36.5392 3.10611 36.7329C3.22488 36.9265 3.27155 37.1815 3.24614 37.4979C3.22495 37.7619 3.17333 37.963 3.09129 38.1013C2.97954 38.29 2.84544 38.4188 2.68898 38.4878C2.53253 38.5567 2.32759 38.581 2.07416 38.5606L0.580625 38.4407C0.405179 38.4266 0.29568 38.4276 0.252127 38.4437C0.207075 38.4597 0.169876 38.4907 0.14053 38.5366C0.111184 38.5826 0.0920825 38.6701 0.0832249 38.7992L0 38.7925Z" fill="white"/>
<path d="M43.7447 0.120283L45.1008 2.1306L45.204 0.819089C45.2184 0.636122 45.2019 0.510329 45.1544 0.44171C45.0893 0.349062 44.9719 0.297571 44.8022 0.287237L44.8087 0.204002L45.8165 0.283296L45.81 0.366531C45.6797 0.37288 45.591 0.387782 45.5439 0.411238C45.4984 0.433311 45.4606 0.473339 45.4303 0.531323C45.4017 0.587924 45.3818 0.688212 45.3704 0.832186L45.1706 3.37198L45.0941 3.36596L43.2311 0.663863L43.0785 2.60302C43.0647 2.77848 43.0951 2.90009 43.1698 2.96783C43.2459 3.03569 43.3357 3.07369 43.4392 3.08184L43.5112 3.0875L43.5047 3.17074L42.4226 3.0856L42.4291 3.00237C42.5972 3.01408 42.7169 2.98879 42.7882 2.9265C42.8595 2.8642 42.9016 2.75207 42.9143 2.5901L43.0837 0.437231L43.0248 0.351113C42.9667 0.265053 42.9139 0.207329 42.8664 0.17794C42.8189 0.14855 42.7488 0.128698 42.6561 0.118383L42.6626 0.0351477L43.7447 0.120283Z" fill="white"/>
<path fill-rule="evenodd" clip-rule="evenodd" d="M50.5898 1.51093C50.3532 1.15348 49.9943 0.934446 49.5133 0.85383C49.0749 0.745133 48.6733 0.808354 48.3085 1.04349C47.9454 1.27746 47.7181 1.61694 47.6265 2.06193C47.5449 2.45828 47.5907 2.82483 47.7641 3.16156C47.9835 3.58766 48.3629 3.85623 48.9022 3.96727C49.44 4.078 49.8957 3.97216 50.2692 3.64974C50.5512 3.40675 50.7313 3.09518 50.8096 2.71503C50.9012 2.27005 50.828 1.86868 50.5898 1.51093ZM48.7987 1.29189C48.9993 1.04136 49.2366 0.944313 49.5107 1.00074C49.6595 1.03139 49.7823 1.09891 49.8791 1.20331C49.9773 1.30801 50.0429 1.46667 50.076 1.67928C50.1093 1.89042 50.0851 2.19417 50.0035 2.59053C49.935 2.92353 49.8432 3.18648 49.7282 3.37937C49.6135 3.57079 49.4817 3.7003 49.3326 3.7679C49.2157 3.82064 49.0814 3.83138 48.9297 3.80014C48.7042 3.75372 48.5465 3.63215 48.4564 3.43545C48.327 3.15384 48.315 2.75739 48.4202 2.2461C48.5088 1.81585 48.635 1.49778 48.7987 1.29189Z" fill="white"/>
<path d="M52.8864 1.92247L52.5278 3.12715L52.6122 3.15226C52.742 3.19087 52.8537 3.20295 52.9475 3.18848C53.0413 3.174 53.13 3.129 53.2137 3.05345C53.2988 2.97834 53.3735 2.86477 53.4375 2.71275L53.5132 2.73528L53.0749 4.20815L52.9992 4.18563C53.0546 3.89919 53.0341 3.69376 52.9378 3.56933C52.8432 3.44389 52.7188 3.35822 52.5646 3.3123L52.4802 3.2872L52.2131 4.18477C52.1685 4.33472 52.1485 4.4308 52.1532 4.47301C52.1594 4.51565 52.1819 4.55847 52.2209 4.60146C52.2618 4.64345 52.3233 4.67667 52.4055 4.70113L52.5028 4.73009L52.479 4.81012L50.9456 4.35377L50.9694 4.27375L51.0667 4.30271C51.1518 4.32803 51.2248 4.33327 51.2857 4.31844C51.3292 4.30941 51.3684 4.28339 51.4031 4.24037C51.4293 4.21049 51.4643 4.12201 51.508 3.97494L52.0822 2.04571C52.1268 1.89576 52.1467 1.79968 52.142 1.75747C52.1373 1.71526 52.1145 1.67316 52.0737 1.63118C52.0347 1.58818 51.9741 1.55445 51.8919 1.52999L51.7946 1.50103L51.8184 1.42101L54.2926 2.15734L54.0423 2.99867L53.9536 2.97228C53.9922 2.76874 53.9838 2.60694 53.9285 2.48689C53.8747 2.36727 53.7749 2.2646 53.6294 2.1789C53.5493 2.13153 53.3925 2.07308 53.1589 2.00357L52.8864 1.92247Z" fill="white"/>
<path d="M57.6602 5.53372L57.019 3.19506L56.0211 2.76802L55.9883 2.84478C56.0728 2.88424 56.1329 2.9255 56.1685 2.96854C56.2041 3.01159 56.2356 3.08317 56.2631 3.18331L56.2913 3.28374L55.4417 5.26909C55.3778 5.41846 55.302 5.51124 55.2146 5.54744C55.1271 5.58363 55.0056 5.56927 54.8501 5.50437L54.8172 5.58112L55.8151 6.00816L55.8479 5.93141L55.7816 5.903C55.6861 5.86216 55.6132 5.7974 55.5628 5.70874C55.5138 5.62066 55.5239 5.49572 55.5931 5.3339L56.3584 3.54563L57.2584 6.70194L57.329 6.73212L58.3313 4.38995C58.3881 4.25718 58.4392 4.16856 58.4844 4.12409C58.5316 4.07883 58.5802 4.05303 58.6304 4.04668C58.6825 4.03954 58.7713 4.05381 58.8968 4.0895L58.9296 4.01274L58.0002 3.615L57.9674 3.69176C58.1249 3.75588 58.2196 3.84225 58.2517 3.95087C58.2746 4.03106 58.25 4.15552 58.1778 4.32425L57.6602 5.53372Z" fill="white"/>
<path d="M60.3899 4.97241L59.8007 6.06989L59.8544 6.09871C60.0254 6.19049 60.1781 6.20334 60.3127 6.13725C60.4472 6.07115 60.5812 5.93909 60.7149 5.74105L60.7904 5.7816L60.0326 7.19322L59.9571 7.15266C60.0237 6.99037 60.0575 6.84631 60.0585 6.72048C60.0608 6.59535 60.037 6.49808 59.9872 6.42866C59.9381 6.35791 59.8493 6.28802 59.7207 6.21901L59.313 6.9785C59.2333 7.12695 59.1905 7.22094 59.1847 7.26048C59.1801 7.30074 59.1894 7.34071 59.2125 7.38042C59.2356 7.42013 59.2855 7.46062 59.3624 7.50188L59.5235 7.58834C59.7753 7.72352 60.0081 7.77336 60.2218 7.73783C60.4368 7.70301 60.6415 7.5841 60.8359 7.3811L60.9094 7.42058L60.3282 8.21239L57.998 6.96153L58.0375 6.88797L58.1269 6.936C58.2052 6.97798 58.2756 6.99786 58.3382 6.99564C58.3827 6.99558 58.4263 6.978 58.469 6.9429C58.5007 6.91891 58.5528 6.83932 58.6253 6.70412L59.5774 4.93066C59.6428 4.80871 59.6797 4.73205 59.688 4.70065C59.6997 4.64715 59.6944 4.5982 59.6721 4.5538C59.6417 4.48965 59.5827 4.43409 59.4952 4.38713L59.4057 4.33911L59.4452 4.26554L61.7018 5.47691L61.2738 6.27418L61.1983 6.23362C61.2645 6.01814 61.2852 5.84913 61.2605 5.72659C61.2371 5.60477 61.1724 5.48982 61.0665 5.38175C61.0051 5.31804 60.8723 5.2314 60.6682 5.12183L60.3899 4.97241Z" fill="white"/>
<path d="M63.7145 6.72021L62.3904 5.85894L62.3448 5.92893C62.4541 5.99821 62.5219 6.05669 62.5484 6.10438C62.5748 6.15207 62.5843 6.19953 62.5769 6.24676C62.5703 6.29273 62.519 6.38949 62.4231 6.53704L61.6061 7.79306C61.4675 8.00618 61.3912 8.19794 61.3773 8.36834C61.3633 8.53874 61.4127 8.71803 61.5254 8.90619C61.6079 9.0442 61.7602 9.18539 61.9821 9.32976C62.2482 9.50283 62.4947 9.58329 62.7215 9.57113C62.9484 9.55896 63.1248 9.49876 63.2508 9.39051C63.3782 9.28309 63.5398 9.07868 63.7359 8.77728L64.3695 7.80311C64.4376 7.69844 64.493 7.63126 64.5356 7.60157C64.5948 7.55751 64.6577 7.53656 64.7245 7.53872C64.7913 7.54089 64.8607 7.56535 64.9325 7.6121L64.9855 7.64655L65.031 7.57656L64.1439 6.99951L64.0983 7.0695C64.2018 7.13676 64.2724 7.20335 64.3103 7.26927C64.3345 7.31197 64.3427 7.36571 64.3346 7.43047C64.3266 7.49524 64.2853 7.585 64.2106 7.69976L63.5302 8.74581C63.353 9.0182 63.2042 9.19326 63.0836 9.27098C62.9643 9.34953 62.835 9.38833 62.6956 9.38741C62.5583 9.38604 62.4203 9.34024 62.2816 9.25001C62.1606 9.17127 62.0763 9.08146 62.0288 8.98061C61.9814 8.87975 61.9642 8.78063 61.9773 8.68326C61.9916 8.58671 62.0735 8.42368 62.2227 8.19417L63.0397 6.93815C63.1349 6.79186 63.2019 6.70536 63.2408 6.67863C63.281 6.65272 63.3259 6.64157 63.3756 6.64518C63.4274 6.64835 63.5031 6.68234 63.6027 6.74714L63.6689 6.7902L63.7145 6.72021Z" fill="white"/>
<path fill-rule="evenodd" clip-rule="evenodd" d="M65.3384 9.90126L64.8076 10.5747C64.7051 10.7046 64.6481 10.7928 64.6364 10.8392C64.6269 10.8853 64.6343 10.9342 64.6586 10.986C64.6829 11.0377 64.75 11.1069 64.8599 11.1935L64.8082 11.2591L63.5784 10.2896L63.6301 10.224C63.7411 10.3115 63.8241 10.3606 63.8789 10.3713C63.9358 10.3817 63.985 10.3764 64.0264 10.3554C64.069 10.3354 64.1416 10.2604 64.244 10.1304L65.4734 8.57095C65.5758 8.44099 65.6318 8.35296 65.6413 8.30684C65.653 8.26047 65.6467 8.21141 65.6223 8.15966C65.598 8.10791 65.5309 8.03873 65.421 7.95212L65.4727 7.88655L66.5891 8.76665C66.8798 8.99576 67.0766 9.18348 67.1796 9.32982C67.2826 9.47616 67.3338 9.63721 67.3332 9.81295C67.3335 9.98752 67.2764 10.1475 67.1618 10.2928C67.0221 10.47 66.8429 10.5662 66.624 10.5814C66.4847 10.5904 66.3274 10.5554 66.1521 10.4766L66.0885 11.7454C66.0813 11.9101 66.0833 12.0181 66.0947 12.0692C66.1143 12.144 66.1546 12.2084 66.2156 12.2622L66.1639 12.3278L65.4072 11.7312L65.4961 10.0256L65.3384 9.90126ZM66.2674 8.72279L65.4376 9.77544L65.5386 9.85506C65.7028 9.98452 65.8373 10.0666 65.9421 10.1013C66.0479 10.1349 66.1545 10.1308 66.262 10.0892C66.3717 10.0473 66.4764 9.96312 66.576 9.8367C66.7204 9.65358 66.7839 9.48432 66.7666 9.32891C66.7504 9.17443 66.6472 9.02221 66.457 8.87227L66.2674 8.72279Z" fill="white"/>
<path fill-rule="evenodd" clip-rule="evenodd" d="M70.2036 12.4609C70.1924 12.0323 70.0043 11.6563 69.6392 11.3329C69.3251 11.0083 68.9511 10.849 68.5171 10.855C68.0852 10.8609 67.7125 11.0282 67.3989 11.3569C67.1195 11.6497 66.9641 11.9848 66.9325 12.3622C66.8927 12.8398 67.0719 13.2687 67.4703 13.6488C67.8676 14.0278 68.3101 14.1797 68.7978 14.1043C69.1657 14.0478 69.4836 13.8791 69.7515 13.5983C70.0651 13.2696 70.2158 12.8904 70.2036 12.4609ZM68.8011 11.3255C69.104 11.2194 69.3566 11.263 69.5591 11.4561C69.669 11.561 69.7373 11.6834 69.764 11.8232C69.7918 11.9641 69.7633 12.1334 69.6786 12.3312C69.5949 12.5278 69.4134 12.7726 69.1341 13.0654C68.8994 13.3114 68.6822 13.4857 68.4824 13.5883C68.2837 13.6898 68.1032 13.7296 67.941 13.7079C67.8139 13.6907 67.6944 13.6286 67.5823 13.5216C67.4157 13.3628 67.3464 13.1761 67.3744 12.9615C67.4139 12.6541 67.6139 12.3116 67.9743 11.9339C68.2775 11.6161 68.5531 11.4133 68.8011 11.3255Z" fill="white"/>
<path d="M72.6964 14.5073L71.9497 15.2026L71.8883 15.1333C72.0508 14.931 72.1331 14.7143 72.1352 14.4832C72.1395 14.2522 72.0758 14.0624 71.944 13.9138C71.8422 13.799 71.7304 13.7353 71.6087 13.7226C71.489 13.7101 71.3892 13.7393 71.3093 13.8102C71.2586 13.8551 71.2241 13.9068 71.2056 13.9654C71.1817 14.0449 71.1757 14.1437 71.1878 14.2616C71.1976 14.3475 71.24 14.528 71.3151 14.8032C71.421 15.1878 71.4568 15.4788 71.4225 15.676C71.3873 15.8721 71.2943 16.037 71.1434 16.1708C70.9521 16.3404 70.7208 16.4118 70.4496 16.3848C70.1806 16.358 69.9442 16.2298 69.7406 16.0001C69.6768 15.9281 69.6237 15.8535 69.5814 15.7764C69.5392 15.6992 69.4954 15.5943 69.4501 15.4616C69.4247 15.3876 69.3965 15.3331 69.3656 15.2983C69.3396 15.269 69.3009 15.248 69.2495 15.2353C69.198 15.2226 69.1403 15.2266 69.0761 15.2473L69.0207 15.1848L69.8852 14.4183L69.9406 14.4808C69.7414 14.7459 69.64 15.0057 69.6364 15.2602C69.635 15.5148 69.7066 15.7237 69.8513 15.8869C69.9631 16.013 70.0863 16.0827 70.2208 16.0961C70.3563 16.1107 70.4697 16.0775 70.5609 15.9967C70.6149 15.9488 70.6543 15.8877 70.679 15.8136C70.7047 15.7405 70.7141 15.6548 70.7072 15.5563C70.7015 15.4568 70.6693 15.3004 70.6107 15.0869C70.5285 14.7879 70.483 14.5608 70.4742 14.4058C70.4654 14.2507 70.4835 14.109 70.5286 13.9806C70.5746 13.8534 70.651 13.7424 70.758 13.6475C70.9403 13.4859 71.155 13.4151 71.4021 13.4353C71.6492 13.4555 71.8631 13.5674 72.0437 13.7712C72.1096 13.8455 72.1645 13.9255 72.2083 14.0112C72.2417 14.0761 72.2733 14.1627 72.303 14.2711C72.3349 14.3796 72.3643 14.449 72.3912 14.4794C72.4172 14.5087 72.4466 14.5238 72.4796 14.5247C72.5126 14.5256 72.5699 14.5029 72.6515 14.4567L72.6964 14.5073Z" fill="white"/>
<path d="M74.2116 16.5304L73.2664 15.2649L73.1995 15.3148C73.2781 15.4176 73.3216 15.4959 73.3299 15.5498C73.3382 15.6036 73.3308 15.6515 73.3075 15.6932C73.2855 15.7341 73.2039 15.8072 73.0629 15.9125L71.8624 16.8091C71.6587 16.9613 71.5209 17.1149 71.449 17.27C71.3771 17.4251 71.3615 17.6104 71.4023 17.8259C71.4321 17.9839 71.5262 18.169 71.6846 18.3811C71.8745 18.6354 72.078 18.7961 72.2951 18.863C72.5122 18.9299 72.6986 18.9344 72.8543 18.8763C73.0109 18.8195 73.2332 18.6835 73.5212 18.4683L74.4524 17.7729C74.5524 17.6982 74.6275 17.6543 74.6778 17.6412C74.7486 17.6202 74.8149 17.6223 74.8768 17.6474C74.9388 17.6725 74.9954 17.7194 75.0467 17.7881L75.0845 17.8387L75.1514 17.7888L74.5181 16.9408L74.4512 16.9908C74.525 17.0896 74.5683 17.1765 74.5811 17.2515C74.5892 17.2999 74.5782 17.3532 74.5483 17.4112C74.5184 17.4692 74.4486 17.5391 74.3389 17.6211L73.3391 18.3678C73.0788 18.5622 72.8786 18.6751 72.7386 18.7064C72.5996 18.7389 72.4648 18.7307 72.3343 18.6817C72.2059 18.633 72.0922 18.5423 71.9932 18.4097C71.9068 18.294 71.8587 18.1806 71.849 18.0696C71.8393 17.9586 71.8574 17.8596 71.9034 17.7727C71.9502 17.6871 72.0832 17.5624 72.3026 17.3985L73.5031 16.5019C73.6429 16.3975 73.7357 16.3395 73.7815 16.3278C73.8281 16.3174 73.8741 16.3225 73.9195 16.343C73.967 16.3639 74.0263 16.4219 74.0975 16.5171L74.1447 16.5804L74.2116 16.5304Z" fill="white"/>
<path fill-rule="evenodd" clip-rule="evenodd" d="M74.6363 20.0746L73.9051 20.5225C73.764 20.609 73.6799 20.6719 73.6529 20.7114C73.628 20.7513 73.618 20.7998 73.6229 20.8568C73.6278 20.9138 73.6668 21.0019 73.7399 21.1212L73.6687 21.1648L72.8507 19.8294L72.9219 19.7858C72.9958 19.9064 73.0566 19.9811 73.1043 20.0101C73.1541 20.0396 73.2021 20.0517 73.2482 20.0463C73.2951 20.0423 73.3892 19.9971 73.5303 19.9106L75.2236 18.8734C75.3647 18.787 75.4477 18.7238 75.4727 18.6838C75.4996 18.6443 75.5107 18.5961 75.5058 18.5391C75.5009 18.4822 75.4619 18.394 75.3888 18.2747L75.46 18.2311L76.2026 19.4434C76.3959 19.759 76.5155 20.0032 76.5615 20.1762C76.6074 20.3491 76.5997 20.518 76.5382 20.6826C76.4781 20.8465 76.3691 20.9767 76.2113 21.0734C76.0189 21.1913 75.8174 21.2194 75.6068 21.1579C75.473 21.1181 75.3376 21.0308 75.2003 20.8961L74.7014 22.0644C74.6375 22.2165 74.602 22.3185 74.595 22.3704C74.5875 22.4473 74.603 22.5216 74.6416 22.5933L74.5704 22.6369L74.0671 21.8152L74.7412 20.2459L74.6363 20.0746ZM75.9159 19.2908L74.7729 19.9909L74.8401 20.1006C74.9493 20.2789 75.0471 20.4025 75.1334 20.4714C75.2209 20.5395 75.3224 20.5726 75.4377 20.5708C75.5551 20.5695 75.6824 20.5268 75.8197 20.4427C76.0185 20.3209 76.1367 20.1841 76.1743 20.0323C76.2126 19.8818 76.1686 19.7033 76.042 19.4967L75.9159 19.2908Z" fill="white"/>
<path d="M77.8399 24.629L78.8097 24.157L78.7732 24.0819C78.6829 24.0924 78.6157 24.0883 78.5715 24.0697C78.5286 24.0504 78.498 24.0218 78.4795 23.9839C78.4677 23.9596 78.4542 23.8683 78.4391 23.71C78.4259 23.5524 78.4103 23.4412 78.3922 23.3764C78.3605 23.2563 78.3114 23.128 78.2449 22.9914C78.0303 22.5504 77.7095 22.254 77.2825 22.102C76.8556 21.9501 76.4352 21.9749 76.0212 22.1764C75.7899 22.2889 75.604 22.438 75.4634 22.6235C75.3549 22.7684 75.2744 22.9347 75.2219 23.1225C75.1714 23.311 75.1522 23.5086 75.1641 23.7153C75.178 23.9227 75.2485 24.1569 75.3756 24.418C75.475 24.6222 75.5911 24.8092 75.7238 24.9788C75.8559 25.1504 76.0039 25.3051 76.168 25.4427L76.7401 25.1643C76.8402 25.1155 76.9061 25.091 76.9377 25.0907C76.997 25.0886 77.0463 25.1023 77.0856 25.1316C77.127 25.1617 77.1758 25.2258 77.2319 25.3239L77.307 25.2874L76.6562 23.9503L76.5812 23.9868L76.6157 24.0578C76.648 24.1241 76.6625 24.1865 76.6591 24.245C76.6565 24.3049 76.6425 24.3501 76.6173 24.3808C76.5935 24.4108 76.5274 24.4522 76.4192 24.5048L75.847 24.7833C75.7844 24.7234 75.7286 24.662 75.6794 24.5989C75.6323 24.5365 75.5927 24.4721 75.5604 24.4058C75.4676 24.2151 75.4339 24.0274 75.4594 23.8426C75.4856 23.6592 75.583 23.488 75.7516 23.329C75.9201 23.17 76.1363 23.0263 76.4 22.898C76.6178 22.792 76.844 22.717 77.0786 22.6731C77.3132 22.6292 77.5213 22.6476 77.7027 22.7282C77.8856 22.8082 78.027 22.951 78.1271 23.1566C78.2318 23.3717 78.2592 23.6034 78.2095 23.8518C78.1597 24.1003 78.0243 24.3343 77.8033 24.554L77.8399 24.629Z" fill="white"/>
<path d="M79.3937 26.2477L78.2274 26.6851L78.2488 26.7422C78.317 26.9239 78.4234 27.0342 78.5682 27.0731C78.7129 27.112 78.9008 27.101 79.1318 27.04L79.1619 27.1203L77.6618 27.683L77.6317 27.6027C77.7887 27.5245 77.909 27.4384 77.9927 27.3444C78.0768 27.2517 78.1231 27.1629 78.1313 27.0779C78.141 26.9923 78.1202 26.8812 78.069 26.7446L77.2619 27.0473C77.1041 27.1064 77.01 27.149 76.9795 27.1749C76.9496 27.2021 76.9303 27.2383 76.9214 27.2834C76.9126 27.3285 76.9236 27.3919 76.9542 27.4736L77.0184 27.6447C77.1188 27.9123 77.261 28.1032 77.4452 28.2173C77.6299 28.3328 77.8623 28.3782 78.1422 28.3535L78.1715 28.4317L77.2126 28.6443L76.2838 26.1681L76.362 26.1388L76.3977 26.2339C76.4288 26.317 76.4687 26.3783 76.5173 26.4179C76.5508 26.4472 76.5951 26.4627 76.6504 26.4644C76.69 26.4672 76.7817 26.4417 76.9254 26.3878L78.81 25.6809C78.9396 25.6323 79.0179 25.599 79.0448 25.5808C79.0888 25.5483 79.1171 25.5079 79.1296 25.4599C79.1489 25.3916 79.1412 25.3109 79.1063 25.2179L79.0706 25.1229L79.1488 25.0936L80.0482 27.4916L79.201 27.8094L79.1709 27.7291C79.3626 27.6106 79.4896 27.4971 79.5517 27.3886C79.6144 27.2816 79.6415 27.1525 79.633 27.0014C79.6288 26.9131 79.586 26.7604 79.5047 26.5435L79.3937 26.2477Z" fill="white"/>
<path fill-rule="evenodd" clip-rule="evenodd" d="M80.6981 31.0563C80.9094 30.6833 80.9421 30.2642 80.7959 29.7989C80.6942 29.3588 80.4558 29.0295 80.0809 28.8108C79.7078 28.5932 79.3021 28.5444 78.8639 28.6644C78.4736 28.7713 78.1677 28.9783 77.9461 29.2854C77.6657 29.6741 77.5982 30.134 77.7436 30.6651C77.8886 31.1947 78.1895 31.5529 78.6462 31.7398C78.9906 31.881 79.3499 31.9004 79.7243 31.7979C80.1625 31.6779 80.4871 31.4307 80.6981 31.0563ZM80.0816 29.3604C80.3958 29.4257 80.5899 29.5932 80.6638 29.8631C80.7039 30.0097 80.6994 30.1497 80.6502 30.2833C80.6014 30.4183 80.4897 30.5487 80.3151 30.6745C80.142 30.7999 79.8603 30.916 79.47 31.0229C79.1421 31.1127 78.8661 31.1501 78.642 31.135C78.4194 31.1195 78.2442 31.0606 78.1164 30.9584C78.0164 30.8781 77.946 30.7633 77.9051 30.6138C77.8443 30.3918 77.8811 30.1961 78.0157 30.0267C78.2081 29.7837 78.556 29.5933 79.0595 29.4555C79.4832 29.3394 79.8239 29.3078 80.0816 29.3604Z" fill="white"/>
<path d="M81.5425 33.2056L79.9217 35.0094L81.219 34.791C81.4 34.7605 81.518 34.7139 81.5731 34.6513C81.6471 34.5656 81.6686 34.4392 81.6374 34.272L81.7197 34.2582L81.8876 35.2551L81.8052 35.2689C81.7674 35.1441 81.7314 35.0617 81.6972 35.0217C81.6648 34.9829 81.6168 34.9559 81.5532 34.9407C81.4913 34.9267 81.3892 34.9317 81.2468 34.9557L78.7345 35.3787L78.7217 35.303L80.8904 32.8395L78.9723 33.1625C78.7987 33.1917 78.6881 33.2507 78.6406 33.3396C78.5932 33.4299 78.5782 33.5263 78.5954 33.6287L78.6074 33.6999L78.5251 33.7137L78.3448 32.6434L78.4272 32.6295C78.4566 32.7954 78.5102 32.9054 78.588 32.9594C78.6657 33.0135 78.7847 33.027 78.9449 33L81.0745 32.6414L81.1437 32.5634C81.2131 32.4861 81.2562 32.4209 81.2732 32.3677C81.2902 32.3145 81.2924 32.2416 81.2799 32.1492L81.3622 32.1353L81.5425 33.2056Z" fill="white"/>
<path d="M81.1726 37.9002L82.1868 37.789L82.181 37.7215C82.0879 37.7098 82.0284 37.6938 82.0025 37.6733C81.9766 37.6529 81.962 37.6232 81.9587 37.5842C81.9553 37.5437 81.9732 37.4705 82.0125 37.3645C82.0534 37.2598 82.0798 37.1715 82.0918 37.0995C82.1079 37.0046 82.1117 36.9076 82.1033 36.8087C82.0802 36.5374 81.9757 36.3198 81.7896 36.156C81.6036 35.9921 81.3891 35.9205 81.1463 35.9412C81.0039 35.9533 80.8762 35.9967 80.7633 36.0712C80.6505 36.1472 80.5513 36.25 80.4657 36.3796C80.3801 36.5092 80.2809 36.7184 80.1681 37.0073C80.0875 37.2135 80.0198 37.3582 79.9649 37.4413C79.9116 37.5244 79.8528 37.5875 79.7885 37.6307C79.7244 37.6754 79.6564 37.7008 79.5844 37.707C79.463 37.7173 79.3523 37.6761 79.2523 37.5835C79.1525 37.4923 79.0954 37.3628 79.0811 37.1949C79.0626 36.9776 79.13 36.7673 79.2833 36.564C79.4383 36.3621 79.6748 36.2144 79.993 36.1209L79.9859 36.0377L78.8347 36.1357L78.8418 36.2188C78.9055 36.2406 78.9543 36.2719 78.9879 36.3128C79.0216 36.3538 79.0401 36.3937 79.0434 36.4327C79.0474 36.4791 79.0374 36.5396 79.0136 36.6141C78.9706 36.7476 78.943 36.8579 78.9308 36.945C78.9185 37.0321 78.9165 37.1236 78.9247 37.2196C78.9507 37.5254 79.0636 37.7694 79.2633 37.9517C79.4646 38.1354 79.6927 38.2164 79.9475 38.1947C80.1484 38.1776 80.3215 38.101 80.4669 37.9648C80.6123 37.8271 80.7574 37.5724 80.9024 37.2008C81.0067 36.9352 81.0805 36.7651 81.124 36.6905C81.1848 36.5887 81.2485 36.513 81.3153 36.4636C81.3651 36.4276 81.4237 36.4068 81.4911 36.401C81.5976 36.392 81.695 36.4282 81.7835 36.5098C81.8736 36.5927 81.9251 36.7106 81.9381 36.8635C81.955 37.0614 81.8927 37.2516 81.7512 37.4343C81.6113 37.6183 81.4158 37.7429 81.1647 37.808L81.1726 37.9002Z" fill="white"/>
<path d="M46.8959 79.8953L45.9142 80.2303C46.0625 80.6762 46.3284 81.007 46.7119 81.2227C47.0948 81.4359 47.532 81.4906 48.0234 81.3868C48.542 81.2773 48.9399 81.0179 49.2172 80.6085C49.4945 80.1992 49.5828 79.7562 49.4821 79.2796C49.4128 78.9512 49.2598 78.6907 49.0231 78.4982C48.7889 78.3052 48.5091 78.2082 48.1839 78.2072C48.645 77.8132 48.8252 77.3779 48.7246 76.9013C48.6537 76.5655 48.4629 76.2911 48.1522 76.0781C47.7747 75.8173 47.3304 75.7409 46.8192 75.8488C46.5204 75.9119 46.262 76.0258 46.044 76.1905C45.8279 76.3522 45.6728 76.5461 45.5787 76.7724C45.4866 76.9956 45.4418 77.2785 45.4445 77.621L46.4383 77.5814C46.4154 77.3386 46.4539 77.1422 46.5537 76.9921C46.6536 76.842 46.7924 76.7482 46.9702 76.7107C47.1505 76.6726 47.3064 76.6965 47.438 76.7822C47.5696 76.8679 47.6547 77.0021 47.6933 77.1848C47.7387 77.3997 47.7011 77.5882 47.5806 77.7503C47.4595 77.91 47.2575 78.0159 46.9744 78.0679L47.0387 78.9404C47.2129 78.8495 47.3667 78.7899 47.5001 78.7618C47.7026 78.719 47.8903 78.7593 48.0634 78.8827C48.2365 79.0061 48.3507 79.1986 48.406 79.4604C48.4644 79.737 48.4367 79.9724 48.3229 80.1667C48.2117 80.3604 48.0486 80.48 47.8338 80.5253C47.6337 80.5676 47.449 80.5356 47.2796 80.4295C47.1101 80.3234 46.9823 80.1454 46.8959 79.8953Z" fill="white"/>
<path d="M33.5254 81.16L34.5582 81.415L35.894 76.0048L35.056 75.7979C34.8574 76.0971 34.5694 76.3315 34.1922 76.5009C33.8157 76.6679 33.4817 76.7623 33.1904 76.7839L32.959 77.7211C33.5128 77.6785 34.022 77.5274 34.4865 77.2677L33.5254 81.16Z" fill="white"/>
<path fill-rule="evenodd" clip-rule="evenodd" d="M37.7828 80.5505L36.7472 80.5786C36.7847 81.0426 36.9272 81.4014 37.1746 81.6549C37.4222 81.9059 37.7624 82.0493 38.195 82.0852C38.7961 82.135 39.3026 81.9516 39.7145 81.535C40.1264 81.1183 40.3743 80.4045 40.4581 79.3933C40.5405 78.3998 40.4198 77.6718 40.0959 77.2094C39.7723 76.7444 39.3301 76.4887 38.7692 76.4422C38.2536 76.3995 37.8142 76.5365 37.4511 76.8534C37.0907 77.1679 36.8873 77.6056 36.8408 78.1665C36.7962 78.7048 36.9171 79.1555 37.2036 79.5186C37.4927 79.8794 37.8549 80.0778 38.29 80.1139C38.69 80.1471 39.0361 80.02 39.3283 79.7327C39.233 80.363 39.1003 80.7724 38.9302 80.9609C38.7601 81.1494 38.5656 81.2346 38.3468 81.2165C38.1732 81.2021 38.0378 81.1402 37.9405 81.0308C37.8432 80.9215 37.7906 80.7613 37.7828 80.5505ZM39.1671 77.6452C39.3099 77.847 39.3671 78.1189 39.3388 78.461C39.3129 78.7729 39.2229 79.0035 39.0687 79.1528C38.917 79.3023 38.7393 79.3686 38.5356 79.3517C38.3243 79.3342 38.1551 79.2366 38.028 79.0589C37.9011 78.8787 37.8525 78.61 37.8821 78.2529C37.9113 77.9007 37.9964 77.6533 38.1374 77.5105C38.2811 77.3654 38.4511 77.301 38.6473 77.3172C38.8535 77.3343 39.0268 77.4437 39.1671 77.6452Z" fill="white"/>
<path fill-rule="evenodd" clip-rule="evenodd" d="M41.3981 80.8531L42.414 80.6497C42.4575 80.8562 42.5364 81.0051 42.6509 81.0963C42.7653 81.1876 42.9093 81.2256 43.0827 81.2104C43.3015 81.1911 43.4787 81.0742 43.6144 80.8596C43.75 80.645 43.8114 80.219 43.7984 79.5817C43.5591 79.9144 43.2396 80.0983 42.8398 80.1334C42.4049 80.1717 42.0143 80.0375 41.6681 79.731C41.3242 79.4218 41.1286 78.9981 41.0813 78.4601C41.032 77.8994 41.1582 77.4335 41.46 77.0624C41.7641 76.6886 42.1739 76.479 42.6893 76.4337C43.2499 76.3844 43.7292 76.5614 44.1269 76.9647C44.5245 77.3655 44.7669 78.0625 44.8543 79.0556C44.9431 80.0663 44.82 80.8119 44.4847 81.2923C44.1494 81.7728 43.6814 82.0394 43.0805 82.0923C42.6481 82.1303 42.2885 82.0466 42.0019 81.8413C41.7151 81.6334 41.5138 81.304 41.3981 80.8531ZM43.593 78.3266C43.563 77.9847 43.4604 77.7264 43.2855 77.5518C43.113 77.3769 42.9237 77.2986 42.7175 77.3167C42.5214 77.3339 42.3649 77.4262 42.2478 77.5936C42.1331 77.7583 42.0912 78.0166 42.1222 78.3685C42.1536 78.7256 42.2471 78.9821 42.4027 79.1382C42.558 79.2917 42.7413 79.3592 42.9525 79.3406C43.1562 79.3227 43.3201 79.2272 43.4442 79.0542C43.5708 78.8809 43.6204 78.6384 43.593 78.3266Z" fill="white"/>
<path d="M99.1533 13.4238H103.514V25.1221C103.514 26.9785 103.568 28.1817 103.676 28.7317C103.863 29.6157 104.305 30.3278 105.002 30.8681C105.71 31.3985 106.672 31.6637 107.89 31.6637C109.128 31.6637 110.061 31.4132 110.69 30.9123C111.318 30.4015 111.696 29.7778 111.824 29.0411C111.952 28.3045 112.016 27.0816 112.016 25.3725V13.4238H116.377V24.7685C116.377 27.3615 116.259 29.1934 116.023 30.264C115.787 31.3346 115.35 32.2383 114.712 32.9749C114.083 33.7116 113.238 34.3009 112.178 34.7429C111.117 35.1751 109.732 35.3912 108.023 35.3912C105.96 35.3912 104.393 35.1555 103.323 34.684C102.262 34.2027 101.422 33.5839 100.803 32.8276C100.185 32.0615 99.777 31.261 99.5806 30.4261C99.2957 29.1885 99.1533 27.3615 99.1533 24.9453V13.4238Z" fill="white"/>
<path d="M140.466 35.0229H135.721L133.836 30.1167H125.202L123.419 35.0229H118.793L127.206 13.4238H131.817L140.466 35.0229ZM132.436 26.4775L129.46 18.4626L126.543 26.4775H132.436Z" fill="white"/>
<path d="M142.838 35.0229V13.4238H147.081L155.921 27.8477V13.4238H159.972V35.0229H155.597L146.889 20.9378V35.0229H142.838Z" fill="white"/>
<path d="M96.9414 66.8131L105.236 45.214H108.316L117.156 66.8131H113.899L111.38 60.2715H102.349L99.9765 66.8131H96.9414ZM103.174 57.9436H110.496L108.242 51.9619C107.554 50.1448 107.044 48.6518 106.71 47.483C106.435 48.8679 106.047 50.243 105.546 51.6083L103.174 57.9436Z" fill="white"/>
<path d="M134.85 59.2401L137.708 59.9621C137.109 62.3096 136.029 64.1021 134.467 65.3397C132.915 66.5675 131.015 67.1814 128.765 67.1814C126.437 67.1814 124.542 66.7099 123.078 65.767C121.625 64.8143 120.515 63.4391 119.749 61.6417C118.992 59.8442 118.614 57.9142 118.614 55.8515C118.614 53.6022 119.041 51.6427 119.896 49.9729C120.76 48.2933 121.983 47.0213 123.564 46.157C125.156 45.2828 126.904 44.8457 128.81 44.8457C130.97 44.8457 132.788 45.3957 134.261 46.4958C135.734 47.5959 136.761 49.1429 137.34 51.1368L134.526 51.7998C134.025 50.2283 133.298 49.084 132.346 48.367C131.393 47.6499 130.194 47.2914 128.751 47.2914C127.091 47.2914 125.701 47.6892 124.581 48.4848C123.471 49.2804 122.69 50.3511 122.239 51.6967C121.787 53.0325 121.561 54.4125 121.561 55.8368C121.561 57.6735 121.826 59.2794 122.356 60.6545C122.897 62.0198 123.731 63.0413 124.861 63.7191C125.991 64.3968 127.213 64.7357 128.53 64.7357C130.131 64.7357 131.486 64.274 132.596 63.3507C133.706 62.4275 134.457 61.0573 134.85 59.2401Z" fill="white"/>
<path d="M138.872 66.8131L147.167 45.214H150.247L159.087 66.8131H155.83L153.311 60.2715H144.28L141.907 66.8131H138.872ZM145.105 57.9436H152.427L150.173 51.9619C149.485 50.1448 148.975 48.6518 148.641 47.483C148.366 48.8679 147.978 50.243 147.477 51.6083L145.105 57.9436Z" fill="white"/>
<path d="M161.37 66.8131V45.214H168.811C170.49 45.214 171.772 45.3172 172.656 45.5234C173.893 45.8083 174.949 46.3239 175.824 47.0704C176.963 48.033 177.813 49.2657 178.372 50.7685C178.942 52.2615 179.227 53.9705 179.227 55.8957C179.227 57.536 179.035 58.9897 178.652 60.2567C178.269 61.5238 177.778 62.5748 177.179 63.4097C176.58 64.2347 175.922 64.8879 175.205 65.3692C174.498 65.8407 173.638 66.1992 172.626 66.4447C171.625 66.6903 170.47 66.8131 169.164 66.8131H161.37ZM164.228 64.2642H168.84C170.264 64.2642 171.379 64.1316 172.184 63.8664C173 63.6012 173.648 63.228 174.129 62.7467C174.807 62.0689 175.332 61.1604 175.706 60.021C176.089 58.8718 176.28 57.482 176.28 55.8515C176.28 53.5924 175.907 51.8588 175.161 50.6506C174.424 49.4327 173.525 48.6174 172.464 48.2049C171.698 47.9102 170.466 47.7629 168.766 47.7629H164.228V64.2642Z" fill="white"/>
<path d="M183.234 66.8131V45.214H198.852V47.7629H186.093V54.3782H198.041V56.9123H186.093V64.2642H199.353V66.8131H183.234Z" fill="white"/>
<path d="M203.213 66.8131V45.214H207.515L212.627 60.5072C213.099 61.9314 213.443 62.9971 213.659 63.7043C213.904 62.9186 214.287 61.7645 214.808 60.242L219.979 45.214H223.825V66.8131H221.07V48.7353L214.793 66.8131H212.215L205.968 48.4259V66.8131H203.213Z" fill="white"/>
<path d="M234.521 66.8131V57.6637L226.197 45.214H229.674L233.932 51.7262C234.718 52.9441 235.449 54.1621 236.127 55.38C236.775 54.2505 237.561 52.9785 238.484 51.5641L242.669 45.214H245.998L237.379 57.6637V66.8131H234.521Z" fill="white"/>
</svg>
