<svg width="48" height="65" viewBox="0 0 48 65" fill="none" xmlns="http://www.w3.org/2000/svg">
<path d="M16.2684 44.5633C16.1455 44.8802 16.0031 45.3169 15.8346 45.8696L15.6307 46.5198L15.4344 47.174H15.3729L15.1629 46.5198L14.959 45.8614C14.7746 45.2928 14.626 44.8539 14.5115 44.5492L12.8593 40.1616H10.0039V49.6395L11.7573 49.6391V44.4734C11.7573 44.0894 11.7436 43.6283 11.7157 43.0924L11.6821 42.3978L11.6485 41.7091H11.702L11.912 42.3611L12.1221 43.0194C12.3065 43.6025 12.4551 44.0409 12.5696 44.3316L14.622 49.635H16.2206L18.2513 44.2889C18.3543 44.0064 18.5007 43.5698 18.6913 42.9767L18.8951 42.3165L19.1052 41.6564H19.1587L19.1251 42.3592L19.0915 43.0683C19.0698 43.5924 19.0579 44.0576 19.0579 44.4697V49.6354H20.8112V40.1575H17.8931L16.2684 44.5633Z" fill="white"/>
<path d="M26.6213 40.1596H22.4375V49.6375H24.1909L24.1904 46.5761H26.2569L26.6629 46.5702C27.9267 46.5702 28.7669 46.3612 29.1808 45.9445C29.5947 45.5283 29.803 44.6849 29.803 43.4176C29.803 42.1399 29.585 41.2767 29.1494 40.8319C28.7134 40.3871 27.8714 40.1595 26.6213 40.1595L26.6213 40.1596ZM27.7012 44.7829C27.4872 44.9697 26.9822 45.0654 26.1875 45.0654H24.1887V41.6771H26.364C27.1127 41.6771 27.5766 41.7728 27.7548 41.9655C27.933 42.1587 28.0223 42.6542 28.0223 43.4545C28.0219 44.1509 27.9171 44.5939 27.7013 44.7829H27.7012Z" fill="white"/>
<path d="M37.2143 40.1596H34.5062L30.4688 45.5832V47.6023H35.4592V49.6376H37.2165V47.6023H38.2765V46.213L37.2143 46.2126L37.2143 40.1596ZM35.457 46.2148H31.9029L35.4035 41.5207H35.457L35.457 46.2148Z" fill="white"/>
<path d="M47.9346 13.5873L34.6848 0H0.0625V65H47.9368V13.5873H47.9346ZM35.5225 6.60586L41.4995 12.7341H35.5225V6.60586ZM4.02476 60.9377V4.06273H31.5625V16.7992H43.9746V60.9377H4.02476Z" fill="white"/>
</svg>
