<svg width="48" height="65" viewBox="0 0 48 65" fill="none" xmlns="http://www.w3.org/2000/svg">
<path d="M16.5918 48.0698L21.6972 41.6673V40.1602H14.5948V41.6756H19.4349V41.7327L14.3711 48.1026V49.6382H21.7588V48.1247H16.5919L16.5918 48.0698Z" fill="white"/>
<path d="M22.875 40.1595H24.6283V49.6375H22.875V40.1595Z" fill="white"/>
<path d="M30.4534 40.1596H26.2695V49.6375H28.0229V46.5743H30.0894L30.4953 46.5684C31.7592 46.5684 32.5994 46.3593 33.0133 45.9427C33.4272 45.5264 33.6355 44.6831 33.6355 43.4158C33.6355 42.1381 33.4175 41.2749 32.9819 40.8301C32.5454 40.3848 31.7013 40.1595 30.4533 40.1595L30.4534 40.1596ZM31.531 44.7829C31.317 44.9697 30.812 45.0654 30.0173 45.0654H28.0185V41.6772H30.1938C30.9425 41.6772 31.4064 41.7728 31.5846 41.9655C31.7628 42.1587 31.8521 42.6542 31.8521 43.4545C31.8539 44.1509 31.7469 44.5939 31.5311 44.7829H31.531Z" fill="white"/>
<path d="M0.0664062 0V65H47.9407V13.5873L34.6887 0H0.0664062ZM35.5264 6.60562L41.5034 12.7338H35.5264V6.60562ZM4.02867 60.9375V4.0625H31.5641V16.7967H43.9762L43.9758 60.9375H4.02867Z" fill="white"/>
</svg>
