<svg width="48" height="65" viewBox="0 0 48 65" fill="none" xmlns="http://www.w3.org/2000/svg">
<path d="M16.5041 40.1596H12.3203V49.6375H14.0737L14.0732 46.5761H16.1375L16.5434 46.5702C17.8073 46.5702 18.6475 46.3612 19.0614 45.9445C19.4753 45.5283 19.6836 44.6849 19.6836 43.4176C19.6836 42.1399 19.4656 41.2767 19.03 40.8319C18.5979 40.3849 17.7559 40.1595 16.5041 40.1595L16.5041 40.1596ZM17.5836 44.7829C17.3695 44.9697 16.8645 45.0654 16.0699 45.0654H14.0728V41.6771H16.2463C16.9949 41.6771 17.4588 41.7728 17.637 41.9655C17.8152 42.1587 17.9046 42.6542 17.9046 43.4545C17.9068 44.1509 17.7998 44.5939 17.5835 44.7829H17.5836Z" fill="white"/>
<path d="M25.3476 40.1596H20.8047V49.6375H25.4028C26.8609 49.6375 27.7962 49.3002 28.2122 48.6278C28.6261 47.9535 28.8344 46.4342 28.8344 44.0696C28.8344 42.6214 28.5748 41.6076 28.0579 41.0287C27.5409 40.4501 26.6393 40.1595 25.3476 40.1595L25.3476 40.1596ZM26.6848 47.531C26.4372 47.925 25.8963 48.1241 25.0561 48.1241H22.5581V41.6749H25.1653C25.9817 41.6749 26.5009 41.864 26.7224 42.2417C26.9422 42.6234 27.0532 43.5113 27.0532 44.9068C27.0536 46.2616 26.9307 47.1348 26.6848 47.531V47.531Z" fill="white"/>
<path d="M30.1133 49.6391H31.8689V45.7435H36.0094V44.2301H31.8689V41.677H36.2349V40.1594H30.1133V49.6391Z" fill="white"/>
<path d="M47.9346 13.5873L34.6848 0H0.0625V65H47.9368V13.5873H47.9346ZM35.5225 6.60586L41.4995 12.7341H35.5225V6.60586ZM4.02476 60.9377V4.06273H31.5625V16.7992H43.9746V60.9377H4.02476Z" fill="white"/>
</svg>
