<svg width="151" height="51" viewBox="0 0 151 51" fill="none" xmlns="http://www.w3.org/2000/svg">
<path d="M11.942 44.3492C12.6642 44.1668 15.0116 47.2677 15.0116 47.2677C15.0116 47.2677 13.4281 48.1808 12.3031 48.3621C11.1868 48.542 9.5946 48.7269 9.41403 48.1797C9.27125 47.747 10.1363 47.2677 10.1363 47.2677C10.1363 47.2677 6.16383 47.0853 5.98326 45.626C5.92019 45.1163 6.70553 44.5316 6.70553 44.5316C6.70553 44.5316 2.91363 43.0724 2.73306 41.978C2.6396 41.4115 3.99703 41.2484 3.99703 41.2484C3.99703 41.2484 0.92739 39.4243 0.746825 38.5123C0.654056 38.0438 1.64966 37.9651 1.64966 37.9651C1.64966 37.9651 0.310326 34.5351 1.64966 34.4994C2.84801 34.4676 3.0942 37.2355 3.0942 37.2355C3.0942 37.2355 3.63589 36.1411 4.17759 36.5059C5.02748 37.0782 5.08043 40.3363 5.08043 40.3363C5.08043 40.3363 5.9213 39.0682 6.3444 39.4243C7.4278 40.3363 7.60837 43.4372 7.60837 43.4372C7.60837 43.4372 8.45456 42.3428 9.0529 42.3428C10.1363 42.3428 11.5808 45.626 11.5808 45.626C11.5808 45.626 11.4439 44.475 11.942 44.3492Z" fill="#EFED02" stroke="#2F2C67" stroke-width="0.191091"/>
<path d="M38.744 44.3492C38.0103 44.1668 35.6256 47.2677 35.6256 47.2677C35.6256 47.2677 37.2343 48.1808 38.3771 48.3621C39.5112 48.542 41.1286 48.7269 41.3121 48.1797C41.4571 47.747 40.5783 47.2677 40.5783 47.2677C40.5783 47.2677 44.6139 47.0853 44.7973 45.626C44.8614 45.1163 44.0636 44.5316 44.0636 44.5316C44.0636 44.5316 47.9156 43.0724 48.0991 41.978C48.194 41.4115 46.8151 41.2484 46.8151 41.2484C46.8151 41.2484 49.9334 39.4243 50.1168 38.5123C50.2111 38.0438 49.1997 37.9651 49.1997 37.9651C49.1997 37.9651 50.5603 34.5351 49.1997 34.4994C47.9823 34.4676 47.7322 37.2355 47.7322 37.2355C47.7322 37.2355 47.1819 36.1411 46.6316 36.5059C45.7682 37.0782 45.7145 40.3363 45.7145 40.3363C45.7145 40.3363 44.8602 39.0682 44.4304 39.4243C43.3298 40.3363 43.1464 43.4372 43.1464 43.4372C43.1464 43.4372 42.2868 42.3428 41.6789 42.3428C40.5783 42.3428 39.1109 45.626 39.1109 45.626C39.1109 45.626 39.2499 44.475 38.744 44.3492Z" fill="#EFED02" stroke="#2F2C67" stroke-width="0.191091"/>
<path d="M22.0228 13.4382H25.1786H28.3875C28.3875 13.4382 25.0845 12.4419 25.301 10.8942C25.4539 9.80095 27.2981 8.89538 27.2981 8.89538C27.2981 8.89538 25.741 8.17898 25.4826 7.25997C25.0984 5.89377 26.2855 4.87851 27.6612 4.53429C29.1137 4.17086 31.1297 4.41857 33.1079 5.26114C35.4371 6.25318 36.8602 8.38928 36.9206 9.07709C36.9915 9.88308 36.7391 10.8942 36.7391 10.8942C36.7391 10.8942 37.7365 9.38541 38.7362 9.2588C40.0874 9.08768 41.2591 10.7435 41.8227 11.9845C42.7305 13.9833 42.3673 15.9822 42.3673 15.9822C42.3673 15.9822 43.0936 15.5413 44.3645 15.9822C45.6354 16.423 46.7247 18.9502 46.7247 20.8884C46.7247 24.7043 45.4538 25.2495 44.9091 25.2495C44.0011 25.2495 43.0936 23.7958 43.0936 23.7958V27.2483C44.3645 25.4312 45.3915 25.5419 45.8169 25.6129C46.9063 25.7946 46.5631 29.9527 45.4538 32.3362C44.8131 33.7129 44.0014 35.4254 42.912 35.4254C41.8227 35.4254 41.0965 34.5168 41.0965 34.5168C41.0965 34.5168 43.704 38.1772 40.7333 40.5133C38.1915 42.5121 36.1944 40.5133 36.1944 40.5133C36.1944 40.5133 36.4384 42.0542 36.0129 42.8756C35.4419 43.9776 33.6947 44.6927 31.4739 44.6927C29.4768 44.6927 26.0272 44.511 26.7535 42.5121C27.4797 40.5133 30.5662 38.151 30.5662 38.151L25.1093 39.9682L19.8441 38.151C19.8441 38.151 22.9306 40.5133 23.6568 42.5121C24.383 44.511 20.9334 44.6927 18.9363 44.6927C16.7156 44.6927 14.9683 43.9776 14.3974 42.8756C13.9719 42.0542 14.2158 40.5133 14.2158 40.5133C14.2158 40.5133 12.2187 42.5121 9.67692 40.5133C6.70625 38.1772 9.31381 34.5168 9.31381 34.5168C9.31381 34.5168 8.58758 35.4254 7.49824 35.4254C6.4089 35.4254 5.59712 33.7129 4.95644 32.3362C3.84716 29.9527 3.50399 25.7946 4.59333 25.6129C5.01875 25.5419 6.04579 25.4312 7.31668 27.2483V23.7958C7.31668 23.7958 6.40911 25.2495 5.50112 25.2495C4.95644 25.2495 3.68555 24.7043 3.68555 20.8884C3.68555 18.9502 4.77489 16.423 6.04579 15.9822C7.31668 15.5413 8.04291 15.9822 8.04291 15.9822C8.04291 15.9822 7.6798 13.9833 8.58758 11.9845C9.15118 10.7435 10.3228 9.08768 11.674 9.2588C12.6738 9.38541 13.6712 10.8942 13.6712 10.8942C13.6712 10.8942 13.4188 9.88308 13.4896 9.07709C13.5501 8.38928 14.9732 6.25318 17.3023 5.26114C19.2805 4.41857 21.2966 4.17086 22.749 4.53429C24.1247 4.87851 25.3118 5.89377 24.9277 7.25997C24.6693 8.17898 23.1121 8.89538 23.1121 8.89538C23.1121 8.89538 24.9564 9.80095 25.1093 10.8942C25.3257 12.4419 22.0228 13.4382 22.0228 13.4382Z" fill="#2389D4"/>
<path d="M22.0228 13.4382L21.9952 13.3467L22.0228 13.5337V13.4382ZM25.1093 10.8942L25.0146 10.9074L25.1093 10.8942ZM23.1121 8.89538L23.0722 8.80858L22.8896 8.89257L23.07 8.98114L23.1121 8.89538ZM24.9277 7.25997L25.0197 7.28583L24.9277 7.25997ZM22.749 4.53429L22.7258 4.62697L22.749 4.53429ZM13.4896 9.07709L13.5848 9.08546L13.4896 9.07709ZM13.6712 10.8942L13.5915 10.9469L13.7639 10.8711L13.6712 10.8942ZM11.674 9.2588L11.662 9.35359L11.674 9.2588ZM8.58758 11.9845L8.67458 12.024L8.58758 11.9845ZM8.04291 15.9822L7.99333 16.0638L8.17488 16.174L8.13692 15.9651L8.04291 15.9822ZM6.04579 15.9822L6.01447 15.8919L6.04579 15.9822ZM7.31668 23.7958H7.41223V23.4623L7.23564 23.7452L7.31668 23.7958ZM7.31668 27.2483L7.23839 27.3031L7.41223 27.5516V27.2483H7.31668ZM4.59333 25.6129L4.57761 25.5187H4.57761L4.59333 25.6129ZM4.95644 32.3362L4.86982 32.3766L4.95644 32.3362ZM9.31381 34.5168L9.39163 34.5722L9.23917 34.4571L9.31381 34.5168ZM9.67692 40.5133L9.61786 40.5884L9.67692 40.5133ZM14.2158 40.5133L14.3102 40.5282L14.3562 40.2376L14.1483 40.4458L14.2158 40.5133ZM14.3974 42.8756L14.3126 42.9195L14.3974 42.8756ZM23.6568 42.5121L23.7466 42.4795L23.6568 42.5121ZM19.8441 38.151L19.8753 38.0607L19.786 38.2269L19.8441 38.151ZM25.1093 39.9682L25.0781 40.0585L25.1087 40.069L25.1394 40.0588L25.1093 39.9682ZM17.3023 5.26114L17.2649 5.17324L17.3023 5.26114ZM28.3875 13.4382V13.5337L28.4151 13.3467L28.3875 13.4382ZM25.301 10.8942L25.2064 10.881L25.301 10.8942ZM27.2981 8.89538L27.3402 8.98114L27.5206 8.89257L27.3381 8.80858L27.2981 8.89538ZM25.4826 7.25997L25.5745 7.23411V7.23411L25.4826 7.25997ZM27.6612 4.53429L27.6381 4.4416L27.6612 4.53429ZM36.9206 9.07709L37.0158 9.06872L36.9206 9.07709ZM36.7391 10.8942L36.6464 10.8711L36.8188 10.9469L36.7391 10.8942ZM38.7362 9.2588L38.7482 9.35359L38.7362 9.2588ZM41.8227 11.9845L41.9097 11.945L41.8227 11.9845ZM42.3673 15.9822L42.2733 15.9651L42.2354 16.174L42.4169 16.0638L42.3673 15.9822ZM43.0936 23.7958L43.1746 23.7452L42.998 23.4623V23.7958H43.0936ZM43.0936 27.2483H42.998V27.5516L43.1719 27.3031L43.0936 27.2483ZM45.8169 25.6129L45.8326 25.5187L45.8169 25.6129ZM45.4538 32.3362L45.5404 32.3766L45.4538 32.3362ZM41.0965 34.5168L41.1711 34.4571L41.0186 34.5722L41.0965 34.5168ZM40.7333 40.5133L40.7924 40.5884L40.7333 40.5133ZM36.1944 40.5133L36.262 40.4458L36.054 40.2376L36.1 40.5282L36.1944 40.5133ZM36.0129 42.8756L36.0977 42.9195L36.0129 42.8756ZM30.5662 38.151L30.6242 38.2269L30.536 38.0604L30.5662 38.151ZM33.1079 5.26114L33.0705 5.34905L33.1079 5.26114ZM46.7247 20.8884H46.8203H46.7247ZM25.1786 13.3426H22.0228V13.5337H25.1786V13.3426ZM22.0228 13.4382C22.0504 13.5297 22.0504 13.5296 22.0505 13.5296C22.0505 13.5296 22.0505 13.5296 22.0506 13.5296C22.0507 13.5296 22.0509 13.5295 22.0511 13.5294C22.0516 13.5293 22.0522 13.5291 22.0531 13.5288C22.0548 13.5283 22.0573 13.5276 22.0605 13.5266C22.067 13.5246 22.0765 13.5216 22.0888 13.5177C22.1134 13.5098 22.1493 13.4982 22.1948 13.4829C22.2857 13.4523 22.4152 13.4069 22.5697 13.3475C22.8785 13.229 23.289 13.0543 23.6935 12.8302C24.097 12.6066 24.5 12.3309 24.7894 12.0085C25.0791 11.6857 25.2633 11.3061 25.2039 10.881L25.0146 10.9074C25.0634 11.2561 24.9159 11.5815 24.6472 11.8808C24.3782 12.1805 23.9961 12.4441 23.6009 12.663C23.2067 12.8814 22.805 13.0525 22.5012 13.1691C22.3495 13.2274 22.2226 13.2719 22.1338 13.3018C22.0894 13.3168 22.0545 13.328 22.0309 13.3356C22.019 13.3393 22.01 13.3421 22.004 13.344C22.001 13.3449 21.9987 13.3456 21.9973 13.3461C21.9965 13.3463 21.996 13.3465 21.9956 13.3466C21.9955 13.3466 21.9953 13.3467 21.9953 13.3467C21.9952 13.3467 21.9952 13.3467 21.9952 13.3467C21.9952 13.3467 21.9952 13.3467 22.0228 13.4382ZM25.2039 10.881C25.1623 10.5839 25.0072 10.3064 24.8068 10.0603C24.6059 9.81371 24.3546 9.59281 24.111 9.40861C23.867 9.22413 23.6283 9.07466 23.4507 8.97137C23.3619 8.91967 23.2881 8.87942 23.2364 8.85201C23.2106 8.8383 23.1902 8.8278 23.1762 8.82068C23.1693 8.81712 23.1638 8.8144 23.1601 8.81255C23.1583 8.81162 23.1569 8.81091 23.1559 8.81042C23.1554 8.81018 23.155 8.80999 23.1547 8.80985C23.1546 8.80979 23.1545 8.80973 23.1544 8.80969C23.1544 8.80967 23.1543 8.80965 23.1543 8.80964C23.1543 8.80963 23.1542 8.80962 23.1121 8.89538C23.07 8.98114 23.07 8.98114 23.07 8.98114C23.07 8.98114 23.07 8.98114 23.07 8.98115C23.0701 8.98116 23.0701 8.98119 23.0702 8.98124C23.0704 8.98132 23.0707 8.98146 23.0711 8.98166C23.0718 8.98204 23.0731 8.98265 23.0747 8.98347C23.078 8.98511 23.083 8.98762 23.0895 8.99095C23.1026 8.99763 23.122 9.00765 23.1469 9.02084C23.1967 9.04722 23.2682 9.08626 23.3546 9.13654C23.5277 9.23721 23.7595 9.38246 23.9957 9.56103C24.2323 9.73988 24.4707 9.95036 24.6586 10.181C24.847 10.4123 24.9797 10.6579 25.0146 10.9074L25.2039 10.881ZM23.1121 8.89538C23.1521 8.98218 23.1521 8.98217 23.1521 8.98215C23.1521 8.98215 23.1522 8.98213 23.1522 8.98211C23.1523 8.98208 23.1524 8.98204 23.1525 8.98198C23.1527 8.98187 23.1531 8.98172 23.1535 8.98152C23.1543 8.98113 23.1555 8.98056 23.1571 8.97982C23.1603 8.97834 23.1649 8.97618 23.1708 8.97334C23.1827 8.96767 23.2 8.95931 23.222 8.94839C23.266 8.92654 23.3289 8.89442 23.4051 8.85303C23.5573 8.77033 23.7632 8.65022 23.9777 8.50068C24.1918 8.35133 24.4165 8.17125 24.605 7.96822C24.793 7.76577 24.9494 7.53565 25.0197 7.28583L24.8357 7.23411C24.7768 7.4438 24.6417 7.64785 24.465 7.83821C24.2888 8.02797 24.0758 8.1993 23.8684 8.34393C23.6612 8.48836 23.4617 8.60479 23.3139 8.68513C23.24 8.72526 23.1792 8.75629 23.1371 8.77722C23.116 8.78768 23.0996 8.79561 23.0885 8.80088C23.083 8.80351 23.0788 8.80548 23.0761 8.80677C23.0747 8.80741 23.0737 8.80789 23.073 8.80819C23.0727 8.80834 23.0725 8.80845 23.0723 8.80851C23.0723 8.80855 23.0722 8.80857 23.0722 8.80858C23.0722 8.80858 23.0722 8.80858 23.0722 8.80859C23.0722 8.80858 23.0722 8.80858 23.1121 8.89538ZM25.0197 7.28583C25.2219 6.56663 25.0086 5.93821 24.5693 5.44998C24.1328 4.96476 23.4734 4.61705 22.7722 4.4416L22.7258 4.62697C23.4003 4.79574 24.0224 5.12778 24.4273 5.57779C24.8294 6.0248 25.0176 6.58711 24.8357 7.23411L25.0197 7.28583ZM13.3944 9.06872C13.358 9.48302 13.4047 9.94612 13.4594 10.3024C13.4868 10.4812 13.5165 10.6345 13.5393 10.7433C13.5508 10.7977 13.5605 10.8409 13.5674 10.8707C13.5708 10.8856 13.5736 10.8972 13.5755 10.905C13.5764 10.909 13.5771 10.912 13.5777 10.9141C13.5779 10.9151 13.5781 10.9159 13.5782 10.9164C13.5783 10.9167 13.5784 10.9169 13.5784 10.9171C13.5784 10.9172 13.5784 10.9172 13.5784 10.9173C13.5785 10.9173 13.5785 10.9173 13.5785 10.9173C13.5785 10.9173 13.5785 10.9174 13.6712 10.8942C13.7639 10.8711 13.7639 10.8711 13.7639 10.8711C13.7639 10.8711 13.7639 10.8711 13.7639 10.8711C13.7639 10.8711 13.7639 10.871 13.7639 10.871C13.7638 10.8709 13.7638 10.8707 13.7637 10.8705C13.7636 10.8701 13.7635 10.8694 13.7632 10.8685C13.7628 10.8667 13.7621 10.864 13.7612 10.8603C13.7595 10.8529 13.7569 10.842 13.7536 10.8276C13.7469 10.799 13.7375 10.757 13.7263 10.704C13.7041 10.5979 13.6751 10.4481 13.6483 10.2734C13.5944 9.92261 13.5504 9.47715 13.5848 9.08546L13.3944 9.06872ZM13.6712 10.8942C13.7509 10.8415 13.7509 10.8415 13.7508 10.8415C13.7508 10.8415 13.7508 10.8414 13.7508 10.8414C13.7507 10.8413 13.7507 10.8412 13.7506 10.8411C13.7505 10.8409 13.7502 10.8406 13.75 10.8402C13.7494 10.8393 13.7486 10.8382 13.7476 10.8367C13.7456 10.8336 13.7426 10.8292 13.7387 10.8234C13.7309 10.812 13.7194 10.7953 13.7045 10.7741C13.6747 10.7318 13.6311 10.6714 13.5757 10.5986C13.4651 10.4532 13.3069 10.2578 13.1167 10.0581C12.9267 9.85861 12.7031 9.65307 12.4616 9.48875C12.2207 9.32489 11.9566 9.19827 11.6861 9.16401L11.662 9.35359C11.8914 9.38264 12.1268 9.4921 12.3541 9.64675C12.5808 9.80094 12.794 9.99634 12.9783 10.1899C13.1624 10.3832 13.316 10.5729 13.4237 10.7143C13.4774 10.785 13.5196 10.8435 13.5482 10.8841C13.5626 10.9045 13.5735 10.9203 13.5808 10.931C13.5844 10.9364 13.5871 10.9404 13.5889 10.9431C13.5898 10.9444 13.5905 10.9454 13.5909 10.9461C13.5911 10.9464 13.5913 10.9466 13.5914 10.9468C13.5914 10.9468 13.5914 10.9469 13.5915 10.9469C13.5915 10.9469 13.5915 10.9469 13.5915 10.9469C13.5915 10.9469 13.5915 10.9469 13.6712 10.8942ZM11.6861 9.16401C10.9661 9.07284 10.3072 9.46962 9.76694 10.0255C9.22472 10.5835 8.78535 11.318 8.50059 11.945L8.67458 12.024C8.95341 11.41 9.38166 10.6961 9.90398 10.1587C10.4283 9.61922 11.0308 9.27365 11.662 9.35359L11.6861 9.16401ZM8.50059 11.945C8.03992 12.9593 7.90227 13.9721 7.87933 14.73C7.86784 15.1092 7.88506 15.4254 7.9052 15.6472C7.91528 15.7582 7.9261 15.8456 7.93445 15.9055C7.93862 15.9355 7.94218 15.9586 7.94473 15.9744C7.946 15.9823 7.94701 15.9884 7.94773 15.9925C7.94808 15.9946 7.94836 15.9962 7.94856 15.9973C7.94866 15.9979 7.94874 15.9983 7.9488 15.9986C7.94882 15.9988 7.94885 15.9989 7.94887 15.999C7.94887 15.9991 7.94888 15.9991 7.94889 15.9992C7.9489 15.9992 7.9489 15.9992 8.04291 15.9822C8.13692 15.9651 8.13692 15.9651 8.13692 15.9651C8.13692 15.9651 8.13692 15.9651 8.13692 15.9651C8.13692 15.9651 8.13691 15.965 8.13689 15.9649C8.13686 15.9648 8.13681 15.9645 8.13674 15.9641C8.1366 15.9633 8.13637 15.962 8.13607 15.9602C8.13546 15.9567 8.13455 15.9513 8.13338 15.944C8.13105 15.9295 8.12769 15.9078 8.12371 15.8792C8.11575 15.822 8.10529 15.7376 8.09551 15.63C8.07595 15.4145 8.05912 15.1061 8.07033 14.7358C8.09277 13.9945 8.22746 13.0085 8.67458 12.024L8.50059 11.945ZM8.04291 15.9822C8.09249 15.9005 8.09244 15.9004 8.09239 15.9004C8.09236 15.9004 8.09231 15.9004 8.09226 15.9003C8.09218 15.9003 8.09208 15.9002 8.09197 15.9002C8.09175 15.9 8.09148 15.8999 8.09117 15.8997C8.09056 15.8993 8.08976 15.8989 8.08878 15.8983C8.08683 15.8971 8.08416 15.8956 8.08078 15.8938C8.07402 15.89 8.06442 15.8849 8.05203 15.8786C8.02724 15.8662 7.99125 15.8495 7.94442 15.8312C7.85076 15.7945 7.71371 15.7512 7.5362 15.7225C7.18057 15.6649 6.66526 15.6661 6.01447 15.8919L6.0771 16.0724C6.6972 15.8573 7.18046 15.8585 7.50567 15.9111C7.66858 15.9375 7.79252 15.9769 7.87474 16.0091C7.91585 16.0252 7.94653 16.0395 7.96642 16.0495C7.97637 16.0545 7.98361 16.0584 7.98811 16.0609C7.99036 16.0621 7.99192 16.063 7.9928 16.0635C7.99323 16.0638 7.99349 16.0639 7.99358 16.064C7.99363 16.064 7.99363 16.064 7.99359 16.064C7.99357 16.064 7.99353 16.064 7.99349 16.0639C7.99347 16.0639 7.99343 16.0639 7.99342 16.0639C7.99337 16.0639 7.99333 16.0638 8.04291 15.9822ZM5.50112 25.345C5.75321 25.345 5.99823 25.2445 6.21939 25.1028C6.44119 24.9607 6.64584 24.773 6.81913 24.5879C6.99276 24.4026 7.13708 24.2176 7.23792 24.0792C7.28839 24.0099 7.32812 23.952 7.35533 23.9114C7.36893 23.891 7.37942 23.875 7.38656 23.8639C7.39013 23.8584 7.39286 23.8541 7.39473 23.8511C7.39567 23.8497 7.39639 23.8485 7.39689 23.8477C7.39714 23.8473 7.39733 23.847 7.39748 23.8468C7.39755 23.8467 7.3976 23.8466 7.39764 23.8465C7.39767 23.8465 7.39769 23.8464 7.3977 23.8464C7.39772 23.8464 7.39773 23.8464 7.31668 23.7958C7.23564 23.7452 7.23564 23.7452 7.23565 23.7452C7.23564 23.7452 7.23565 23.7452 7.23564 23.7452C7.23563 23.7452 7.2356 23.7452 7.23556 23.7453C7.23548 23.7454 7.23534 23.7456 7.23516 23.7459C7.23478 23.7465 7.23418 23.7475 7.23337 23.7488C7.23175 23.7513 7.22928 23.7552 7.22598 23.7603C7.21938 23.7705 7.20948 23.7857 7.1965 23.8051C7.17052 23.8439 7.13225 23.8997 7.08346 23.9667C6.98575 24.1008 6.84643 24.2793 6.67966 24.4573C6.51256 24.6357 6.32007 24.8114 6.11632 24.9419C5.91195 25.0728 5.70302 25.1539 5.50112 25.1539V25.345ZM7.22114 23.7958V27.2483H7.41223V23.7958H7.22114ZM7.39498 27.1936C6.75228 26.2746 6.16446 25.8335 5.67393 25.6341C5.18173 25.434 4.79832 25.4818 4.57761 25.5187L4.60905 25.7071C4.81375 25.673 5.15658 25.63 5.60197 25.8111C6.04905 25.9928 6.61019 26.4049 7.23839 27.3031L7.39498 27.1936ZM4.57761 25.5187C4.40876 25.5468 4.2746 25.6517 4.17177 25.8023C4.06977 25.9517 3.99464 26.1511 3.94138 26.3836C3.83476 26.849 3.81063 27.4706 3.85506 28.1551C3.94394 29.5244 4.30918 31.1719 4.86982 32.3766L5.04307 32.2959C4.49442 31.117 4.13344 29.4937 4.04575 28.1427C4.00189 27.4669 4.02689 26.866 4.12764 26.4262C4.17807 26.2061 4.24618 26.0322 4.32958 25.9101C4.41216 25.7892 4.50557 25.7244 4.60905 25.7071L4.57761 25.5187ZM4.86982 32.3766C5.18943 33.0633 5.55594 33.8435 5.98076 34.4518C6.40166 35.0544 6.90204 35.5209 7.49824 35.5209V35.3298C7.0051 35.3298 6.55492 34.9401 6.13743 34.3423C5.72386 33.7502 5.36413 32.9858 5.04307 32.2959L4.86982 32.3766ZM7.49824 35.5209C8.0698 35.5209 8.54293 35.2827 8.87009 35.0488C9.03409 34.9316 9.1629 34.8144 9.2509 34.7263C9.29495 34.6822 9.32889 34.6453 9.35203 34.6192C9.3636 34.6061 9.37248 34.5957 9.37857 34.5884C9.38162 34.5848 9.38397 34.5819 9.38562 34.5799C9.38645 34.5789 9.38709 34.5781 9.38757 34.5775C9.3878 34.5772 9.38799 34.577 9.38814 34.5768C9.38821 34.5767 9.38827 34.5767 9.38832 34.5766C9.38835 34.5766 9.38838 34.5765 9.38839 34.5765C9.38842 34.5765 9.38844 34.5764 9.31381 34.5168C9.23917 34.4571 9.23919 34.4571 9.23921 34.4571C9.23921 34.4571 9.23922 34.4571 9.23923 34.4571C9.23923 34.4571 9.23923 34.4571 9.23921 34.4571C9.23918 34.4571 9.23911 34.4572 9.23899 34.4574C9.23875 34.4577 9.23834 34.4582 9.23776 34.4589C9.23659 34.4603 9.23474 34.4626 9.2322 34.4656C9.22713 34.4716 9.21934 34.4807 9.20892 34.4925C9.18809 34.5161 9.15679 34.5501 9.11573 34.5912C9.03352 34.6735 8.91269 34.7834 8.75896 34.8933C8.45068 35.1137 8.01603 35.3298 7.49824 35.3298V35.5209ZM9.31381 34.5168C9.23599 34.4614 9.23596 34.4614 9.23591 34.4615C9.23589 34.4615 9.23583 34.4616 9.23578 34.4617C9.23567 34.4618 9.23552 34.462 9.23533 34.4623C9.23496 34.4628 9.23443 34.4636 9.23374 34.4645C9.23238 34.4665 9.2304 34.4693 9.22786 34.473C9.22276 34.4803 9.21536 34.4911 9.20591 34.5052C9.18701 34.5334 9.1599 34.5747 9.12658 34.6279C9.05995 34.7344 8.96842 34.8887 8.86808 35.081C8.66762 35.4653 8.43094 36.0036 8.2883 36.6174C8.00247 37.8472 8.09393 39.39 9.61786 40.5884L9.73598 40.4382C8.28925 39.3005 8.19915 37.845 8.47443 36.6606C8.61234 36.0673 8.84188 35.5445 9.03751 35.1694C9.13521 34.9821 9.22419 34.8322 9.28856 34.7293C9.32073 34.6779 9.34674 34.6383 9.36459 34.6117C9.37351 34.5984 9.38039 34.5884 9.38498 34.5817C9.38728 34.5784 9.389 34.576 9.39012 34.5744C9.39068 34.5736 9.39108 34.573 9.39134 34.5726C9.39146 34.5725 9.39155 34.5723 9.3916 34.5723C9.39162 34.5722 9.39163 34.5722 9.39164 34.5722C9.39164 34.5722 9.39163 34.5722 9.31381 34.5168ZM9.61786 40.5884C10.915 41.6084 12.0826 41.6126 12.9275 41.3542C13.3476 41.2258 13.6855 41.0333 13.9182 40.8731C14.0347 40.7929 14.1253 40.7206 14.187 40.668C14.2179 40.6417 14.2416 40.6203 14.2578 40.6053C14.2659 40.5978 14.2721 40.5919 14.2764 40.5877C14.2785 40.5857 14.2802 40.584 14.2814 40.5829C14.282 40.5823 14.2824 40.5818 14.2828 40.5815C14.2829 40.5813 14.2831 40.5812 14.2832 40.5811C14.2832 40.581 14.2833 40.581 14.2833 40.5809C14.2834 40.5809 14.2834 40.5808 14.2158 40.5133C14.1483 40.4458 14.1483 40.4457 14.1483 40.4457C14.1483 40.4457 14.1483 40.4457 14.1483 40.4457C14.1483 40.4457 14.1483 40.4458 14.1482 40.4458C14.1481 40.446 14.1478 40.4462 14.1474 40.4466C14.1466 40.4473 14.1454 40.4486 14.1437 40.4502C14.1403 40.4535 14.135 40.4586 14.1278 40.4652C14.1135 40.4785 14.0918 40.4981 14.0631 40.5225C14.0057 40.5715 13.9204 40.6397 13.8099 40.7157C13.5888 40.8678 13.2685 41.0501 12.8716 41.1715C12.0825 41.4128 10.9807 41.417 9.73598 40.4382L9.61786 40.5884ZM14.2158 40.5133C14.1215 40.4984 14.1215 40.4984 14.1215 40.4984C14.1215 40.4984 14.1215 40.4985 14.1215 40.4985C14.1214 40.4986 14.1214 40.4986 14.1214 40.4988C14.1214 40.499 14.1213 40.4993 14.1213 40.4997C14.1211 40.5006 14.1209 40.5018 14.1207 40.5033C14.1202 40.5065 14.1195 40.511 14.1187 40.5169C14.1169 40.5288 14.1145 40.5462 14.1115 40.5685C14.1055 40.613 14.0975 40.6774 14.0893 40.7571C14.0729 40.9164 14.0555 41.1375 14.0515 41.3849C14.0437 41.8747 14.0881 42.4862 14.3126 42.9195L14.4822 42.8316C14.2812 42.4435 14.2348 41.8739 14.2426 41.3879C14.2464 41.1474 14.2634 40.932 14.2794 40.7767C14.2874 40.6991 14.2952 40.6367 14.3009 40.5938C14.3038 40.5723 14.3061 40.5558 14.3077 40.5447C14.3086 40.5391 14.3092 40.5349 14.3096 40.5322C14.3098 40.5308 14.31 40.5298 14.3101 40.5291C14.3101 40.5288 14.3102 40.5285 14.3102 40.5284C14.3102 40.5283 14.3102 40.5283 14.3102 40.5282C14.3102 40.5282 14.3102 40.5282 14.3102 40.5282C14.3102 40.5282 14.3102 40.5282 14.2158 40.5133ZM14.3126 42.9195C14.6123 43.498 15.2145 43.9645 16.0125 44.286C16.8118 44.608 17.8164 44.7882 18.9363 44.7882V44.5971C17.8355 44.5971 16.8561 44.4198 16.0839 44.1087C15.3103 43.7971 14.7535 43.3551 14.4822 42.8316L14.3126 42.9195ZM18.9363 44.7882C19.9346 44.7882 21.3087 44.7432 22.3444 44.4437C22.8611 44.2943 23.3086 44.0775 23.5794 43.7578C23.8569 43.4301 23.9382 43.0069 23.7466 42.4795L23.567 42.5448C23.7385 43.0168 23.6609 43.3659 23.4335 43.6343C23.1993 43.9109 22.7958 44.1143 22.2913 44.2602C21.2845 44.5513 19.9352 44.5971 18.9363 44.5971V44.7882ZM23.7466 42.4795C23.3754 41.4578 22.4076 40.3544 21.5448 39.5136C21.1115 39.0913 20.7012 38.732 20.3992 38.4782C20.2481 38.3513 20.1241 38.2507 20.0378 38.1818C19.9946 38.1473 19.9608 38.1207 19.9377 38.1027C19.9262 38.0938 19.9174 38.0869 19.9114 38.0823C19.9084 38.08 19.9061 38.0782 19.9046 38.077C19.9038 38.0764 19.9032 38.076 19.9028 38.0757C19.9026 38.0755 19.9025 38.0754 19.9024 38.0753C19.9023 38.0753 19.9023 38.0752 19.9022 38.0752C19.9022 38.0752 19.9022 38.0752 19.8441 38.151C19.786 38.2269 19.786 38.2269 19.786 38.2269C19.7861 38.2269 19.7861 38.227 19.7861 38.227C19.7862 38.227 19.7863 38.2271 19.7865 38.2273C19.7869 38.2275 19.7874 38.2279 19.7881 38.2285C19.7895 38.2296 19.7917 38.2313 19.7946 38.2335C19.8003 38.2379 19.8089 38.2446 19.8201 38.2534C19.8427 38.271 19.8759 38.2971 19.9185 38.3311C20.0038 38.3992 20.1266 38.4987 20.2762 38.6245C20.5757 38.8761 20.9823 39.2323 21.4114 39.6504C22.2734 40.4904 23.212 41.5676 23.567 42.5448L23.7466 42.4795ZM19.8129 38.2414L25.0781 40.0585L25.1404 39.8778L19.8753 38.0607L19.8129 38.2414ZM22.7722 4.4416C21.2934 4.07158 19.2555 4.3254 17.2649 5.17324L17.3398 5.34905C19.3056 4.51173 21.2997 4.27014 22.7258 4.62697L22.7722 4.4416ZM17.2649 5.17324C16.0845 5.67598 15.1353 6.46775 14.4735 7.2201C14.1424 7.5964 13.8822 7.96412 13.7003 8.28283C13.5204 8.59823 13.4114 8.8755 13.3944 9.06872L13.5848 9.08546C13.598 8.93477 13.6897 8.6871 13.8663 8.37754C14.0411 8.07128 14.2935 7.71401 14.6169 7.34631C15.2641 6.61064 16.191 5.83834 17.3398 5.34905L17.2649 5.17324ZM6.01447 15.8919C5.67496 16.0097 5.35528 16.2636 5.06815 16.6002C4.78036 16.9375 4.5207 17.3632 4.30241 17.8335C3.8662 18.7735 3.59 19.9035 3.59 20.8884H3.78109C3.78109 19.935 4.04956 18.8324 4.47575 17.914C4.68866 17.4552 4.93962 17.0453 5.21353 16.7242C5.48809 16.4024 5.78116 16.1751 6.0771 16.0724L6.01447 15.8919ZM3.59 20.8884C3.59 22.8045 3.90864 23.9156 4.30821 24.5508C4.71071 25.1906 5.19447 25.345 5.50112 25.345V25.1539C5.26309 25.1539 4.83907 25.0358 4.46995 24.449C4.0979 23.8576 3.78109 22.7882 3.78109 20.8884H3.59ZM25.1786 13.5337H28.3875V13.3426H25.1786V13.5337ZM28.3875 13.4382C28.4151 13.3467 28.4151 13.3467 28.4151 13.3467C28.415 13.3467 28.415 13.3467 28.415 13.3467C28.4149 13.3467 28.4148 13.3466 28.4146 13.3466C28.4143 13.3465 28.4137 13.3463 28.413 13.3461C28.4115 13.3456 28.4093 13.3449 28.4063 13.344C28.4002 13.3421 28.3912 13.3393 28.3794 13.3356C28.3557 13.328 28.3209 13.3168 28.2765 13.3018C28.1876 13.2719 28.0607 13.2274 27.909 13.1691C27.6053 13.0525 27.2036 12.8814 26.8094 12.663C26.4142 12.4441 26.0321 12.1805 25.763 11.8808C25.4943 11.5815 25.3469 11.2561 25.3956 10.9074L25.2064 10.881C25.1469 11.3061 25.3311 11.6857 25.6208 12.0085C25.9102 12.3309 26.3133 12.6066 26.7168 12.8302C27.1213 13.0543 27.5317 13.229 27.8405 13.3475C27.9951 13.4069 28.1245 13.4523 28.2155 13.4829C28.261 13.4982 28.2969 13.5098 28.3215 13.5177C28.3338 13.5216 28.3433 13.5246 28.3498 13.5266C28.353 13.5276 28.3555 13.5283 28.3572 13.5288C28.358 13.5291 28.3587 13.5293 28.3591 13.5294C28.3593 13.5295 28.3595 13.5296 28.3596 13.5296C28.3597 13.5296 28.3598 13.5296 28.3598 13.5296C28.3598 13.5296 28.3599 13.5297 28.3875 13.4382ZM25.3956 10.9074C25.4305 10.6579 25.5633 10.4123 25.7516 10.181C25.9395 9.95036 26.178 9.73988 26.4145 9.56103C26.6507 9.38246 26.8826 9.23721 27.0556 9.13654C27.1421 9.08626 27.2136 9.04722 27.2633 9.02084C27.2882 9.00765 27.3076 8.99763 27.3207 8.99095C27.3273 8.98762 27.3323 8.98511 27.3356 8.98347C27.3372 8.98265 27.3384 8.98204 27.3392 8.98165C27.3396 8.98146 27.3399 8.98132 27.3401 8.98124C27.3401 8.98119 27.3402 8.98116 27.3402 8.98115C27.3402 8.98114 27.3403 8.98114 27.3403 8.98114C27.3403 8.98114 27.3402 8.98114 27.2981 8.89538C27.256 8.80962 27.256 8.80963 27.256 8.80964C27.2559 8.80965 27.2559 8.80967 27.2559 8.80969C27.2558 8.80973 27.2557 8.80979 27.2555 8.80985C27.2553 8.80999 27.2549 8.81018 27.2544 8.81042C27.2534 8.81091 27.252 8.81162 27.2501 8.81255C27.2464 8.8144 27.241 8.81712 27.234 8.82068C27.22 8.8278 27.1997 8.8383 27.1738 8.85201C27.1221 8.87942 27.0484 8.91967 26.9595 8.97137C26.782 9.07466 26.5433 9.22413 26.2993 9.40861C26.0556 9.59281 25.8044 9.81371 25.6035 10.0603C25.4031 10.3064 25.2479 10.5839 25.2064 10.881L25.3956 10.9074ZM27.2981 8.89538C27.3381 8.80858 27.3381 8.80858 27.3381 8.80859C27.3381 8.80858 27.3381 8.80858 27.3381 8.80858C27.338 8.80857 27.338 8.80855 27.3379 8.80851C27.3378 8.80845 27.3375 8.80834 27.3372 8.80819C27.3366 8.80789 27.3356 8.80741 27.3342 8.80677C27.3314 8.80548 27.3272 8.80351 27.3217 8.80088C27.3107 8.79561 27.2943 8.78768 27.2732 8.77722C27.231 8.75629 27.1703 8.72526 27.0964 8.68513C26.9485 8.60479 26.749 8.48836 26.5419 8.34393C26.3345 8.1993 26.1214 8.02797 25.9453 7.83821C25.7686 7.64785 25.6335 7.4438 25.5745 7.23411L25.3906 7.28583C25.4608 7.53565 25.6173 7.76577 25.8052 7.96822C25.9937 8.17125 26.2184 8.35133 26.4326 8.50068C26.6471 8.65022 26.853 8.77033 27.0052 8.85303C27.0813 8.89442 27.1442 8.92654 27.1882 8.94839C27.2102 8.95931 27.2275 8.96767 27.2394 8.97334C27.2454 8.97618 27.25 8.97834 27.2531 8.97982C27.2547 8.98056 27.2559 8.98113 27.2568 8.98152C27.2572 8.98172 27.2575 8.98187 27.2578 8.98198C27.2579 8.98204 27.258 8.98208 27.2581 8.98211C27.2581 8.98213 27.2581 8.98215 27.2581 8.98215C27.2582 8.98217 27.2582 8.98218 27.2981 8.89538ZM25.5745 7.23411C25.3926 6.58711 25.5808 6.0248 25.983 5.57779C26.3879 5.12778 27.0099 4.79574 27.6844 4.62697L27.6381 4.4416C26.9368 4.61705 26.2775 4.96476 25.8409 5.44998C25.4017 5.93821 25.1884 6.56664 25.3906 7.28583L25.5745 7.23411ZM36.8255 9.08546C36.8599 9.47715 36.8158 9.92261 36.762 10.2734C36.7352 10.4481 36.7062 10.5979 36.6839 10.704C36.6728 10.757 36.6633 10.799 36.6567 10.8276C36.6534 10.842 36.6508 10.8529 36.649 10.8603C36.6481 10.864 36.6475 10.8667 36.647 10.8685C36.6468 10.8694 36.6466 10.8701 36.6465 10.8705C36.6465 10.8707 36.6464 10.8709 36.6464 10.871C36.6464 10.871 36.6464 10.8711 36.6464 10.8711C36.6464 10.8711 36.6464 10.8711 36.6464 10.8711C36.6464 10.8711 36.6464 10.8711 36.7391 10.8942C36.8318 10.9174 36.8318 10.9173 36.8318 10.9173C36.8318 10.9173 36.8318 10.9173 36.8318 10.9173C36.8318 10.9172 36.8318 10.9172 36.8319 10.9171C36.8319 10.9169 36.8319 10.9167 36.832 10.9164C36.8322 10.9159 36.8323 10.9151 36.8326 10.9141C36.8331 10.912 36.8338 10.909 36.8348 10.905C36.8367 10.8972 36.8394 10.8856 36.8429 10.8707C36.8498 10.8409 36.8595 10.7977 36.8709 10.7433C36.8938 10.6345 36.9234 10.4812 36.9509 10.3024C37.0055 9.94612 37.0522 9.48302 37.0158 9.06872L36.8255 9.08546ZM36.7391 10.8942C36.8188 10.9469 36.8188 10.9469 36.8188 10.9469C36.8188 10.9469 36.8188 10.9469 36.8188 10.9469C36.8188 10.9469 36.8188 10.9468 36.8189 10.9468C36.819 10.9466 36.8191 10.9464 36.8193 10.9461C36.8198 10.9454 36.8204 10.9444 36.8213 10.9431C36.8231 10.9404 36.8259 10.9364 36.8295 10.931C36.8368 10.9203 36.8477 10.9045 36.862 10.8841C36.8906 10.8435 36.9328 10.785 36.9866 10.7143C37.0942 10.5729 37.2478 10.3832 37.4319 10.1899C37.6163 9.99634 37.8295 9.80094 38.0561 9.64675C38.2835 9.4921 38.5188 9.38264 38.7482 9.35359L38.7242 9.16401C38.4537 9.19827 38.1895 9.32489 37.9487 9.48875C37.7071 9.65307 37.4835 9.85861 37.2936 10.0581C37.1033 10.2578 36.9451 10.4532 36.8345 10.5986C36.7792 10.6714 36.7356 10.7318 36.7058 10.7741C36.6909 10.7953 36.6794 10.812 36.6716 10.8234C36.6677 10.8292 36.6647 10.8336 36.6626 10.8367C36.6616 10.8382 36.6608 10.8393 36.6603 10.8402C36.66 10.8406 36.6598 10.8409 36.6597 10.8411C36.6596 10.8412 36.6595 10.8413 36.6595 10.8414C36.6594 10.8414 36.6594 10.8415 36.6594 10.8415C36.6594 10.8415 36.6594 10.8415 36.7391 10.8942ZM38.7482 9.35359C39.3795 9.27365 39.982 9.61922 40.5063 10.1587C41.0286 10.6961 41.4568 11.41 41.7357 12.024L41.9097 11.945C41.6249 11.318 41.1855 10.5835 40.6433 10.0255C40.1031 9.46962 39.4441 9.07284 38.7242 9.16401L38.7482 9.35359ZM41.7357 12.024C42.1828 13.0085 42.3175 13.9945 42.3399 14.7358C42.3511 15.1061 42.3343 15.4145 42.3147 15.63C42.305 15.7376 42.2945 15.822 42.2865 15.8792C42.2826 15.9078 42.2792 15.9295 42.2769 15.944C42.2757 15.9513 42.2748 15.9567 42.2742 15.9602C42.2739 15.962 42.2737 15.9633 42.2735 15.9641C42.2734 15.9645 42.2734 15.9648 42.2734 15.9649C42.2733 15.965 42.2733 15.9651 42.2733 15.9651C42.2733 15.9651 42.2733 15.9651 42.2733 15.9651C42.2733 15.9651 42.2733 15.9651 42.3673 15.9822C42.4614 15.9992 42.4614 15.9992 42.4614 15.9992C42.4614 15.9991 42.4614 15.9991 42.4614 15.999C42.4614 15.9989 42.4614 15.9988 42.4615 15.9986C42.4615 15.9983 42.4616 15.9979 42.4617 15.9973C42.4619 15.9962 42.4622 15.9946 42.4625 15.9925C42.4632 15.9884 42.4643 15.9823 42.4655 15.9744C42.4681 15.9586 42.4716 15.9355 42.4758 15.9055C42.4842 15.8456 42.495 15.7582 42.5051 15.6472C42.5252 15.4254 42.5424 15.1092 42.5309 14.73C42.508 13.9721 42.3703 12.9593 41.9097 11.945L41.7357 12.024ZM42.3673 15.9822C42.4169 16.0638 42.4169 16.0639 42.4168 16.0639C42.4168 16.0639 42.4168 16.0639 42.4168 16.0639C42.4167 16.064 42.4167 16.064 42.4167 16.064C42.4166 16.064 42.4166 16.064 42.4167 16.064C42.4168 16.0639 42.417 16.0638 42.4175 16.0635C42.4183 16.063 42.4199 16.0621 42.4221 16.0609C42.4266 16.0584 42.4339 16.0545 42.4438 16.0495C42.4637 16.0395 42.4944 16.0252 42.5355 16.0091C42.6177 15.9769 42.7417 15.9375 42.9046 15.9111C43.2298 15.8585 43.7131 15.8573 44.3332 16.0724L44.3958 15.8919C43.745 15.6661 43.2297 15.6649 42.8741 15.7225C42.6965 15.7512 42.5595 15.7945 42.4658 15.8312C42.419 15.8495 42.383 15.8662 42.3582 15.8786C42.3458 15.8849 42.3362 15.89 42.3295 15.8938C42.3261 15.8956 42.3234 15.8971 42.3215 15.8983C42.3205 15.8989 42.3197 15.8993 42.3191 15.8997C42.3188 15.8999 42.3185 15.9 42.3183 15.9002C42.3182 15.9002 42.3181 15.9003 42.318 15.9003C42.318 15.9004 42.3179 15.9004 42.3179 15.9004C42.3178 15.9004 42.3178 15.9005 42.3673 15.9822ZM44.9091 25.1539C44.7072 25.1539 44.4983 25.0728 44.2939 24.9419C44.0902 24.8114 43.8977 24.6357 43.7306 24.4573C43.5638 24.2793 43.4245 24.1008 43.3268 23.9667C43.278 23.8997 43.2397 23.8439 43.2138 23.8051C43.2008 23.7857 43.1909 23.7705 43.1843 23.7603C43.181 23.7552 43.1785 23.7513 43.1769 23.7488C43.1761 23.7475 43.1755 23.7465 43.1751 23.7459C43.1749 23.7456 43.1748 23.7454 43.1747 23.7453C43.1747 23.7452 43.1746 23.7452 43.1746 23.7452C43.1746 23.7452 43.1746 23.7452 43.1746 23.7452C43.1746 23.7452 43.1746 23.7452 43.0936 23.7958C43.0125 23.8464 43.0125 23.8464 43.0126 23.8464C43.0126 23.8464 43.0126 23.8465 43.0126 23.8465C43.0127 23.8466 43.0127 23.8467 43.0128 23.8468C43.0129 23.847 43.0131 23.8473 43.0134 23.8477C43.0139 23.8485 43.0146 23.8497 43.0155 23.8511C43.0174 23.8541 43.0201 23.8584 43.0237 23.8639C43.0308 23.875 43.0413 23.891 43.0549 23.9114C43.0821 23.952 43.1219 24.0099 43.1723 24.0792C43.2732 24.2176 43.4175 24.4026 43.5911 24.5879C43.7644 24.773 43.9691 24.9607 44.1909 25.1028C44.412 25.2445 44.6571 25.345 44.9091 25.345V25.1539ZM42.998 23.7958V27.2483H43.1891V23.7958H42.998ZM43.1719 27.3031C43.8001 26.4049 44.3612 25.9928 44.8083 25.8111C45.2537 25.63 45.5965 25.673 45.8012 25.7071L45.8326 25.5187C45.6119 25.4818 45.2285 25.434 44.7363 25.6341C44.2458 25.8335 43.658 26.2746 43.0153 27.1936L43.1719 27.3031ZM45.8012 25.7071C45.9047 25.7244 45.9981 25.7892 46.0807 25.9101C46.1641 26.0322 46.2322 26.2061 46.2826 26.4262C46.3834 26.866 46.4084 27.4669 46.3645 28.1427C46.2768 29.4937 45.9158 31.117 45.3672 32.2959L45.5404 32.3766C46.1011 31.1719 46.4663 29.5244 46.5552 28.1551C46.5996 27.4706 46.5755 26.849 46.4689 26.3836C46.4156 26.1511 46.3405 25.9517 46.2385 25.8023C46.1357 25.6517 46.0015 25.5468 45.8326 25.5187L45.8012 25.7071ZM45.3672 32.2959C45.0461 32.9858 44.6864 33.7502 44.2728 34.3423C43.8553 34.9401 43.4052 35.3298 42.912 35.3298V35.5209C43.5082 35.5209 44.0086 35.0544 44.4295 34.4518C44.8543 33.8435 45.2208 33.0633 45.5404 32.3766L45.3672 32.2959ZM42.912 35.3298C42.3942 35.3298 41.9596 35.1137 41.6513 34.8933C41.4976 34.7834 41.3767 34.6735 41.2945 34.5912C41.2535 34.5501 41.2222 34.5161 41.2013 34.4925C41.1909 34.4807 41.1831 34.4716 41.1781 34.4656C41.1755 34.4626 41.1737 34.4603 41.1725 34.4589C41.1719 34.4582 41.1715 34.4577 41.1713 34.4574C41.1712 34.4572 41.1711 34.4571 41.171 34.4571C41.171 34.4571 41.171 34.4571 41.171 34.4571C41.171 34.4571 41.171 34.4571 41.1711 34.4571C41.1711 34.4571 41.1711 34.4571 41.0965 34.5168C41.0218 34.5764 41.0218 34.5765 41.0219 34.5765C41.0219 34.5765 41.0219 34.5766 41.0219 34.5766C41.022 34.5767 41.022 34.5767 41.0221 34.5768C41.0223 34.577 41.0225 34.5772 41.0227 34.5775C41.0232 34.5781 41.0238 34.5789 41.0246 34.5799C41.0263 34.5819 41.0286 34.5848 41.0317 34.5884C41.0378 34.5957 41.0467 34.6061 41.0582 34.6192C41.0814 34.6453 41.1153 34.6822 41.1594 34.7263C41.2474 34.8144 41.3762 34.9316 41.5402 35.0488C41.8673 35.2827 42.3405 35.5209 42.912 35.5209V35.3298ZM41.0965 34.5168C41.0186 34.5722 41.0186 34.5722 41.0186 34.5722C41.0186 34.5722 41.0186 34.5722 41.0187 34.5723C41.0187 34.5723 41.0188 34.5725 41.0189 34.5726C41.0192 34.573 41.0196 34.5736 41.0201 34.5744C41.0213 34.576 41.023 34.5784 41.0253 34.5817C41.0299 34.5884 41.0367 34.5984 41.0457 34.6117C41.0635 34.6383 41.0895 34.6779 41.1217 34.7293C41.1861 34.8322 41.275 34.9821 41.3728 35.1694C41.5684 35.5445 41.7979 36.0673 41.9358 36.6606C42.2111 37.845 42.121 39.3005 40.6743 40.4382L40.7924 40.5884C42.3163 39.39 42.4078 37.8472 42.122 36.6174C41.9793 36.0036 41.7426 35.4653 41.5422 35.081C41.4418 34.8887 41.3503 34.7344 41.2837 34.6279C41.2504 34.5747 41.2232 34.5334 41.2043 34.5052C41.1949 34.4911 41.1875 34.4803 41.1824 34.473C41.1799 34.4693 41.1779 34.4665 41.1765 34.4645C41.1758 34.4636 41.1753 34.4628 41.1749 34.4623C41.1747 34.462 41.1746 34.4618 41.1745 34.4617C41.1744 34.4616 41.1744 34.4615 41.1743 34.4615C41.1743 34.4614 41.1743 34.4614 41.0965 34.5168ZM40.6743 40.4382C39.4296 41.417 38.3277 41.4128 37.5386 41.1715C37.1417 41.0501 36.8214 40.8678 36.6003 40.7157C36.4899 40.6397 36.4046 40.5715 36.3472 40.5225C36.3185 40.4981 36.2968 40.4785 36.2825 40.4652C36.2753 40.4586 36.27 40.4535 36.2666 40.4502C36.2649 40.4486 36.2636 40.4473 36.2628 40.4466C36.2625 40.4462 36.2622 40.446 36.2621 40.4458C36.262 40.4458 36.262 40.4457 36.2619 40.4457C36.2619 40.4457 36.262 40.4457 36.262 40.4457C36.262 40.4457 36.262 40.4458 36.1944 40.5133C36.1268 40.5808 36.1269 40.5809 36.1269 40.5809C36.1269 40.581 36.127 40.581 36.1271 40.5811C36.1272 40.5812 36.1273 40.5813 36.1275 40.5815C36.1278 40.5818 36.1283 40.5823 36.1289 40.5829C36.1301 40.584 36.1317 40.5857 36.1339 40.5877C36.1382 40.5919 36.1444 40.5978 36.1525 40.6053C36.1686 40.6203 36.1923 40.6417 36.2232 40.668C36.285 40.7206 36.3755 40.7929 36.492 40.8731C36.7248 41.0333 37.0627 41.2258 37.4828 41.3542C38.3277 41.6126 39.4953 41.6084 40.7924 40.5884L40.6743 40.4382ZM36.1944 40.5133C36.1 40.5282 36.1 40.5282 36.1 40.5282C36.1 40.5282 36.1 40.5282 36.1 40.5282C36.1 40.5283 36.1001 40.5283 36.1001 40.5284C36.1001 40.5285 36.1001 40.5288 36.1002 40.5291C36.1003 40.5298 36.1004 40.5308 36.1006 40.5322C36.1011 40.5349 36.1017 40.5391 36.1025 40.5447C36.1041 40.5558 36.1065 40.5723 36.1094 40.5938C36.1151 40.6367 36.1228 40.6991 36.1308 40.7767C36.1469 40.932 36.1638 41.1474 36.1677 41.3879C36.1755 41.8739 36.1291 42.4435 35.928 42.8316L36.0977 42.9195C36.3222 42.4862 36.3666 41.8747 36.3587 41.3849C36.3548 41.1375 36.3374 40.9164 36.3209 40.7571C36.3127 40.6774 36.3047 40.613 36.2988 40.5685C36.2958 40.5462 36.2933 40.5288 36.2916 40.5169C36.2907 40.511 36.29 40.5065 36.2896 40.5033C36.2893 40.5018 36.2891 40.5006 36.289 40.4997C36.2889 40.4993 36.2889 40.499 36.2888 40.4988C36.2888 40.4986 36.2888 40.4986 36.2888 40.4985C36.2888 40.4985 36.2888 40.4984 36.2888 40.4984C36.2888 40.4984 36.2888 40.4984 36.1944 40.5133ZM35.928 42.8316C35.6568 43.3551 35.0999 43.7971 34.3264 44.1087C33.5542 44.4198 32.5747 44.5971 31.4739 44.5971V44.7882C32.5939 44.7882 33.5984 44.608 34.3978 44.286C35.1958 43.9645 35.798 43.498 36.0977 42.9195L35.928 42.8316ZM31.4739 44.5971C30.4751 44.5971 29.1258 44.5513 28.119 44.2602C27.6145 44.1143 27.2109 43.9109 26.9767 43.6343C26.7493 43.3659 26.6718 43.0168 26.8433 42.5448L26.6637 42.4795C26.472 43.0069 26.5533 43.4301 26.8309 43.7578C27.1016 44.0775 27.5491 44.2943 28.0659 44.4437C29.1016 44.7432 30.4757 44.7882 31.4739 44.7882V44.5971ZM26.8433 42.5448C27.1983 41.5676 28.1369 40.4904 28.9988 39.6504C29.4279 39.2323 29.8346 38.8761 30.134 38.6245C30.2837 38.4987 30.4065 38.3992 30.4917 38.3311C30.5343 38.2971 30.5676 38.271 30.5901 38.2534C30.6014 38.2446 30.61 38.2379 30.6157 38.2335C30.6186 38.2313 30.6207 38.2296 30.6222 38.2285C30.6229 38.2279 30.6234 38.2275 30.6237 38.2273C30.6239 38.2271 30.624 38.227 30.6241 38.227C30.6242 38.227 30.6242 38.2269 30.6242 38.2269C30.6242 38.2269 30.6242 38.2269 30.5662 38.151C30.5081 38.0752 30.5081 38.0752 30.508 38.0752C30.508 38.0752 30.5079 38.0753 30.5079 38.0753C30.5078 38.0754 30.5076 38.0755 30.5074 38.0757C30.507 38.076 30.5064 38.0764 30.5057 38.077C30.5041 38.0782 30.5018 38.08 30.4988 38.0823C30.4929 38.0869 30.484 38.0938 30.4725 38.1027C30.4495 38.1207 30.4157 38.1473 30.3725 38.1818C30.2861 38.2507 30.1621 38.3513 30.0111 38.4782C29.7091 38.732 29.2987 39.0913 28.8655 39.5136C28.0026 40.3544 27.0349 41.4578 26.6637 42.4795L26.8433 42.5448ZM30.536 38.0604L25.0791 39.8775L25.1394 40.0588L30.5963 38.2417L30.536 38.0604ZM27.6844 4.62697C29.1105 4.27014 31.1046 4.51173 33.0705 5.34905L33.1454 5.17324C31.1548 4.3254 29.1169 4.07158 27.6381 4.4416L27.6844 4.62697ZM33.0705 5.34905C34.2193 5.83834 35.1462 6.61064 35.7933 7.34631C36.1168 7.71401 36.3692 8.07128 36.544 8.37754C36.7206 8.6871 36.8122 8.93477 36.8255 9.08546L37.0158 9.06872C36.9988 8.8755 36.8899 8.59823 36.7099 8.28283C36.5281 7.96412 36.2678 7.5964 35.9368 7.2201C35.275 6.46775 34.3258 5.67598 33.1454 5.17324L33.0705 5.34905ZM44.3332 16.0724C44.6291 16.1751 44.9222 16.4024 45.1967 16.7242C45.4706 17.0453 45.7216 17.4552 45.9345 17.914C46.3607 18.8324 46.6292 19.935 46.6292 20.8884H46.8203C46.8203 19.9035 46.5441 18.7735 46.1078 17.8335C45.8896 17.3632 45.6299 16.9375 45.3421 16.6002C45.055 16.2636 44.7353 16.0097 44.3958 15.8919L44.3332 16.0724ZM46.6292 20.8884C46.6292 22.7882 46.3124 23.8576 45.9403 24.449C45.5712 25.0358 45.1472 25.1539 44.9091 25.1539V25.345C45.2158 25.345 45.6996 25.1906 46.1021 24.5508C46.5016 23.9156 46.8203 22.8045 46.8203 20.8884H46.6292Z" fill="#2F2C67"/>
<path d="M20.6601 19.891L25.092 15.0784L29.5238 19.891C29.5238 19.891 31.8978 17.6148 33.5034 16.2534C35.0807 14.916 37.664 12.9796 37.664 12.9796V29.1668C37.664 30.0762 34.1355 32.6734 31.5136 34.4413C29.334 35.911 25.7086 37.5765 25.092 37.8561C24.4754 37.5765 20.85 35.911 18.6703 34.4413C16.0485 32.6734 12.52 30.2581 12.52 29.1668V12.9796C12.52 12.9796 15.1033 14.916 16.6805 16.2534C18.2862 17.6148 20.6601 19.891 20.6601 19.891Z" fill="#EFED02"/>
<path d="M20.6601 19.891L20.594 19.9599L20.6644 20.0274L20.7304 19.9557L20.6601 19.891ZM12.52 12.9796L12.5773 12.9031L12.4245 12.7885V12.9796H12.52ZM18.6703 34.4413L18.7238 34.362L18.6703 34.4413ZM16.6805 16.2534L16.6187 16.3262L16.6805 16.2534ZM29.5238 19.891L29.4535 19.9557L29.5196 20.0274L29.59 19.9599L29.5238 19.891ZM37.664 12.9796H37.7595V12.7885L37.6066 12.9031L37.664 12.9796ZM31.5136 34.4413L31.4602 34.362L31.5136 34.4413ZM33.5034 16.2534L33.5652 16.3262L33.5034 16.2534ZM25.1121 14.9155L25.0217 15.0137L25.1623 15.1432L25.2527 15.0449L25.1121 14.9155ZM25.0217 15.0137L20.5899 19.8262L20.7304 19.9557L25.1623 15.1432L25.0217 15.0137ZM12.4245 12.9796V29.1668H12.6156V12.9796H12.4245ZM12.4245 29.1668C12.4245 29.3274 12.4888 29.5018 12.5943 29.6824C12.7005 29.8643 12.8533 30.0606 13.0417 30.2671C13.4186 30.6802 13.9462 31.1433 14.5525 31.6251C15.7658 32.589 17.3065 33.6368 18.6169 34.5205L18.7238 34.362C17.4124 33.4778 15.8779 32.434 14.6714 31.4755C14.068 30.996 13.5496 30.5402 13.1829 30.1383C12.9995 29.9373 12.8562 29.752 12.7593 29.586C12.6615 29.4187 12.6156 29.2789 12.6156 29.1668H12.4245ZM18.6169 34.5205C20.8043 35.9955 24.4371 37.664 25.0525 37.9431L25.1315 37.7691C24.5137 37.4889 20.8957 35.8266 18.7238 34.362L18.6169 34.5205ZM25.0525 37.9431C25.0821 37.9566 25.1048 37.9668 25.1201 37.9737C25.1277 37.9772 25.1336 37.9798 25.1375 37.9815C25.1394 37.9824 25.1409 37.9831 25.1419 37.9835C25.1424 37.9837 25.1428 37.9839 25.143 37.984C25.1431 37.9841 25.1432 37.9841 25.1433 37.9841C25.1433 37.9841 25.1434 37.9842 25.1434 37.9842C25.1434 37.9842 25.1434 37.9842 25.1434 37.9842C25.1434 37.9842 25.1434 37.9842 25.1434 37.9842C25.1434 37.9842 25.1434 37.9842 25.1434 37.9842C25.1434 37.9842 25.1434 37.9842 25.1824 37.897C25.2215 37.8098 25.2215 37.8098 25.2215 37.8098C25.2215 37.8098 25.2215 37.8098 25.2215 37.8098C25.2215 37.8098 25.2215 37.8098 25.2215 37.8098C25.2215 37.8098 25.2214 37.8098 25.2214 37.8097C25.2214 37.8097 25.2214 37.8097 25.2214 37.8097C25.2213 37.8097 25.2212 37.8097 25.2211 37.8096C25.2209 37.8095 25.2205 37.8093 25.22 37.8091C25.2191 37.8087 25.2176 37.808 25.2157 37.8072C25.2119 37.8055 25.2062 37.8029 25.1986 37.7995C25.1834 37.7926 25.1609 37.7825 25.1315 37.7691L25.0525 37.9431ZM20.6601 19.891C20.7263 19.822 20.7263 19.822 20.7262 19.822C20.7262 19.8219 20.7262 19.8219 20.7262 19.8219C20.7261 19.8218 20.726 19.8217 20.7258 19.8216C20.7255 19.8213 20.7251 19.8209 20.7245 19.8203C20.7234 19.8192 20.7216 19.8176 20.7194 19.8154C20.7148 19.811 20.708 19.8045 20.6991 19.796C20.6813 19.779 20.655 19.7538 20.6209 19.7213C20.5528 19.6564 20.4537 19.5621 20.3298 19.4447C20.082 19.2099 19.7349 18.8826 19.3375 18.5128C18.5431 17.7734 17.5469 16.8627 16.7423 16.1805L16.6187 16.3262C17.4198 17.0055 18.4133 17.9136 19.2073 18.6526C19.6042 19.022 19.9509 19.3489 20.1984 19.5834C20.3221 19.7006 20.4211 19.7948 20.4891 19.8596C20.5231 19.8921 20.5493 19.9171 20.5671 19.9341C20.5759 19.9426 20.5827 19.9491 20.5872 19.9534C20.5895 19.9556 20.5912 19.9572 20.5923 19.9583C20.5929 19.9588 20.5933 19.9592 20.5936 19.9595C20.5937 19.9597 20.5938 19.9598 20.5939 19.9598C20.594 19.9599 20.594 19.9599 20.594 19.9599C20.594 19.9599 20.594 19.9599 20.6601 19.891ZM16.7423 16.1805C15.952 15.5103 14.9104 14.6908 14.0672 14.0393C13.6455 13.7135 13.273 13.4295 13.0061 13.2269C12.8726 13.1256 12.7654 13.0447 12.6916 12.9891C12.6547 12.9613 12.6262 12.9398 12.6068 12.9252C12.5972 12.918 12.5898 12.9125 12.5848 12.9087C12.5824 12.9069 12.5805 12.9055 12.5792 12.9045C12.5786 12.9041 12.5781 12.9037 12.5778 12.9035C12.5777 12.9033 12.5775 12.9033 12.5775 12.9032C12.5774 12.9032 12.5774 12.9031 12.5774 12.9031C12.5773 12.9031 12.5773 12.9031 12.52 12.9796C12.4627 13.056 12.4627 13.056 12.4627 13.056C12.4628 13.056 12.4628 13.0561 12.4628 13.0561C12.4629 13.0561 12.463 13.0562 12.4632 13.0563C12.4635 13.0566 12.4639 13.0569 12.4646 13.0574C12.4658 13.0583 12.4677 13.0597 12.4701 13.0616C12.475 13.0653 12.4824 13.0708 12.492 13.078C12.5113 13.0925 12.5398 13.1139 12.5766 13.1417C12.6502 13.1972 12.7572 13.278 12.8906 13.3791C13.1572 13.5815 13.5292 13.8651 13.9504 14.1906C14.7932 14.8417 15.8319 15.659 16.6187 16.3262L16.7423 16.1805ZM24.9313 15.0449L25.0217 15.1432L25.1623 15.0137L25.0718 14.9155L24.9313 15.0449ZM25.0217 15.1432L29.4535 19.9557L29.5941 19.8262L25.1623 15.0137L25.0217 15.1432ZM37.5684 12.9796V29.1668H37.7595V12.9796H37.5684ZM37.5684 29.1668C37.5684 29.253 37.5251 29.3741 37.4263 29.5311C37.3292 29.6855 37.1855 29.8636 37.0018 30.0608C36.6344 30.4551 36.1153 30.917 35.5117 31.408C34.3051 32.3893 32.7702 33.4788 31.4602 34.362L31.5671 34.5205C32.879 33.6359 34.4192 32.5428 35.6323 31.5562C36.2385 31.0632 36.7654 30.5948 37.1416 30.1911C37.3295 29.9893 37.482 29.8015 37.5881 29.6329C37.6925 29.4669 37.7595 29.3079 37.7595 29.1668H37.5684ZM31.4602 34.362C29.2883 35.8266 25.6702 37.4889 25.0525 37.7691L25.1315 37.9431C25.7469 37.664 29.3796 35.9955 31.5671 34.5205L31.4602 34.362ZM25.0525 37.7691C25.0231 37.7825 25.0006 37.7926 24.9854 37.7995C24.9778 37.8029 24.9721 37.8055 24.9682 37.8072C24.9663 37.808 24.9649 37.8087 24.9639 37.8091C24.9635 37.8093 24.9631 37.8095 24.9629 37.8096C24.9627 37.8097 24.9627 37.8097 24.9626 37.8097C24.9626 37.8097 24.9625 37.8097 24.9625 37.8097C24.9625 37.8098 24.9625 37.8098 24.9625 37.8098C24.9625 37.8098 24.9625 37.8098 24.9625 37.8098C24.9625 37.8098 24.9625 37.8098 24.9625 37.8098C24.9625 37.8098 24.9625 37.8098 25.0015 37.897C25.0406 37.9842 25.0406 37.9842 25.0406 37.9842C25.0406 37.9842 25.0406 37.9842 25.0406 37.9842C25.0406 37.9842 25.0406 37.9842 25.0406 37.9842C25.0406 37.9842 25.0406 37.9842 25.0406 37.9842C25.0406 37.9842 25.0406 37.9841 25.0407 37.9841C25.0407 37.9841 25.0408 37.9841 25.041 37.984C25.0412 37.9839 25.0416 37.9837 25.0421 37.9835C25.0431 37.9831 25.0446 37.9824 25.0465 37.9815C25.0504 37.9798 25.0562 37.9772 25.0639 37.9737C25.0792 37.9668 25.1019 37.9566 25.1315 37.9431L25.0525 37.7691ZM29.5238 19.891C29.59 19.9599 29.59 19.9599 29.59 19.9599C29.59 19.9599 29.59 19.9599 29.5901 19.9598C29.5901 19.9598 29.5902 19.9597 29.5904 19.9595C29.5907 19.9592 29.5911 19.9588 29.5917 19.9583C29.5928 19.9572 29.5945 19.9556 29.5968 19.9534C29.6013 19.9491 29.608 19.9426 29.6169 19.9341C29.6347 19.9171 29.6609 19.8921 29.6949 19.8596C29.7629 19.7948 29.8618 19.7006 29.9856 19.5834C30.2331 19.3489 30.5798 19.022 30.9766 18.6526C31.7706 17.9136 32.7642 17.0055 33.5652 16.3262L33.4417 16.1805C32.6371 16.8627 31.6408 17.7734 30.8464 18.5128C30.4491 18.8826 30.1019 19.2099 29.8541 19.4447C29.7302 19.5621 29.6312 19.6564 29.563 19.7213C29.529 19.7538 29.5027 19.779 29.4848 19.796C29.4759 19.8045 29.4692 19.811 29.4646 19.8154C29.4623 19.8176 29.4606 19.8192 29.4595 19.8203C29.4589 19.8209 29.4584 19.8213 29.4582 19.8216C29.458 19.8217 29.4579 19.8218 29.4578 19.8219C29.4578 19.8219 29.4578 19.8219 29.4577 19.822C29.4577 19.822 29.4577 19.822 29.5238 19.891ZM33.5652 16.3262C34.3521 15.659 35.3908 14.8417 36.2336 14.1906C36.6548 13.8651 37.0268 13.5815 37.2934 13.3791C37.4267 13.278 37.5337 13.1972 37.6074 13.1417C37.6442 13.1139 37.6727 13.0925 37.692 13.078C37.7016 13.0708 37.7089 13.0653 37.7139 13.0616C37.7163 13.0597 37.7182 13.0583 37.7194 13.0574C37.72 13.0569 37.7205 13.0566 37.7208 13.0563C37.721 13.0562 37.7211 13.0561 37.7211 13.0561C37.7212 13.0561 37.7212 13.056 37.7212 13.056C37.7213 13.056 37.7213 13.056 37.664 12.9796C37.6066 12.9031 37.6066 12.9031 37.6066 12.9031C37.6066 12.9031 37.6066 12.9032 37.6065 12.9032C37.6064 12.9033 37.6063 12.9033 37.6062 12.9035C37.6058 12.9037 37.6054 12.9041 37.6047 12.9045C37.6035 12.9055 37.6016 12.9069 37.5991 12.9087C37.5942 12.9125 37.5868 12.918 37.5772 12.9252C37.5578 12.9398 37.5293 12.9613 37.4924 12.9891C37.4186 13.0447 37.3114 13.1256 37.1779 13.2269C36.9109 13.4295 36.5385 13.7135 36.1167 14.0393C35.2736 14.6908 34.232 15.5103 33.4417 16.1805L33.5652 16.3262Z" fill="#2F2C67"/>
<path fill-rule="evenodd" clip-rule="evenodd" d="M15.9249 20.3479L14.6526 19.6208V25.4373L15.9249 26.3461H18.6514V29.2544L16.1067 27.8003H14.2891L21.0144 31.7991L23.5591 26.7097H26.6491L29.3756 31.7991L31.5567 30.5267V26.7097H34.1015V29.2544L35.5556 28.5273V19.6208L34.1015 20.3479V25.0738H31.5567V21.2567L30.1026 21.9838V25.0738H28.1032L25.0132 18.5302L22.2867 25.0738H20.1055V21.9838L18.6514 21.2567V25.0738H15.9249V20.3479ZM24.1037 25.0738L25.0125 22.8926L26.1031 25.0738H24.1037ZM20.1049 29.6179V26.7097H21.559L20.1049 29.6179ZM30.102 26.7097V29.6179L28.6478 26.7097H30.102Z" fill="#2F2C67"/>
<path fill-rule="evenodd" clip-rule="evenodd" d="M25.3666 0.249304C25.1765 0.0675319 24.9321 -0.0148401 24.6333 0.00218773C24.3563 -0.00337282 24.1245 0.0889431 23.9382 0.279135C23.7527 0.468387 23.6627 0.702356 23.6683 0.981043C23.6732 1.22928 23.7504 1.44238 23.8998 1.62034C24.0889 1.84552 24.3523 1.95475 24.6901 1.94803C25.0269 1.94132 25.2852 1.81616 25.465 1.57256C25.6007 1.38891 25.6662 1.17805 25.6615 0.939964C25.6559 0.661277 25.5577 0.431057 25.3666 0.249304ZM24.2652 0.361247C24.3512 0.184131 24.4801 0.0938644 24.6517 0.0904463C24.7449 0.0885902 24.8275 0.112332 24.8996 0.161671C24.9726 0.210992 25.0334 0.297021 25.082 0.419758C25.1306 0.541572 25.1573 0.726597 25.1623 0.974831C25.1664 1.18339 25.1472 1.35317 25.1046 1.48419C25.0619 1.61428 25.0006 1.70966 24.9206 1.77034C24.8578 1.81775 24.7789 1.8424 24.6839 1.84429C24.5427 1.8471 24.4318 1.79577 24.3512 1.69029C24.2356 1.53934 24.1746 1.30376 24.1682 0.98355C24.1628 0.714091 24.1952 0.506656 24.2652 0.361247Z" fill="#2F2C67"/>
<path d="M23.3639 1.91324L23.3686 1.96425L22.3911 2.05411L22.3865 2.0031L22.4485 1.9974C22.5027 1.99241 22.5455 1.97875 22.5768 1.9564C22.5995 1.94134 22.6159 1.91759 22.6259 1.88516C22.634 1.86217 22.6337 1.8038 22.6251 1.71005L22.512 0.480279C22.5032 0.384691 22.4927 0.325414 22.4804 0.302446C22.4681 0.279479 22.4455 0.2607 22.4126 0.246109C22.3806 0.230515 22.3384 0.225127 22.286 0.229943L22.224 0.235646L22.2193 0.184635L23.1968 0.0947755L23.2015 0.145786L23.1394 0.15149C23.0852 0.156475 23.0424 0.170139 23.0111 0.192482C22.9884 0.207547 22.9716 0.231337 22.9607 0.263855C22.9526 0.286843 22.9528 0.345212 22.9615 0.438961L23.0745 1.66873C23.0833 1.76432 23.0939 1.8236 23.1062 1.84657C23.1194 1.86945 23.142 1.88869 23.174 1.90428C23.2069 1.91887 23.2495 1.92376 23.3019 1.91894L23.3639 1.91324Z" fill="#2F2C67"/>
<path d="M21.9999 0.715251L21.9193 0.213585L20.2543 0.481196L20.335 0.982862L20.3869 0.974513C20.3859 0.834451 20.4191 0.72114 20.4865 0.634582C20.5345 0.572646 20.621 0.531644 20.7458 0.511577L20.8798 0.490045L21.1096 1.91986C21.1245 2.01281 21.1287 2.07103 21.1222 2.09451C21.1136 2.12769 21.0984 2.15257 21.0767 2.16913C21.047 2.19354 21.0053 2.21007 20.9515 2.21871L20.89 2.2286L20.8981 2.27918L21.8686 2.12318L21.8605 2.0726L21.799 2.08249C21.7461 2.09099 21.7028 2.08907 21.6691 2.07673C21.6361 2.06334 21.6122 2.04568 21.5974 2.02374C21.5836 2.00166 21.5691 1.94323 21.5538 1.84845L21.324 0.418638L21.4621 0.396447C21.5487 0.382532 21.6106 0.380993 21.6478 0.39183C21.7146 0.411942 21.7699 0.444658 21.8137 0.489978C21.8573 0.534386 21.9029 0.612114 21.9507 0.723161L21.9999 0.715251Z" fill="#2F2C67"/>
<path fill-rule="evenodd" clip-rule="evenodd" d="M19.6271 2.00149L18.9832 2.16017L18.9503 2.3565C18.9398 2.42183 18.9393 2.47376 18.9487 2.5123C18.9613 2.56338 18.9912 2.59594 19.0384 2.60998C19.0661 2.61835 19.1284 2.61442 19.2251 2.59818L19.2374 2.64792L18.6311 2.79732L18.6189 2.74758C18.6819 2.7216 18.729 2.68147 18.7603 2.62717C18.7914 2.57199 18.8207 2.46732 18.8483 2.31317L19.1419 0.698012L19.1674 0.691717L20.1931 2.02455C20.2908 2.15069 20.3643 2.22716 20.4137 2.25397C20.451 2.27424 20.498 2.27977 20.5546 2.27056L20.5669 2.3203L19.685 2.53761L19.6728 2.48787L19.7091 2.47893C19.7799 2.46148 19.8272 2.43936 19.851 2.41258C19.8672 2.39338 19.872 2.37034 19.8653 2.34346C19.8614 2.32733 19.8546 2.31141 19.845 2.29571C19.8412 2.28808 19.8195 2.25779 19.7799 2.20482L19.6271 2.00149ZM19.5569 1.91328L19.1306 1.35242L19.0057 2.0491L19.5569 1.91328Z" fill="#2F2C67"/>
<path d="M18.4071 2.87529L18.3915 2.82648L18.3321 2.84539C18.282 2.86136 18.2393 2.86576 18.2041 2.85857C18.1695 2.85023 18.1433 2.83631 18.1254 2.81681C18.1085 2.79702 18.0854 2.7414 18.0563 2.64994L17.6814 1.47327C17.6528 1.38356 17.64 1.32662 17.6429 1.30243C17.6466 1.26833 17.6579 1.24148 17.6768 1.22188C17.7026 1.19332 17.7414 1.17078 17.7933 1.15425L17.8527 1.13534L17.8371 1.08653L16.9019 1.38452L16.9174 1.43333L16.9768 1.41441C17.0269 1.39844 17.0693 1.39463 17.1039 1.40297C17.1391 1.41015 17.1652 1.42364 17.1822 1.44342C17.1991 1.4632 17.2222 1.51882 17.2513 1.61028L17.6262 2.78696C17.6548 2.87666 17.6676 2.93361 17.6647 2.9578C17.6619 2.99162 17.651 3.01833 17.6321 3.03793C17.6063 3.06648 17.5675 3.08903 17.5156 3.10556L17.4562 3.12447L17.4718 3.17328L18.4071 2.87529Z" fill="#2F2C67"/>
<path d="M16.4909 1.47453L16.7314 2.07917L16.6812 2.09912C16.5807 1.95632 16.4623 1.86337 16.326 1.82025C16.1896 1.77713 16.0563 1.7815 15.9259 1.83335C15.817 1.87667 15.7295 1.94771 15.6635 2.04647C15.5975 2.14524 15.5636 2.25358 15.5618 2.3715C15.5593 2.52249 15.5896 2.67732 15.6527 2.83598C15.7148 2.99208 15.7911 3.1266 15.8817 3.23956C15.972 3.35165 16.0723 3.42401 16.1826 3.45662C16.2926 3.48837 16.4145 3.47764 16.5483 3.42443C16.6581 3.38077 16.7489 3.31685 16.8207 3.23266C16.8933 3.14813 16.9569 3.027 17.0114 2.86925L17.0712 3.01977C17.0141 3.16071 16.9415 3.27549 16.8536 3.3641C16.7662 3.45151 16.6517 3.52336 16.5102 3.57964C16.3241 3.65366 16.1437 3.68218 15.9691 3.66521C15.7953 3.64791 15.6412 3.58504 15.5067 3.47663C15.3731 3.36787 15.2748 3.23459 15.2121 3.07678C15.1459 2.9104 15.1265 2.73537 15.1537 2.55169C15.1819 2.36766 15.2533 2.20515 15.3681 2.06415C15.4837 1.9228 15.6247 1.81904 15.7911 1.75287C15.9137 1.70409 16.0538 1.67917 16.2113 1.67811C16.3025 1.6776 16.3588 1.67309 16.3803 1.66456C16.4077 1.65364 16.4274 1.6344 16.4392 1.60683C16.4516 1.57806 16.4521 1.54061 16.4408 1.49448L16.4909 1.47453Z" fill="#2F2C67"/>
<path fill-rule="evenodd" clip-rule="evenodd" d="M14.2454 2.72064C13.9948 2.64062 13.739 2.67376 13.478 2.82005C13.2265 2.93653 13.0587 3.1211 12.9746 3.37376C12.8909 3.62517 12.9126 3.8749 13.0398 4.12294C13.153 4.34387 13.3158 4.50156 13.5282 4.596C13.7969 4.71547 14.0815 4.69814 14.3821 4.54401C14.6819 4.3903 14.8592 4.16457 14.9139 3.8668C14.9554 3.64223 14.9218 3.424 14.8132 3.2121C14.686 2.96406 14.4967 2.80024 14.2454 2.72064ZM13.3045 3.30416C13.3042 3.10726 13.3804 2.96965 13.5332 2.89132C13.6161 2.84879 13.7008 2.83389 13.7872 2.84664C13.8744 2.85897 13.9668 2.90963 14.0643 2.99863C14.1614 3.08681 14.2665 3.24137 14.3798 3.46231C14.475 3.64792 14.5321 3.80895 14.5513 3.94539C14.57 4.08101 14.5567 4.19364 14.5114 4.28326C14.4757 4.35338 14.4156 4.41013 14.331 4.45351C14.2054 4.51794 14.0832 4.52041 13.9646 4.46093C13.7944 4.37597 13.6363 4.19099 13.4902 3.90599C13.3672 3.66616 13.3053 3.46555 13.3045 3.30416Z" fill="#2F2C67"/>
<path d="M12.0759 3.57544L12.4199 4.09841L12.3718 4.12844C12.266 4.00945 12.1434 3.93746 12.0038 3.91246C11.8645 3.88619 11.7432 3.90528 11.6398 3.96974C11.5599 4.01955 11.5099 4.08065 11.4897 4.15302C11.4699 4.22413 11.4773 4.28749 11.512 4.3431C11.534 4.37834 11.5617 4.40454 11.5953 4.4217C11.6409 4.44435 11.7 4.45806 11.7726 4.46283C11.8256 4.46573 11.9391 4.45856 12.1133 4.44134C12.3568 4.41675 12.5365 4.42491 12.6523 4.46584C12.7673 4.50725 12.8575 4.58043 12.923 4.68538C13.006 4.81853 13.0254 4.96574 12.9813 5.12703C12.9375 5.28704 12.8357 5.41686 12.676 5.51648C12.6258 5.54773 12.5753 5.57219 12.5243 5.58984C12.4733 5.6075 12.4053 5.62322 12.3204 5.63702C12.273 5.6448 12.2372 5.65626 12.2129 5.6714C12.1926 5.68409 12.1759 5.70535 12.163 5.73518C12.15 5.76501 12.1465 5.80037 12.1524 5.84127L12.109 5.86838L11.7339 5.26686L11.7774 5.23976C11.9173 5.38745 12.0641 5.47542 12.2176 5.50366C12.3715 5.53063 12.5052 5.50872 12.6188 5.43791C12.7065 5.38321 12.7613 5.31586 12.7832 5.23585C12.8059 5.15536 12.7975 5.08339 12.7579 5.01995C12.7345 4.98236 12.7016 4.95229 12.6593 4.92974C12.6177 4.9067 12.5668 4.89221 12.5065 4.88628C12.4458 4.87956 12.3479 4.88298 12.2127 4.89653C12.0234 4.9156 11.8814 4.91985 11.7867 4.90928C11.692 4.89871 11.6081 4.87323 11.5351 4.83284C11.4628 4.79197 11.4035 4.73432 11.3571 4.65992C11.278 4.53304 11.2572 4.3959 11.2947 4.2485C11.3323 4.1011 11.4219 3.9832 11.5637 3.89481C11.6154 3.86258 11.6694 3.8376 11.7258 3.81985C11.7685 3.8063 11.8241 3.79608 11.8927 3.78921C11.9616 3.78107 12.0066 3.7704 12.0277 3.75722C12.0481 3.74452 12.0602 3.72824 12.0642 3.70839C12.0681 3.68853 12.0603 3.65154 12.0407 3.59742L12.0759 3.57544Z" fill="#2F2C67"/>
<path d="M10.9242 5.06485L10.5431 4.56821L10.5096 4.59268C10.533 4.64524 10.5435 4.68157 10.5411 4.70166C10.5386 4.72175 10.5276 4.73886 10.5083 4.753C10.4881 4.76769 10.444 4.78159 10.3759 4.79471C10.308 4.80654 10.2532 4.82076 10.2116 4.83737C10.1567 4.85916 10.1046 4.888 10.0554 4.92389C9.92043 5.02233 9.83957 5.14642 9.81283 5.29615C9.78609 5.44588 9.81677 5.58115 9.90487 5.70196C9.95654 5.77281 10.0199 5.826 10.0949 5.86152C10.1707 5.89651 10.2562 5.91584 10.3514 5.91951C10.4466 5.92319 10.5879 5.90865 10.7754 5.8759C10.9092 5.85258 11.0066 5.84207 11.0677 5.84436C11.1282 5.84591 11.1801 5.85667 11.2232 5.87663C11.267 5.89605 11.302 5.92365 11.3281 5.95945C11.3722 6.01985 11.3858 6.09102 11.369 6.17295C11.353 6.25433 11.3032 6.32548 11.2197 6.38639C11.1115 6.46525 10.9798 6.49681 10.8243 6.48107C10.6691 6.46404 10.5164 6.38695 10.3661 6.2498L10.3247 6.27998L10.7424 6.85271L10.7838 6.82252C10.7749 6.78216 10.7758 6.74663 10.7866 6.71595C10.7973 6.68526 10.8124 6.66285 10.8318 6.64871C10.8549 6.63185 10.8898 6.61782 10.9365 6.60663C11.0202 6.58671 11.0868 6.56609 11.1364 6.54479C11.186 6.52348 11.2346 6.49542 11.2824 6.46062C11.4345 6.34967 11.5266 6.21281 11.5587 6.05004C11.591 5.88598 11.5609 5.74057 11.4684 5.61379C11.3956 5.51386 11.3003 5.44742 11.1826 5.41446C11.0641 5.38204 10.8843 5.38693 10.6432 5.42911C10.4707 5.45893 10.358 5.47431 10.305 5.47526C10.2323 5.47576 10.1723 5.46638 10.1251 5.4471C10.0904 5.43242 10.0608 5.4083 10.0364 5.37474C9.99775 5.32179 9.98576 5.25914 10.0004 5.18679C10.0152 5.11314 10.0607 5.04858 10.1367 4.9931C10.2352 4.92131 10.3548 4.89347 10.4956 4.90957C10.6367 4.92438 10.7642 4.98729 10.8783 5.09829L10.9242 5.06485Z" fill="#2F2C67"/>
<path fill-rule="evenodd" clip-rule="evenodd" d="M9.70345 6.96127L9.19892 7.39167L9.25749 7.58192C9.27737 7.64504 9.30018 7.69169 9.32594 7.72189C9.36009 7.76191 9.4014 7.77763 9.44987 7.76903C9.47841 7.76409 9.5323 7.73268 9.61152 7.6748L9.64477 7.71377L9.16974 8.11902L9.13649 8.08005C9.18116 8.02859 9.20532 7.97159 9.20897 7.90902C9.21202 7.84576 9.19135 7.73904 9.14695 7.58887L8.68557 6.01342L8.70558 5.99635L10.2198 6.72821C10.3636 6.79723 10.4636 6.83265 10.5198 6.83448C10.5622 6.83588 10.6067 6.81977 10.6532 6.78614L10.6865 6.82511L9.99551 7.41456L9.96227 7.37559L9.99071 7.35133C10.0462 7.304 10.0786 7.26303 10.0879 7.22842C10.0937 7.204 10.0877 7.18126 10.0697 7.1602C10.0589 7.14756 10.0457 7.13636 10.0301 7.12662C10.0233 7.12149 9.99033 7.10415 9.93114 7.07458L9.70345 6.96127ZM9.60114 6.91387L8.96876 6.6035L9.1693 7.28228L9.60114 6.91387Z" fill="#2F2C67"/>
<path fill-rule="evenodd" clip-rule="evenodd" d="M7.68648 8.5935L6.20219 8.49118L5.75276 8.98258L5.79056 9.01716C5.83054 8.97617 5.8666 8.94974 5.89874 8.93785C5.93087 8.92597 5.97872 8.9222 6.04228 8.92655L6.10616 8.93056L7.08387 9.82475C7.15743 9.89202 7.19583 9.95466 7.19907 10.0127C7.20157 10.0574 7.18254 10.1078 7.14198 10.1638L7.1402 10.1624C7.10178 10.2051 7.06167 10.2302 7.01988 10.2377C6.96459 10.2478 6.8594 10.2341 6.70431 10.1969L5.0701 9.79949L5.05412 9.82038L5.83622 11.2637C5.91117 11.4012 5.95381 11.5012 5.96412 11.5637C5.97369 11.6256 5.96205 11.6864 5.92919 11.7461L5.96988 11.7773L6.34916 11.2812L6.30847 11.2501C6.24318 11.3234 6.19709 11.3654 6.17023 11.3762C6.12464 11.3948 6.08095 11.3881 6.03916 11.3562C6.00763 11.3321 5.97552 11.2912 5.94283 11.2337L5.84559 11.06L6.24842 10.5332L6.49484 10.5962C6.55893 10.6126 6.59483 10.6227 6.60255 10.6262C6.61985 10.6325 6.63509 10.6407 6.64829 10.6507C6.67029 10.6676 6.68098 10.6885 6.68038 10.7136C6.67857 10.7494 6.65552 10.7963 6.61123 10.8542L6.58852 10.8839L6.62921 10.915L7.13807 10.2496L7.58753 9.75818L7.54973 9.72361L7.51983 9.7563C7.47685 9.8033 7.42458 9.83241 7.36302 9.84365C7.30208 9.85421 7.23177 9.82305 7.15208 9.75017L6.27142 8.94474L8.28167 9.0628L8.31344 9.02807L7.16001 7.97317C7.09462 7.91336 7.05363 7.86587 7.03704 7.83068C7.02038 7.79418 7.0153 7.76077 7.02179 7.73042C7.02821 7.69878 7.05447 7.65024 7.10054 7.58482L7.06274 7.55025L6.64415 8.00794L6.68195 8.04251C6.75097 7.9643 6.82019 7.92692 6.88959 7.93035C6.94068 7.9333 7.00777 7.97277 7.09087 8.04877L7.68648 8.5935ZM6.13845 10.5084L5.45496 10.3378L5.79364 10.9593L6.13845 10.5084Z" fill="#2F2C67"/>
<path d="M5.86004 11.9604L5.81736 11.932L5.78289 11.9839C5.75379 12.0278 5.72325 12.0579 5.69128 12.0743C5.65905 12.0895 5.62987 12.095 5.60375 12.091C5.57815 12.0862 5.52536 12.0572 5.4454 12.0041L4.41669 11.3208C4.33827 11.2687 4.29264 11.2323 4.27981 11.2116C4.26133 11.1827 4.25334 11.1547 4.25586 11.1275C4.25809 11.0891 4.27428 11.0473 4.30441 11.0019L4.33888 10.95L4.29621 10.9217L3.75311 11.7393L3.79578 11.7677L3.83025 11.7158C3.85936 11.6719 3.89003 11.6425 3.92225 11.6273C3.95423 11.6109 3.98301 11.6051 4.00862 11.6099C4.03423 11.6147 4.08701 11.6437 4.16697 11.6968L5.19568 12.38C5.27411 12.4321 5.31974 12.4685 5.33257 12.4893C5.35156 12.5174 5.3598 12.545 5.35729 12.5722C5.35505 12.6106 5.33886 12.6524 5.30873 12.6978L5.27426 12.7497L5.31693 12.778L5.86004 11.9604Z" fill="#2F2C67"/>
<path d="M2.93998 13.1363L4.40873 12.8989L3.70497 12.5036C3.60679 12.4485 3.53249 12.4253 3.48207 12.434C3.4137 12.4464 3.35478 12.4985 3.30532 12.5904L3.26065 12.5653L3.56437 12.0245L3.60904 12.0496C3.57902 12.1238 3.56447 12.177 3.5654 12.2093C3.56598 12.2403 3.57852 12.2717 3.60302 12.3034C3.62718 12.3339 3.67788 12.3709 3.75514 12.4143L5.118 13.1797L5.09495 13.2207L3.11041 13.5623L4.15097 14.1467C4.24512 14.1995 4.32068 14.2139 4.37762 14.1898C4.43503 14.1649 4.47932 14.1246 4.5105 14.0691L4.5322 14.0305L4.57686 14.0556L4.25077 14.6362L4.20611 14.6111C4.25592 14.5205 4.27267 14.4474 4.25634 14.3916C4.24001 14.3359 4.18839 14.2836 4.10148 14.2348L2.94624 13.586L2.88313 13.5966C2.82024 13.6068 2.77449 13.6213 2.7459 13.6402C2.7173 13.6591 2.68819 13.693 2.65856 13.742L2.61389 13.7169L2.93998 13.1363Z" fill="#2F2C67"/>
<path fill-rule="evenodd" clip-rule="evenodd" d="M4.15271 14.8789L4.10628 14.8572L4.07995 14.9137C4.05772 14.9614 4.03202 14.9957 4.00287 15.0168C3.97326 15.0366 3.94525 15.0464 3.91882 15.0463C3.89278 15.0454 3.83626 15.0246 3.74926 14.984L2.63002 14.4621C2.5447 14.4223 2.49414 14.3931 2.47836 14.3746C2.45577 14.3488 2.44369 14.3222 2.44212 14.295C2.4386 14.2567 2.44834 14.2129 2.47136 14.1635L2.49769 14.1071L2.45126 14.0854L2.0364 14.975L2.08283 14.9967L2.10916 14.9402C2.13139 14.8926 2.15731 14.8588 2.18692 14.839C2.21607 14.818 2.24367 14.8079 2.26971 14.8089C2.29575 14.8098 2.35227 14.8306 2.43927 14.8711L3.55851 15.3931C3.64383 15.4329 3.69438 15.4621 3.71017 15.4806C3.73315 15.5056 3.74542 15.5317 3.74699 15.5589C3.75024 15.5942 3.7422 15.6342 3.72288 15.679L3.70572 15.6724C3.68084 15.7241 3.6494 15.7595 3.61142 15.7785C3.56117 15.8036 3.45639 15.8201 3.29708 15.8279L1.61707 15.9061L1.60761 15.9306L2.76396 17.0958C2.87455 17.2067 2.94358 17.2907 2.97104 17.3478C2.99765 17.4045 3.00357 17.4661 2.98881 17.5327L3.03661 17.5511L3.26114 16.9684L3.21335 16.95C3.17127 17.0387 3.13887 17.0919 3.11613 17.1099C3.0776 17.1405 3.0338 17.1464 2.98471 17.1275C2.94767 17.1132 2.90538 17.0831 2.85783 17.0371L2.71568 16.8977L2.95415 16.2789L3.20833 16.27C3.27446 16.2678 3.31174 16.2673 3.32015 16.2686C3.33851 16.2697 3.35544 16.2733 3.37094 16.2793C3.39678 16.2892 3.41293 16.3063 3.41941 16.3306C3.42774 16.3655 3.41879 16.4169 3.39257 16.4849L3.37913 16.5198L3.42693 16.5382L3.72575 15.7629L3.73785 15.7685L4.15271 14.8789ZM2.84163 16.286L2.13776 16.3144L2.63751 16.8156L2.84163 16.286Z" fill="#2F2C67"/>
<path fill-rule="evenodd" clip-rule="evenodd" d="M2.32396 18.834L1.81769 18.6909L1.8512 18.5723L2.83912 18.2229L2.99992 17.654L2.95062 17.64C2.9344 17.6873 2.90738 17.7252 2.86955 17.7538C2.84323 17.7723 2.78252 17.7987 2.6874 17.8333L1.95312 18.0947C1.95671 17.9768 1.93964 17.8794 1.90189 17.8026C1.84196 17.682 1.74539 17.603 1.61216 17.5653C1.50291 17.5344 1.39884 17.5395 1.29994 17.5806C1.20015 17.6215 1.12084 17.6883 1.06202 17.781C1.00321 17.8737 0.942917 18.0293 0.881158 18.2478L0.643913 19.0871L0.693207 19.1011C0.716555 19.0185 0.740047 18.9642 0.763682 18.9383C0.787317 18.9123 0.813645 18.8972 0.842666 18.893C0.87105 18.8876 0.934093 18.8987 1.03179 18.9263L2.2042 19.2577C2.3019 19.2853 2.36143 19.3088 2.38279 19.3283C2.40439 19.3469 2.41892 19.3735 2.42637 19.4082C2.43319 19.4418 2.42479 19.5004 2.4012 19.5839L2.45049 19.5978L2.71184 18.6732L2.66254 18.6592C2.63919 18.7418 2.6157 18.7961 2.59207 18.822C2.56843 18.848 2.54242 18.8636 2.51404 18.869C2.48502 18.8733 2.42166 18.8616 2.32396 18.834ZM1.7231 18.6642L0.931719 18.4405L0.972012 18.2979C1.01243 18.1549 1.07454 18.0608 1.15834 18.0154C1.2424 17.9691 1.35326 17.9655 1.49093 18.0044C1.58596 18.0312 1.65822 18.0708 1.70768 18.1232C1.75651 18.1744 1.78381 18.2339 1.78958 18.3017C1.79446 18.3693 1.77946 18.4648 1.74456 18.5882L1.7231 18.6642Z" fill="#2F2C67"/>
<path d="M1.09549 20.5442L2.026 20.0408C2.15698 19.9696 2.24887 19.9046 2.30169 19.8457C2.33943 19.8027 2.36313 19.7545 2.37278 19.7009L2.4232 19.71L2.24994 20.6719L2.19953 20.6629C2.20504 20.601 2.20254 20.5602 2.19202 20.5405C2.18167 20.5199 2.1665 20.5078 2.14651 20.5042C2.10836 20.4973 2.02907 20.5262 1.90865 20.5908L1.29957 20.9186L1.34453 20.997L1.84868 21.0878C1.94496 21.1052 2.0059 21.1105 2.03148 21.1039C2.05706 21.0972 2.08126 21.08 2.10408 21.0522C2.12599 21.0243 2.14309 20.9763 2.15536 20.9081L2.20577 20.9172L2.03792 21.8492L1.9875 21.8401L1.99855 21.7788C2.0082 21.7252 2.00643 21.6803 1.99325 21.6442C1.98478 21.6183 1.96625 21.5962 1.93766 21.5779C1.91766 21.564 1.86133 21.5487 1.76867 21.532L0.553271 21.3131C0.4588 21.2961 0.398856 21.2905 0.373439 21.2962C0.348021 21.3019 0.323902 21.3187 0.301081 21.3465C0.277514 21.3732 0.261069 21.4124 0.251743 21.4642L0.2407 21.5255L0.190286 21.5164L0.355931 20.5967L0.406345 20.6058C0.395057 20.6685 0.395552 20.7178 0.407829 20.7538C0.416293 20.7797 0.434286 20.8021 0.461808 20.8212C0.482555 20.8362 0.539709 20.8521 0.633271 20.8689L1.20827 20.9725L0.777146 20.1872C0.717112 20.078 0.663932 20.0191 0.617605 20.0108C0.583086 20.0046 0.552318 20.0192 0.525299 20.0547C0.511708 20.0728 0.496433 20.1212 0.479474 20.1997L0.42906 20.1907L0.558876 19.4699L0.609291 19.479C0.602217 19.5443 0.604864 19.5973 0.617233 19.6379C0.628856 19.6775 0.676319 19.7733 0.759622 19.9252L1.09549 20.5442Z" fill="#2F2C67"/>
<path d="M0 23.8007L0.0775842 22.8347L0.128646 22.8388L0.124766 22.8871C0.118929 22.9598 0.122722 23.0106 0.136146 23.0394C0.148724 23.0673 0.167873 23.0883 0.193593 23.1024C0.219387 23.1155 0.285646 23.1264 0.392369 23.135L1.30871 23.2086C1.47616 23.222 1.58802 23.2185 1.6443 23.198C1.70065 23.1766 1.74909 23.1384 1.78963 23.0833C1.83016 23.0282 1.85398 22.9565 1.86107 22.8682C1.8692 22.767 1.85357 22.6792 1.81417 22.6047C1.77394 22.5293 1.7152 22.4708 1.63797 22.4294C1.56081 22.3871 1.42286 22.358 1.22414 22.342L0.460975 22.2808C0.377253 22.274 0.316749 22.278 0.279464 22.2926C0.242179 22.3072 0.215565 22.3272 0.199622 22.3528C0.175136 22.3925 0.159864 22.4501 0.153805 22.5255L0.102744 22.5214L0.154725 21.8742L0.205786 21.8783L0.202683 21.9169C0.198471 21.9694 0.205542 22.0139 0.223894 22.0506C0.242247 22.0873 0.271956 22.1151 0.313021 22.1341C0.341502 22.1485 0.393923 22.1587 0.470285 22.1648L1.18101 22.2219C1.40089 22.2396 1.55841 22.267 1.65357 22.3043C1.7488 22.3407 1.83285 22.4182 1.90572 22.5371C1.97859 22.6559 2.00723 22.8124 1.99164 23.0065C1.97863 23.1684 1.94696 23.2918 1.89663 23.3766C1.82807 23.4924 1.74579 23.5715 1.6498 23.6138C1.55381 23.6561 1.42807 23.671 1.27258 23.6585L0.356237 23.5849C0.248594 23.5762 0.181411 23.5769 0.15469 23.5868C0.127049 23.5966 0.104226 23.6156 0.0862209 23.6438C0.068216 23.6719 0.0564963 23.7256 0.0510618 23.8048L0 23.8007Z" fill="#2F2C67"/>
<path d="M26.8391 0.0737982L27.6711 1.30721L27.7344 0.502544C27.7433 0.390286 27.7331 0.313107 27.7041 0.271007C27.6641 0.214164 27.592 0.182572 27.4879 0.176231L27.4919 0.125163L28.1103 0.173813L28.1063 0.224881C28.0263 0.228777 27.9719 0.23792 27.943 0.252311C27.9151 0.265854 27.8919 0.290413 27.8733 0.325988C27.8558 0.360715 27.8435 0.422246 27.8366 0.510579L27.714 2.06884L27.667 2.06515L26.524 0.407307L26.4304 1.59705C26.4219 1.70471 26.4406 1.77932 26.4864 1.82088C26.5331 1.86252 26.5882 1.88583 26.6517 1.89083L26.6959 1.8943L26.6918 1.94537L26.028 1.89314L26.032 1.84207C26.1351 1.84926 26.2085 1.83374 26.2523 1.79552C26.296 1.7573 26.3218 1.6885 26.3296 1.58913L26.4336 0.268259L26.3974 0.215422C26.3618 0.162621 26.3294 0.127205 26.3003 0.109173C26.2711 0.0911415 26.2281 0.0789614 26.1712 0.0726325L26.1752 0.0215645L26.8391 0.0737982Z" fill="#2F2C67"/>
<path fill-rule="evenodd" clip-rule="evenodd" d="M31.0389 0.927014C30.8937 0.707705 30.6735 0.57332 30.3784 0.523859C30.1094 0.457169 29.863 0.495957 29.6392 0.640225C29.4164 0.783775 29.2769 0.992058 29.2207 1.26507C29.1707 1.50826 29.1988 1.73315 29.3052 1.93974C29.4398 2.20117 29.6726 2.36595 30.0034 2.43408C30.3334 2.50202 30.613 2.43708 30.8422 2.23926C31.0152 2.09018 31.1257 1.89902 31.1737 1.66578C31.2299 1.39277 31.185 1.14651 31.0389 0.927014ZM29.94 0.792626C30.063 0.638917 30.2086 0.579374 30.3768 0.613996C30.4681 0.632796 30.5434 0.674223 30.6028 0.738277C30.6631 0.802517 30.7033 0.899861 30.7236 1.03031C30.744 1.15985 30.7292 1.34621 30.6792 1.58939C30.6371 1.7937 30.5808 1.95503 30.5102 2.07338C30.4399 2.19082 30.359 2.27028 30.2675 2.31176C30.1958 2.34411 30.1134 2.35071 30.0203 2.33153C29.882 2.30306 29.7852 2.22847 29.73 2.10778C29.6506 1.93501 29.6432 1.69177 29.7078 1.37807C29.7621 1.1141 29.8395 0.918949 29.94 0.792626Z" fill="#2F2C67"/>
<path d="M32.4479 1.17951L32.2279 1.91863L32.2797 1.93403C32.3593 1.95773 32.4279 1.96514 32.4854 1.95626C32.5429 1.94738 32.5974 1.91976 32.6487 1.87341C32.701 1.82733 32.7467 1.75765 32.786 1.66438L32.8325 1.6782L32.5636 2.58187L32.5171 2.56805C32.5511 2.39231 32.5386 2.26627 32.4794 2.18993C32.4214 2.11297 32.3451 2.0604 32.2505 2.03223L32.1987 2.01683L32.0348 2.56752C32.0074 2.65952 31.9952 2.71847 31.9981 2.74437C32.0019 2.77053 32.0157 2.7968 32.0396 2.82318C32.0647 2.84894 32.1025 2.86932 32.1529 2.88433L32.2126 2.9021L32.198 2.9512L31.2572 2.67121L31.2718 2.62211L31.3315 2.63989C31.3837 2.65542 31.4285 2.65863 31.4658 2.64953C31.4925 2.64399 31.5165 2.62803 31.5379 2.60164C31.5539 2.5833 31.5754 2.52902 31.6022 2.43878L31.9545 1.25513C31.9819 1.16312 31.9941 1.10417 31.9912 1.07828C31.9883 1.05238 31.9744 1.02655 31.9493 1.00079C31.9253 0.974412 31.8882 0.953719 31.8377 0.938712L31.778 0.920942L31.7926 0.871844L33.3107 1.32361L33.1571 1.8398L33.1027 1.82361C33.1264 1.69873 33.1212 1.59946 33.0873 1.5258C33.0542 1.45241 32.9931 1.38942 32.9037 1.33684C32.8546 1.30778 32.7584 1.27192 32.6151 1.22927L32.4479 1.17951Z" fill="#2F2C67"/>
<path d="M35.3768 3.39516L34.9834 1.9603L34.3712 1.69829L34.351 1.74539C34.4029 1.7696 34.4398 1.79491 34.4616 1.82132C34.4834 1.84773 34.5028 1.89165 34.5197 1.95309L34.537 2.01471L34.0157 3.2328C33.9765 3.32444 33.93 3.38137 33.8763 3.40357C33.8227 3.42578 33.7481 3.41697 33.6527 3.37715L33.6326 3.42424L34.2448 3.68625L34.2649 3.63915L34.2242 3.62172C34.1657 3.59667 34.1209 3.55694 34.09 3.50254C34.0599 3.4485 34.0661 3.37184 34.1086 3.27256L34.5781 2.17539L35.1303 4.11191L35.1736 4.13043L35.7886 2.69341C35.8234 2.61195 35.8548 2.55758 35.8825 2.53029C35.9114 2.50252 35.9413 2.48669 35.9721 2.4828C36.0041 2.47842 36.0586 2.48718 36.1355 2.50907L36.1557 2.46198L35.5855 2.21795L35.5653 2.26504C35.6619 2.30438 35.7201 2.35737 35.7397 2.42402C35.7538 2.47322 35.7387 2.54958 35.6944 2.6531L35.3768 3.39516Z" fill="#2F2C67"/>
<path d="M37.0516 3.05077L36.6901 3.72412L36.7231 3.7418C36.828 3.79811 36.9217 3.806 37.0042 3.76544C37.0867 3.72489 37.169 3.64387 37.251 3.52236L37.2973 3.54724L36.8324 4.41333L36.7861 4.38844C36.8269 4.28887 36.8477 4.20048 36.8483 4.12328C36.8497 4.04651 36.8351 3.98683 36.8045 3.94424C36.7744 3.90083 36.7199 3.85795 36.641 3.81561L36.3909 4.28158C36.342 4.37267 36.3157 4.43034 36.3121 4.4546C36.3094 4.47929 36.3151 4.50382 36.3292 4.52818C36.3434 4.55254 36.374 4.57738 36.4212 4.6027L36.52 4.65575C36.6745 4.73869 36.8173 4.76926 36.9485 4.74747C37.0804 4.72611 37.206 4.65315 37.3252 4.5286L37.3704 4.55282L37.0137 5.03863L35.5841 4.27118L35.6083 4.22604L35.6632 4.25551C35.7112 4.28127 35.7544 4.29346 35.7928 4.2921C35.8201 4.29207 35.8468 4.28128 35.8731 4.25974C35.8925 4.24503 35.9245 4.1962 35.969 4.11325L36.5531 3.02515C36.5933 2.95034 36.6159 2.9033 36.621 2.88404C36.6281 2.85121 36.6249 2.82118 36.6112 2.79394C36.5925 2.75458 36.5564 2.72049 36.5027 2.69168L36.4478 2.66221L36.472 2.61708L37.8565 3.3603L37.5939 3.84946L37.5476 3.82457C37.5882 3.69237 37.6009 3.58868 37.5857 3.51349C37.5714 3.43875 37.5317 3.36822 37.4668 3.30192C37.4291 3.26283 37.3476 3.20967 37.2224 3.14245L37.0516 3.05077Z" fill="#2F2C67"/>
<path d="M39.0914 4.12312L38.279 3.59469L38.251 3.63763C38.3181 3.68014 38.3597 3.71602 38.3759 3.74528C38.3921 3.77454 38.3979 3.80366 38.3934 3.83264C38.3894 3.86084 38.3579 3.92021 38.299 4.01073L37.7978 4.78135C37.7127 4.91211 37.6659 5.02976 37.6574 5.13431C37.6488 5.23886 37.6791 5.34886 37.7483 5.4643C37.7989 5.54898 37.8923 5.6356 38.0285 5.72418C38.1917 5.83037 38.343 5.87973 38.4821 5.87227C38.6213 5.8648 38.7296 5.82787 38.8069 5.76145C38.885 5.69554 38.9842 5.57013 39.1045 5.38521L39.4933 4.78752C39.535 4.7233 39.569 4.68208 39.5952 4.66387C39.6315 4.63683 39.6701 4.62398 39.7111 4.62531C39.7521 4.62664 39.7946 4.64164 39.8387 4.67033L39.8712 4.69146L39.8991 4.64852L39.3548 4.29448L39.3269 4.33742C39.3903 4.37869 39.4337 4.41954 39.4569 4.45998C39.4718 4.48619 39.4768 4.51915 39.4719 4.55889C39.4669 4.59863 39.4416 4.6537 39.3958 4.72411L38.9783 5.3659C38.8696 5.53303 38.7783 5.64043 38.7043 5.68812C38.6311 5.73631 38.5518 5.76012 38.4663 5.75955C38.382 5.75871 38.2974 5.73061 38.2123 5.67525C38.138 5.62694 38.0863 5.57184 38.0572 5.50996C38.0281 5.44808 38.0175 5.38727 38.0255 5.32753C38.0343 5.26829 38.0845 5.16826 38.1761 5.02745L38.6774 4.25683C38.7358 4.16708 38.7769 4.114 38.8008 4.0976C38.8254 4.08171 38.853 4.07487 38.8835 4.07708C38.9152 4.07903 38.9617 4.09988 39.0228 4.13964L39.0634 4.16606L39.0914 4.12312Z" fill="#2F2C67"/>
<path fill-rule="evenodd" clip-rule="evenodd" d="M40.0877 6.07481L39.762 6.48798C39.6992 6.56771 39.6642 6.6218 39.657 6.65025C39.6512 6.67855 39.6557 6.70857 39.6706 6.74032C39.6856 6.77207 39.7267 6.81451 39.7941 6.86765L39.7624 6.90788L39.0079 6.31305L39.0396 6.27282C39.1077 6.32653 39.1586 6.35666 39.1922 6.36319C39.2272 6.36957 39.2573 6.36633 39.2828 6.35346C39.3089 6.34116 39.3534 6.29515 39.4163 6.21542L40.1705 5.25862C40.2334 5.17889 40.2677 5.12487 40.2736 5.09658C40.2807 5.06813 40.2768 5.03803 40.2619 5.00628C40.247 4.97453 40.2058 4.93208 40.1384 4.87894L40.1701 4.83871L40.8551 5.37869C41.0334 5.51926 41.1542 5.63443 41.2174 5.72422C41.2806 5.814 41.312 5.91281 41.3116 6.02064C41.3118 6.12774 41.2767 6.22587 41.2065 6.31502C41.1208 6.42375 41.0108 6.48278 40.8765 6.4921C40.791 6.49761 40.6945 6.47618 40.5869 6.42779L40.548 7.20627C40.5435 7.30735 40.5448 7.37358 40.5518 7.40495C40.5638 7.45085 40.5885 7.49031 40.6259 7.52334L40.5942 7.56357L40.1299 7.19759L40.1845 6.1511L40.0877 6.07481ZM40.6577 5.35178L40.1486 5.99762L40.2106 6.04647C40.3113 6.1259 40.3938 6.17626 40.4581 6.19757C40.523 6.21815 40.5884 6.21566 40.6544 6.19011C40.7217 6.1644 40.7859 6.11277 40.847 6.03521C40.9356 5.92286 40.9746 5.81901 40.9639 5.72366C40.954 5.62888 40.8907 5.53549 40.774 5.44349L40.6577 5.35178Z" fill="#2F2C67"/>
<path fill-rule="evenodd" clip-rule="evenodd" d="M43.0727 7.64523C43.0659 7.3823 42.9504 7.15163 42.7264 6.95321C42.5337 6.75406 42.3042 6.65631 42.038 6.65996C41.773 6.66358 41.5443 6.76623 41.3519 6.96791C41.1805 7.14755 41.0851 7.35316 41.0658 7.58471C41.0413 7.87776 41.1513 8.14087 41.3957 8.37406C41.6395 8.60661 41.911 8.69978 42.2102 8.65358C42.4359 8.61889 42.631 8.5154 42.7953 8.3431C42.9877 8.14142 43.0802 7.9088 43.0727 7.64523ZM42.2122 6.94866C42.398 6.88357 42.5531 6.91028 42.6773 7.02879C42.7447 7.09314 42.7866 7.16821 42.803 7.254C42.8201 7.34042 42.8026 7.44431 42.7506 7.56565C42.6993 7.68633 42.5879 7.83649 42.4165 8.01613C42.2725 8.16706 42.1392 8.27399 42.0167 8.33693C41.8948 8.39921 41.784 8.42368 41.6845 8.41036C41.6065 8.39979 41.5332 8.36169 41.4644 8.29606C41.3622 8.19858 41.3197 8.08403 41.3369 7.95241C41.3611 7.76382 41.4838 7.55366 41.7049 7.32193C41.8909 7.12693 42.06 7.0025 42.2122 6.94866Z" fill="#2F2C67"/>
<path d="M44.6022 8.90082L44.144 9.32738L44.1064 9.28491C44.206 9.16078 44.2565 9.02782 44.2578 8.88602C44.2605 8.74429 44.2214 8.62785 44.1405 8.53669C44.0781 8.46625 44.0095 8.42715 43.9348 8.41939C43.8613 8.41171 43.8001 8.4296 43.7511 8.47308C43.72 8.50063 43.6988 8.53238 43.6875 8.56831C43.6728 8.61712 43.6692 8.67771 43.6766 8.75007C43.6826 8.80274 43.7086 8.91349 43.7547 9.08234C43.8196 9.31835 43.8416 9.49685 43.8206 9.61786C43.799 9.73817 43.7419 9.83935 43.6493 9.92141C43.5319 10.0255 43.39 10.0693 43.2237 10.0527C43.0586 10.0363 42.9136 9.95761 42.7887 9.81673C42.7495 9.77253 42.7169 9.72676 42.691 9.67944C42.6651 9.63211 42.6382 9.56773 42.6104 9.48629C42.5948 9.4409 42.5775 9.40749 42.5586 9.38609C42.5426 9.36813 42.5189 9.35526 42.4873 9.34748C42.4557 9.3397 42.4203 9.34214 42.381 9.35482L42.347 9.31649L42.8774 8.84622L42.9114 8.88455C42.7891 9.0472 42.7269 9.20659 42.7247 9.36273C42.7238 9.51894 42.7678 9.64711 42.8566 9.74725C42.9252 9.8246 43.0007 9.86739 43.0833 9.87562C43.1664 9.88454 43.236 9.8642 43.2919 9.8146C43.3251 9.78521 43.3492 9.74776 43.3644 9.70225C43.3801 9.65743 43.3859 9.60482 43.3817 9.54441C43.3782 9.48339 43.3584 9.3874 43.3225 9.25644C43.2721 9.07295 43.2442 8.93364 43.2388 8.83851C43.2334 8.74338 43.2445 8.65644 43.2721 8.57768C43.3003 8.49961 43.3472 8.43148 43.4128 8.37331C43.5247 8.27412 43.6565 8.23071 43.8081 8.24308C43.9597 8.25546 44.0909 8.32415 44.2017 8.44916C44.2421 8.49474 44.2758 8.54384 44.3027 8.59645C44.3232 8.63626 44.3425 8.6894 44.3608 8.75588C44.3803 8.82244 44.3984 8.86504 44.4149 8.88369C44.4308 8.90164 44.4489 8.9109 44.4691 8.91146C44.4894 8.91203 44.5245 8.89812 44.5746 8.86975L44.6022 8.90082Z" fill="#2F2C67"/>
<path d="M45.5318 10.1421L44.9519 9.3656L44.9108 9.39625C44.9591 9.4593 44.9857 9.50735 44.9908 9.5404C44.9959 9.57345 44.9913 9.6028 44.9771 9.62843C44.9636 9.6535 44.9135 9.69835 44.827 9.76297L44.0905 10.3131C43.9655 10.4064 43.8809 10.5007 43.8368 10.5958C43.7927 10.691 43.7831 10.8047 43.8082 10.9369C43.8264 11.0338 43.8841 11.1474 43.9814 11.2776C44.0979 11.4336 44.2228 11.5321 44.356 11.5732C44.4891 11.6143 44.6035 11.617 44.699 11.5814C44.7951 11.5465 44.9315 11.4631 45.1082 11.3311L45.6795 10.9044C45.7409 10.8586 45.787 10.8316 45.8178 10.8236C45.8612 10.8107 45.9019 10.812 45.9399 10.8274C45.9779 10.8428 46.0127 10.8716 46.0441 10.9137L46.0673 10.9448L46.1084 10.9141L45.7198 10.3939L45.6788 10.4245C45.7241 10.4852 45.7506 10.5385 45.7585 10.5845C45.7634 10.6142 45.7567 10.6469 45.7384 10.6824C45.72 10.718 45.6772 10.761 45.6099 10.8112L44.9965 11.2694C44.8367 11.3887 44.7139 11.4579 44.6281 11.4771C44.5427 11.4971 44.46 11.492 44.38 11.4619C44.3012 11.4321 44.2315 11.3764 44.1707 11.2951C44.1177 11.2241 44.0882 11.1545 44.0823 11.0864C44.0763 11.0183 44.0874 10.9576 44.1156 10.9043C44.1443 10.8517 44.2259 10.7752 44.3605 10.6747L45.0971 10.1246C45.1829 10.0605 45.2398 10.0249 45.2679 10.0178C45.2965 10.0114 45.3247 10.0145 45.3526 10.0271C45.3817 10.0399 45.4181 10.0755 45.4617 10.1339L45.4907 10.1727L45.5318 10.1421Z" fill="#2F2C67"/>
<path fill-rule="evenodd" clip-rule="evenodd" d="M45.7923 12.3166L45.3437 12.5914C45.2571 12.6444 45.2056 12.683 45.189 12.7073C45.1737 12.7318 45.1676 12.7615 45.1706 12.7965C45.1736 12.8314 45.1975 12.8855 45.2424 12.9587L45.1987 12.9855L44.6968 12.1661L44.7405 12.1394C44.7858 12.2133 44.8231 12.2592 44.8524 12.277C44.883 12.2951 44.9124 12.3025 44.9407 12.2992C44.9695 12.2967 45.0272 12.269 45.1137 12.216L46.1527 11.5796C46.2393 11.5265 46.2902 11.4878 46.3055 11.4632C46.322 11.439 46.3288 11.4095 46.3258 11.3745C46.3228 11.3395 46.2989 11.2855 46.254 11.2123L46.2977 11.1855L46.7533 11.9293C46.8719 12.1229 46.9453 12.2728 46.9735 12.3789C47.0017 12.485 46.9969 12.5886 46.9593 12.6896C46.9223 12.7901 46.8555 12.8701 46.7587 12.9294C46.6406 13.0017 46.517 13.019 46.3878 12.9812C46.3057 12.9568 46.2226 12.9033 46.1384 12.8206L45.8323 13.5374C45.7931 13.6307 45.7713 13.6933 45.767 13.7251C45.7624 13.7723 45.7719 13.8179 45.7956 13.8619L45.7519 13.8886L45.4431 13.3845L45.8567 12.4217L45.7923 12.3166ZM46.5774 11.8357L45.8762 12.2652L45.9174 12.3325C45.9844 12.4419 46.0444 12.5178 46.0973 12.56C46.1511 12.6018 46.2133 12.6221 46.284 12.621C46.3561 12.6202 46.4342 12.594 46.5184 12.5424C46.6404 12.4677 46.7129 12.3837 46.736 12.2906C46.7595 12.1983 46.7324 12.0887 46.6548 11.962L46.5774 11.8357Z" fill="#2F2C67"/>
<path d="M47.7579 15.1109L48.3529 14.8213L48.3305 14.7752C48.2751 14.7816 48.2338 14.7791 48.2067 14.7677C48.1804 14.7559 48.1616 14.7383 48.1503 14.7151C48.1431 14.7001 48.1348 14.6441 48.1255 14.547C48.1174 14.4503 48.1079 14.3821 48.0967 14.3424C48.0773 14.2687 48.0472 14.1899 48.0064 14.1061C47.8747 13.8356 47.6779 13.6537 47.4159 13.5605C47.154 13.4673 46.896 13.4825 46.6421 13.6061C46.5001 13.6751 46.3861 13.7666 46.2998 13.8804C46.2332 13.9693 46.1838 14.0713 46.1516 14.1866C46.1207 14.3023 46.1089 14.4235 46.1162 14.5503C46.1247 14.6775 46.168 14.8212 46.2459 14.9814C46.3069 15.1067 46.3781 15.2214 46.4596 15.3255C46.5406 15.4308 46.6314 15.5257 46.7321 15.6101L47.0831 15.4393C47.1445 15.4094 47.185 15.3943 47.2044 15.3941C47.2407 15.3929 47.271 15.4012 47.2951 15.4193C47.3205 15.4377 47.3504 15.477 47.3849 15.5372L47.4309 15.5148L47.0317 14.6945L46.9856 14.7169L47.0068 14.7604C47.0266 14.8011 47.0355 14.8394 47.0334 14.8753C47.0318 14.912 47.0233 14.9398 47.0078 14.9586C46.9931 14.977 46.9526 15.0024 46.8862 15.0347L46.5352 15.2056C46.4968 15.1688 46.4625 15.1311 46.4324 15.0924C46.4035 15.0541 46.3791 15.0146 46.3593 14.9739C46.3024 14.8569 46.2817 14.7417 46.2974 14.6284C46.3134 14.5159 46.3732 14.4108 46.4766 14.3133C46.58 14.2157 46.7126 14.1276 46.8745 14.0488C47.0081 13.9838 47.1469 13.9378 47.2908 13.9108C47.4347 13.8839 47.5624 13.8952 47.6737 13.9447C47.7859 13.9937 47.8727 14.0814 47.9341 14.2075C47.9983 14.3395 48.0151 14.4816 47.9846 14.6341C47.9541 14.7865 47.871 14.9301 47.7354 15.0648L47.7579 15.1109Z" fill="#2F2C67"/>
<path d="M48.7112 16.104L47.9957 16.3724L48.0088 16.4074C48.0506 16.5189 48.1159 16.5865 48.2047 16.6104C48.2935 16.6343 48.4088 16.6275 48.5505 16.5901L48.569 16.6394L47.6486 16.9846L47.6301 16.9353C47.7265 16.8874 47.8003 16.8345 47.8516 16.7768C47.9032 16.72 47.9316 16.6655 47.9367 16.6133C47.9426 16.5608 47.9299 16.4927 47.8984 16.4088L47.4032 16.5946C47.3064 16.6309 47.2487 16.657 47.23 16.6729C47.2117 16.6896 47.1998 16.7118 47.1944 16.7395C47.189 16.7671 47.1957 16.806 47.2145 16.8561L47.2539 16.9611C47.3154 17.1253 47.4027 17.2424 47.5157 17.3124C47.6291 17.3833 47.7716 17.4111 47.9434 17.396L47.9614 17.444L47.373 17.5744L46.8032 16.0552L46.8511 16.0372L46.873 16.0955C46.8921 16.1465 46.9166 16.1842 46.9464 16.2085C46.9669 16.2264 46.9942 16.2359 47.0281 16.237C47.0524 16.2387 47.1086 16.223 47.1968 16.19L48.3531 15.7563C48.4326 15.7265 48.4806 15.706 48.4971 15.6949C48.5241 15.6749 48.5415 15.6501 48.5491 15.6206C48.561 15.5787 48.5563 15.5293 48.5349 15.4722L48.513 15.4139L48.561 15.3959L49.1128 16.8672L48.593 17.0622L48.5745 17.0129C48.6921 16.9402 48.77 16.8706 48.8081 16.804C48.8466 16.7383 48.8632 16.6592 48.858 16.5665C48.8554 16.5122 48.8292 16.4186 48.7793 16.2855L48.7112 16.104Z" fill="#2F2C67"/>
<path fill-rule="evenodd" clip-rule="evenodd" d="M49.5115 19.0543C49.6412 18.8255 49.6612 18.5683 49.5715 18.2828C49.5091 18.0128 49.3628 17.8107 49.1328 17.6766C48.9039 17.5431 48.655 17.5131 48.3862 17.5868C48.1467 17.6523 47.959 17.7793 47.823 17.9678C47.651 18.2063 47.6096 18.4884 47.6988 18.8142C47.7878 19.1392 47.9724 19.359 48.2526 19.4736C48.4639 19.5603 48.6843 19.5721 48.914 19.5093C49.1829 19.4356 49.382 19.284 49.5115 19.0543ZM49.1333 18.0138C49.326 18.0538 49.4451 18.1566 49.4905 18.3222C49.5151 18.4121 49.5123 18.4981 49.4821 18.58C49.4521 18.6628 49.3836 18.7429 49.2765 18.82C49.1703 18.897 48.9975 18.9682 48.758 19.0338C48.5568 19.0889 48.3875 19.1118 48.25 19.1025C48.1134 19.0931 48.0059 19.0569 47.9275 18.9942C47.8662 18.945 47.823 18.8745 47.7979 18.7828C47.7606 18.6466 47.7832 18.5265 47.8657 18.4226C47.9838 18.2735 48.1972 18.1567 48.5061 18.0721C48.7661 18.0009 48.9751 17.9815 49.1333 18.0138Z" fill="#2F2C67"/>
<path d="M50.0296 20.373L49.0352 21.4797L49.8311 21.3457C49.9422 21.327 50.0146 21.2984 50.0483 21.2599C50.0938 21.2074 50.1069 21.1298 50.0878 21.0273L50.1383 21.0187L50.2413 21.6304L50.1908 21.6389C50.1676 21.5623 50.1455 21.5117 50.1245 21.4872C50.1046 21.4634 50.0751 21.4468 50.0361 21.4375C49.9982 21.4289 49.9355 21.432 49.8481 21.4467L48.3067 21.7062L48.2989 21.6598L49.6295 20.1483L48.4526 20.3465C48.3462 20.3644 48.2783 20.4006 48.2491 20.4552C48.2201 20.5106 48.2108 20.5697 48.2214 20.6325L48.2288 20.6762L48.1783 20.6847L48.0677 20.028L48.1182 20.0195C48.1363 20.1213 48.1692 20.1888 48.2169 20.2219C48.2646 20.2551 48.3376 20.2634 48.4359 20.2468L49.7424 20.0268L49.7849 19.9789C49.8275 19.9315 49.8539 19.8915 49.8644 19.8589C49.8748 19.8262 49.8761 19.7815 49.8685 19.7248L49.919 19.7163L50.0296 20.373Z" fill="#2F2C67"/>
<path d="M49.8026 23.2533L50.4248 23.1851L50.4213 23.1437C50.3642 23.1365 50.3277 23.1266 50.3118 23.1141C50.2959 23.1015 50.287 23.0833 50.2849 23.0594C50.2828 23.0346 50.2938 22.9896 50.3179 22.9246C50.343 22.8604 50.3593 22.8062 50.3666 22.762C50.3765 22.7038 50.3788 22.6443 50.3737 22.5836C50.3595 22.4171 50.2953 22.2836 50.1812 22.1831C50.067 22.0826 49.9355 22.0387 49.7865 22.0514C49.6991 22.0588 49.6208 22.0854 49.5515 22.1311C49.4823 22.1778 49.4214 22.2408 49.3689 22.3203C49.3164 22.3998 49.2555 22.5282 49.1863 22.7055C49.1369 22.832 49.0953 22.9207 49.0617 22.9717C49.029 23.0227 48.9929 23.0614 48.9535 23.0879C48.9141 23.1154 48.8724 23.131 48.8282 23.1347C48.7537 23.1411 48.6858 23.1158 48.6245 23.059C48.5632 23.003 48.5282 22.9236 48.5194 22.8206C48.5081 22.6872 48.5494 22.5582 48.6435 22.4335C48.7385 22.3096 48.8837 22.219 49.0789 22.1616L49.0745 22.1106L48.3682 22.1707L48.3726 22.2217C48.4117 22.235 48.4416 22.2543 48.4622 22.2794C48.4829 22.3045 48.4943 22.329 48.4963 22.3529C48.4987 22.3814 48.4926 22.4185 48.478 22.4642C48.4516 22.5461 48.4347 22.6138 48.4272 22.6672C48.4197 22.7207 48.4184 22.7768 48.4234 22.8357C48.4394 23.0233 48.5086 23.173 48.6312 23.2849C48.7547 23.3976 48.8946 23.4473 49.051 23.434C49.1742 23.4235 49.2804 23.3765 49.3697 23.2929C49.4588 23.2084 49.5479 23.0522 49.6369 22.8241C49.7008 22.6612 49.7461 22.5569 49.7728 22.5111C49.8101 22.4486 49.8492 22.4022 49.8902 22.3718C49.9207 22.3498 49.9567 22.337 49.9981 22.3335C50.0634 22.3279 50.1231 22.3502 50.1774 22.4002C50.2327 22.4511 50.2643 22.5234 50.2723 22.6172C50.2826 22.7386 50.2444 22.8554 50.1576 22.9674C50.0718 23.0803 49.9519 23.1568 49.7978 23.1967L49.8026 23.2533Z" fill="#2F2C67"/>
<path d="M28.7725 49.0188L28.1702 49.2243C28.2612 49.4979 28.4244 49.7009 28.6596 49.8332C28.8946 49.964 29.1628 49.9976 29.4643 49.9339C29.7825 49.8667 30.0266 49.7076 30.1967 49.4564C30.3668 49.2052 30.421 48.9334 30.3593 48.641C30.3167 48.4395 30.2229 48.2797 30.0776 48.1616C29.9339 48.0432 29.7623 47.9837 29.5628 47.9831C29.8457 47.7414 29.9562 47.4743 29.8945 47.1819C29.851 46.9758 29.7339 46.8075 29.5433 46.6768C29.3117 46.5168 29.0391 46.4699 28.7255 46.5361C28.5422 46.5748 28.3836 46.6447 28.2498 46.7457C28.1173 46.845 28.0221 46.964 27.9644 47.1028C27.9079 47.2397 27.8804 47.4133 27.882 47.6234L28.4918 47.5991C28.4777 47.4502 28.5013 47.3296 28.5626 47.2376C28.6239 47.1455 28.7091 47.088 28.8181 47.0649C28.9287 47.0416 29.0244 47.0562 29.1052 47.1088C29.1859 47.1614 29.2381 47.2437 29.2618 47.3558C29.2896 47.4876 29.2666 47.6033 29.1926 47.7028C29.1183 47.8008 28.9944 47.8657 28.8207 47.8976L28.8601 48.433C28.967 48.3771 29.0614 48.3406 29.1432 48.3233C29.2674 48.2971 29.3827 48.3218 29.4889 48.3975C29.5951 48.4732 29.6651 48.5914 29.699 48.752C29.7348 48.9217 29.7179 49.0661 29.6481 49.1853C29.5798 49.3042 29.4798 49.3775 29.3479 49.4053C29.2252 49.4313 29.1119 49.4117 29.0079 49.3466C28.904 49.2815 28.8255 49.1722 28.7725 49.0188Z" fill="#2F2C67"/>
<path d="M20.5692 49.7947L21.2029 49.9512L22.0225 46.6318L21.5083 46.5049C21.3864 46.6885 21.2098 46.8323 20.9783 46.9362C20.7473 47.0387 20.5424 47.0966 20.3637 47.1098L20.2217 47.6849C20.5615 47.6587 20.8739 47.566 21.1588 47.4067L20.5692 49.7947Z" fill="#2F2C67"/>
<path fill-rule="evenodd" clip-rule="evenodd" d="M23.1813 49.4208L22.5459 49.438C22.5689 49.7227 22.6563 49.9428 22.8081 50.0984C22.9601 50.2524 23.1688 50.3404 23.4342 50.3624C23.803 50.393 24.1138 50.2804 24.3665 50.0248C24.6192 49.7692 24.7713 49.3312 24.8227 48.7108C24.8732 48.1013 24.7992 47.6546 24.6005 47.3709C24.4019 47.0856 24.1306 46.9287 23.7865 46.9002C23.4701 46.874 23.2006 46.9581 22.9778 47.1525C22.7567 47.3454 22.6319 47.614 22.6033 47.9581C22.576 48.2884 22.6501 48.5649 22.8259 48.7877C23.0033 49.009 23.2255 49.1308 23.4925 49.1529C23.7379 49.1733 23.9502 49.0953 24.1295 48.9191C24.071 49.3058 23.9896 49.5569 23.8853 49.6726C23.7809 49.7882 23.6616 49.8405 23.5273 49.8294C23.4208 49.8206 23.3377 49.7826 23.278 49.7155C23.2184 49.6484 23.1861 49.5502 23.1813 49.4208ZM24.0306 47.6383C24.1182 47.7621 24.1533 47.9289 24.1359 48.1388C24.1201 48.3302 24.0648 48.4716 23.9702 48.5632C23.8772 48.655 23.7681 48.6956 23.6431 48.6853C23.5135 48.6745 23.4097 48.6147 23.3317 48.5056C23.2539 48.3951 23.224 48.2302 23.2422 48.0111C23.2601 47.7951 23.3123 47.6432 23.3988 47.5556C23.487 47.4666 23.5913 47.4271 23.7117 47.437C23.8382 47.4475 23.9445 47.5146 24.0306 47.6383Z" fill="#2F2C67"/>
<path fill-rule="evenodd" clip-rule="evenodd" d="M25.3994 49.6064L26.0227 49.4817C26.0494 49.6083 26.0978 49.6997 26.168 49.7557C26.2382 49.8117 26.3266 49.835 26.433 49.8257C26.5672 49.8139 26.6759 49.7421 26.7592 49.6104C26.8424 49.4788 26.8801 49.2174 26.8721 48.8264C26.7253 49.0305 26.5292 49.1433 26.284 49.1649C26.0171 49.1884 25.7775 49.1061 25.5651 48.918C25.3541 48.7283 25.2341 48.4683 25.205 48.1382C25.1748 47.7943 25.2522 47.5084 25.4374 47.2807C25.624 47.0514 25.8754 46.9228 26.1916 46.895C26.5356 46.8647 26.8296 46.9733 27.0737 47.2208C27.3176 47.4667 27.4663 47.8943 27.5199 48.5036C27.5744 49.1237 27.4989 49.5811 27.2932 49.8759C27.0875 50.1707 26.8003 50.3343 26.4316 50.3667C26.1663 50.3901 25.9457 50.3387 25.7699 50.2127C25.5939 50.0852 25.4704 49.8831 25.3994 49.6064ZM26.7461 48.0563C26.7276 47.8466 26.6647 47.6881 26.5574 47.581C26.4516 47.4737 26.3354 47.4256 26.2089 47.4367C26.0886 47.4473 25.9926 47.5039 25.9208 47.6066C25.8504 47.7076 25.8247 47.8661 25.8437 48.0821C25.8629 48.3011 25.9203 48.4585 26.0157 48.5543C26.1111 48.6485 26.2235 48.6899 26.3531 48.6785C26.4781 48.6675 26.5786 48.6089 26.6548 48.5027C26.7325 48.3964 26.7629 48.2476 26.7461 48.0563Z" fill="#2F2C67"/>
<path d="M60.8345 8.23624H63.5102V15.4136C63.5102 16.5526 63.5433 17.2908 63.6096 17.6283C63.7241 18.1706 63.9953 18.6075 64.4231 18.939C64.857 19.2644 65.4476 19.4271 66.1949 19.4271C66.9542 19.4271 67.5267 19.2734 67.9124 18.9661C68.2981 18.6527 68.5301 18.2701 68.6084 17.8181C68.6868 17.3661 68.7259 16.6158 68.7259 15.5672V8.23624H71.4016V15.1966C71.4016 16.7876 71.3293 17.9115 71.1847 18.5684C71.04 19.2252 70.7719 19.7796 70.3802 20.2316C69.9945 20.6836 69.4762 21.0452 68.8254 21.3164C68.1745 21.5815 67.3248 21.7141 66.2762 21.7141C65.0107 21.7141 64.0495 21.5695 63.3926 21.2802C62.7418 20.9849 62.2266 20.6052 61.8469 20.1412C61.4672 19.6712 61.2171 19.18 61.0966 18.6678C60.9219 17.9085 60.8345 16.7876 60.8345 15.3051V8.23624Z" fill="#0D4F8D"/>
<path d="M86.1812 21.4881H83.2704L82.1134 18.478H76.8163L75.7225 21.4881H72.8841L78.0456 8.23624H80.875L86.1812 21.4881ZM81.2546 16.2452L79.4287 11.3277L77.6389 16.2452H81.2546Z" fill="#0D4F8D"/>
<path d="M87.6365 21.4881V8.23624H90.2399L95.6636 17.0859V8.23624H98.1494V21.4881H95.4647L90.1224 12.8464V21.4881H87.6365Z" fill="#0D4F8D"/>
<path d="M59.4775 40.9927L64.5668 27.7409H66.456L71.8797 40.9927H69.882L68.3362 36.9792H62.795L61.3397 40.9927H59.4775ZM63.3012 35.551H67.7939L66.4108 31.881C65.989 30.7661 65.6756 29.8501 65.4707 29.133C65.302 29.9827 65.0639 30.8264 64.7566 31.664L63.3012 35.551Z" fill="#0D4F8D"/>
<path d="M82.7361 36.3465L84.4898 36.7894C84.1222 38.2297 83.4593 39.3295 82.5011 40.0888C81.5489 40.8421 80.3828 41.2187 79.0028 41.2187C77.5746 41.2187 76.4115 40.9295 75.5136 40.3509C74.6217 39.7664 73.9407 38.9227 73.4706 37.8199C73.0066 36.7171 72.7746 35.5329 72.7746 34.2674C72.7746 32.8874 73.0367 31.6851 73.561 30.6606C74.0914 29.6301 74.8416 28.8497 75.8119 28.3194C76.7881 27.7831 77.8608 27.5149 79.0299 27.5149C80.3557 27.5149 81.4706 27.8524 82.3745 28.5273C83.2785 29.2023 83.9082 30.1514 84.2638 31.3747L82.5372 31.7815C82.2299 30.8173 81.7839 30.1152 81.1994 29.6753C80.6148 29.2354 79.8796 29.0154 78.9938 29.0154C77.9753 29.0154 77.1226 29.2595 76.4356 29.7476C75.7546 30.2358 75.2755 30.8926 74.9983 31.7182C74.7211 32.5378 74.5825 33.3845 74.5825 34.2583C74.5825 35.3853 74.7452 36.3706 75.0706 37.2142C75.4021 38.0519 75.9143 38.6786 76.6073 39.0945C77.3004 39.5103 78.0506 39.7182 78.8582 39.7182C79.8405 39.7182 80.6721 39.4349 81.3531 38.8685C82.034 38.302 82.4951 37.4613 82.7361 36.3465Z" fill="#0D4F8D"/>
<path d="M85.2039 40.9927L90.2931 27.7409H92.1824L97.606 40.9927H95.6083L94.0626 36.9792H88.5214L87.066 40.9927H85.2039ZM89.0276 35.551H93.5202L92.1372 31.881C91.7153 30.7661 91.4019 29.8501 91.1971 29.133C91.0283 29.9827 90.7903 30.8264 90.4829 31.664L89.0276 35.551Z" fill="#0D4F8D"/>
<path d="M99.0072 40.9927V27.7409H103.572C104.603 27.7409 105.389 27.8042 105.931 27.9307C106.691 28.1055 107.339 28.4219 107.875 28.8799C108.574 29.4704 109.095 30.2267 109.439 31.1488C109.788 32.0648 109.963 33.1133 109.963 34.2945C109.963 35.3009 109.845 36.1928 109.61 36.9702C109.375 37.7476 109.074 38.3924 108.707 38.9046C108.339 39.4108 107.935 39.8116 107.495 40.1069C107.061 40.3961 106.534 40.6161 105.913 40.7668C105.299 40.9174 104.591 40.9927 103.789 40.9927H99.0072ZM100.761 39.4289H103.59C104.464 39.4289 105.148 39.3476 105.642 39.1849C106.142 39.0221 106.54 38.7931 106.835 38.4979C107.251 38.082 107.574 37.5246 107.803 36.8256C108.038 36.1205 108.155 35.2677 108.155 34.2674C108.155 32.8813 107.926 31.8177 107.468 31.0764C107.016 30.3292 106.465 29.829 105.814 29.5759C105.344 29.3951 104.588 29.3047 103.545 29.3047H100.761V39.4289Z" fill="#0D4F8D"/>
<path d="M112.422 40.9927V27.7409H122.004V29.3047H114.175V33.3634H121.506V34.9182H114.175V39.4289H122.311V40.9927H112.422Z" fill="#0D4F8D"/>
<path d="M124.679 40.9927V27.7409H127.319L130.455 37.1239C130.745 37.9977 130.956 38.6515 131.088 39.0854C131.239 38.6033 131.474 37.8952 131.793 36.9611L134.966 27.7409H137.325V40.9927H135.635V29.9013L131.784 40.9927H130.202L126.37 29.7115V40.9927H124.679Z" fill="#0D4F8D"/>
<path d="M143.888 40.9927V35.3792L138.781 27.7409H140.914L143.527 31.7363C144.009 32.4836 144.458 33.2309 144.873 33.9781C145.271 33.2851 145.753 32.5047 146.32 31.6369L148.887 27.7409H150.93L145.642 35.3792V40.9927H143.888Z" fill="#0D4F8D"/>
</svg>
