<svg width="32" height="32" viewBox="0 0 32 32" fill="none" xmlns="http://www.w3.org/2000/svg">
<path d="M26.667 8H5.33366C3.8609 8 2.66699 9.19391 2.66699 10.6667V21.3333C2.66699 22.8061 3.8609 24 5.33366 24H26.667C28.1398 24 29.3337 22.8061 29.3337 21.3333V10.6667C29.3337 9.19391 28.1398 8 26.667 8Z" stroke="#65CEBB" stroke-width="2" stroke-linecap="round" stroke-linejoin="round"/>
<path d="M15.9997 18.6667C17.4724 18.6667 18.6663 17.4728 18.6663 16C18.6663 14.5273 17.4724 13.3333 15.9997 13.3333C14.5269 13.3333 13.333 14.5273 13.333 16C13.333 17.4728 14.5269 18.6667 15.9997 18.6667Z" stroke="#65CEBB" stroke-width="2" stroke-linecap="round" stroke-linejoin="round"/>
<path d="M24 16H24.0133M8 16H8.01333H8Z" stroke="#65CEBB" stroke-width="2" stroke-linecap="round" stroke-linejoin="round"/>
</svg>
