<svg width="21" height="22" viewBox="0 0 21 22" fill="none" xmlns="http://www.w3.org/2000/svg">
<path d="M19.25 15.305V17.93C19.251 18.1737 19.2011 18.4149 19.1034 18.6382C19.0058 18.8615 18.8626 19.0619 18.6831 19.2266C18.5035 19.3914 18.2915 19.5168 18.0607 19.5949C17.8298 19.6729 17.5852 19.7019 17.3425 19.68C14.65 19.3874 12.0636 18.4674 9.79125 16.9938C7.6771 15.6503 5.88467 13.8579 4.54125 11.7438C3.06248 9.46107 2.14222 6.86213 1.855 4.15751C1.83314 3.91555 1.86189 3.67168 1.93944 3.44143C2.01699 3.21119 2.14163 2.99962 2.30542 2.82018C2.46922 2.64075 2.66858 2.49738 2.89082 2.39922C3.11306 2.30106 3.3533 2.25024 3.59625 2.25001H6.22125C6.6459 2.24583 7.05757 2.39621 7.37954 2.6731C7.70152 2.95 7.91182 3.33453 7.97125 3.75501C8.08205 4.59507 8.28752 5.4199 8.58375 6.21376C8.70148 6.52695 8.72696 6.86731 8.65717 7.19453C8.58738 7.52175 8.42526 7.82211 8.19 8.06001L7.07875 9.17126C8.32436 11.3619 10.1382 13.1757 12.3288 14.4213L13.44 13.31C13.6779 13.0748 13.9783 12.9126 14.3055 12.8428C14.6327 12.7731 14.9731 12.7985 15.2863 12.9163C16.0801 13.2125 16.9049 13.418 17.745 13.5288C18.17 13.5887 18.5582 13.8028 18.8357 14.1303C19.1132 14.4578 19.2607 14.8759 19.25 15.305Z" stroke="#136FF0" stroke-width="2" stroke-linecap="round" stroke-linejoin="round"/>
</svg>
