<svg width="36" height="36" viewBox="0 0 36 36" fill="none" xmlns="http://www.w3.org/2000/svg">
<path fill-rule="evenodd" clip-rule="evenodd" d="M29.9808 28.605C32.4817 25.7818 34 22.0682 34 18C34 9.16344 26.8366 2 18 2C9.16344 2 2 9.16344 2 18C2 22.0682 3.51833 25.7818 6.01923 28.605C9.1646 25.8669 13.3799 24.2 18 24.2C22.6201 24.2 26.8354 25.8669 29.9808 28.605ZM28.5598 30.0207C25.7892 27.6538 22.0837 26.2 18 26.2C13.9163 26.2 10.2108 27.6538 7.44015 30.0207C10.2578 32.4978 13.9534 34 18 34C22.0466 34 25.7422 32.4978 28.5598 30.0207ZM18 36C27.9411 36 36 27.9411 36 18C36 8.05887 27.9411 0 18 0C8.05887 0 0 8.05887 0 18C0 27.9411 8.05887 36 18 36ZM18 19.6C20.8719 19.6 23.2 17.2719 23.2 14.4C23.2 11.5281 20.8719 9.2 18 9.2C15.1281 9.2 12.8 11.5281 12.8 14.4C12.8 17.2719 15.1281 19.6 18 19.6ZM18 21.6C21.9764 21.6 25.2 18.3764 25.2 14.4C25.2 10.4235 21.9764 7.2 18 7.2C14.0236 7.2 10.8 10.4235 10.8 14.4C10.8 18.3764 14.0236 21.6 18 21.6Z" fill="#3A3A46"/>
</svg>
